<?xml version="1.0" encoding="UTF-8"?>
<svg xmlns="http://www.w3.org/2000/svg" version="1.1" viewBox="0 0 145.9 190.6">
  <defs>
    <style>
      .cls-1, .cls-2 {
        stroke: #231f20;
      }

      .cls-1, .cls-2, .cls-3 {
        stroke-miterlimit: 10;
      }

      .cls-1, .cls-3 {
        fill: none;
      }

      .cls-2, .cls-4 {
        fill: #231f20;
      }

      .cls-5 {
        fill: #f5f5f6;
      }

      .cls-5, .cls-6, .cls-4, .cls-7, .cls-8, .cls-9 {
        stroke-width: 0px;
      }

      .cls-6 {
        fill: #000;
      }

      .cls-10 {
        opacity: .5;
      }

      .cls-7 {
        fill: #10100f;
      }

      .cls-8 {
        fill: #f8f9f9;
      }

      .cls-9 {
        fill: #f2b653;
      }

      .cls-3 {
        stroke: #f2b653;
        stroke-width: .3px;
      }
    </style>
  </defs>
  <g id="print">
    <rect class="cls-9" x="712.9" y="-216" width="170.1" height="226.8" rx="5.2" ry="5.2"/>
    <g>
      <path class="cls-4" d="M745.8-41.8c-2.6,0-4.7-.4-6.4-1.3-1.7-.9-3-2.1-3.8-3.6s-1.2-3.4-1.2-5.4.5-4.3,1.4-6c.9-1.7,2.3-3,4.1-4s3.9-1.4,6.4-1.4,4.2.5,5.4,1.4c1.3.9,1.9,2.2,1.9,3.8s-.3,2.1-1,2.8c-.7.7-1.6,1-2.8,1s-1.3,0-1.8-.3c-.5-.2-1-.4-1.5-.5-.5-.2-1.1-.3-1.7-.3s-1.1,0-1.6.3c-.5.2-.9.5-1.2.9-.3.4-.4,1-.4,1.7s.3,1.6.9,2c.6.4,1.3.6,2.3.6s1,0,1.6-.1c.6,0,1.2-.1,1.8-.2.6,0,1.1,0,1.5,0,1.1,0,1.9.3,2.5.9.6.6.9,1.5.9,2.7s-.6,2.8-1.8,3.7c-1.2.9-3,1.4-5.5,1.4Z"/>
      <path class="cls-4" d="M764.2-41.9c-2.5,0-4.4-.3-5.9-1-1.5-.7-2.5-1.6-3.2-2.9-.7-1.2-1-2.7-1-4.5s.5-4,1.4-5.6c.9-1.5,2.2-2.7,3.8-3.5,1.6-.8,3.4-1.2,5.4-1.2s4.2.5,5.3,1.4c1.1,1,1.7,2.2,1.7,3.7s-.3,2.3-1,3.2c-.7.9-1.6,1.6-2.8,2.1-1.2.5-2.6.7-4.1.7s-1.4,0-2.1-.2c-.7,0-1.3-.2-1.8-.4l.7-1.7c0,.5,0,1,0,1.4,0,.9.3,1.5.9,1.8s1.5.5,2.6.5,2-.1,2.8-.3c.8-.2,1.4-.5,2-.7.6-.2,1.1-.3,1.7-.3s.7,0,1.1.3.7.5,1,.8c.3.4.4.9.4,1.5s-.3,1.7-1,2.4c-.7.7-1.6,1.3-2.9,1.7-1.3.4-2.9.6-4.8.6ZM762.4-52.4c1,0,1.8-.2,2.5-.7.7-.5,1.1-1,1.1-1.7s-.2-.8-.5-1.1c-.3-.3-.8-.4-1.3-.4s-1.2.1-1.8.4c-.6.2-1,.6-1.3.9-.3.4-.5.8-.5,1.3s.2.8.5,1c.3.2.8.4,1.4.4Z"/>
      <path class="cls-4" d="M773.7-54.6c0-2.3.3-4,.9-5,.6-1,1.4-1.6,2.4-1.6s1.3.2,1.7.6c.4.4.7,1,.9,1.6.2.6.3,1.3.3,1.9h-.2c.3-1.1.9-2.1,1.5-2.9.7-.8,1.5-1.2,2.5-1.2s2.3.5,2.9,1.5c.6,1,.9,2.3.9,3.9s-.3,3.4-.9,4.3c-.6.8-1.5,1.2-2.5,1.2s-1.4-.2-1.8-.7c-.4-.5-.5-1.1-.5-2.1,0-.7,0-1.1,0-1.4s-.2-.4-.4-.4c-.3,0-.5.1-.6.4s-.2.7-.2,1.2,0,.9.2,1.5.2,1.3.3,2c.1.7.2,1.4.3,2.1.1.7.2,1.3.2,1.9,0,1.2-.3,2.1-.9,2.7-.6.5-1.4.8-2.5.8s-1.9-.3-2.5-.8c-.7-.5-1.1-1.4-1.3-2.6-.1-.7-.2-1.6-.3-2.7-.1-1.1-.2-2.2-.3-3.4,0-1.2,0-2.2,0-3.1Z"/>
      <path class="cls-4" d="M791.4-61.1c1.1,0,1.9.3,2.5.9.6.6,1,1.5,1.3,2.8.2.7.4,1.6.6,2.7.2,1.1.5,2.2.7,3.4.2,1.2.4,2.2.5,3.2h.1c.2-1,.4-2,.5-3.1.2-1.1.3-2.1.5-3.1.1-1,.3-1.8.3-2.4.1-1.4.4-2.4.9-3,.5-.6,1.2-.9,2.2-.9s2.1.4,2.7,1.1c.7.7,1,1.8,1,3.3s0,1.9-.3,3c-.2,1.1-.4,2.1-.7,3.1-.3,1-.7,2-1.1,2.8-.5,1.1-1.1,2.1-1.8,2.9-.7.8-1.4,1.4-2.2,1.8s-1.7.6-2.7.6-2.2-.3-3.1-1c-.9-.7-1.8-1.7-2.6-3.3-.6-1.1-1.1-2.3-1.5-3.5-.4-1.2-.7-2.4-.9-3.6-.2-1.2-.3-2.3-.3-3.3,0-1.5.3-2.6.8-3.4s1.4-1.1,2.6-1.1Z"/>
      <path class="cls-4" d="M816.1-41.9c-2.5,0-4.4-.3-5.9-1-1.5-.7-2.5-1.6-3.2-2.9-.7-1.2-1-2.7-1-4.5s.5-4,1.4-5.6c.9-1.5,2.2-2.7,3.8-3.5,1.6-.8,3.4-1.2,5.4-1.2s4.2.5,5.3,1.4c1.1,1,1.7,2.2,1.7,3.7s-.3,2.3-1,3.2c-.7.9-1.6,1.6-2.8,2.1-1.2.5-2.6.7-4.1.7s-1.4,0-2.1-.2c-.7,0-1.3-.2-1.8-.4l.7-1.7c0,.5,0,1,0,1.4,0,.9.3,1.5.9,1.8s1.5.5,2.6.5,2-.1,2.8-.3c.8-.2,1.4-.5,2-.7.6-.2,1.1-.3,1.7-.3s.7,0,1.1.3.7.5,1,.8c.3.4.4.9.4,1.5s-.3,1.7-1,2.4c-.7.7-1.6,1.3-2.9,1.7-1.3.4-2.9.6-4.8.6ZM814.3-52.4c1,0,1.8-.2,2.5-.7.7-.5,1.1-1,1.1-1.7s-.2-.8-.5-1.1c-.3-.3-.8-.4-1.3-.4s-1.2.1-1.8.4c-.6.2-1,.6-1.3.9-.3.4-.5.8-.5,1.3s.2.8.5,1c.3.2.8.4,1.4.4Z"/>
      <path class="cls-4" d="M825.6-46.4c0-.9.3-1.9.9-2.8.6-.9,1.7-1.8,3.1-2.8,1.4-1,3.3-2,5.7-3.1h0c-.6,0-1.4.2-2.1.3-.8.1-1.5.2-2.2.3-.7,0-1.3.1-1.8.1-1.2,0-2.1-.2-2.7-.7-.6-.5-.9-1.1-.9-2s.2-1.3.6-1.9c.4-.5,1-.9,1.8-1.2.6-.2,1.3-.4,2.1-.6.8-.2,1.7-.3,2.6-.4.9,0,1.8-.1,2.7-.1,1.5,0,2.8.1,3.8.3,1,.2,1.8.6,2.3,1.2.5.6.8,1.5.8,2.6s-.2,1.2-.5,1.8c-.3.6-.9,1.2-1.7,1.9-.8.7-1.9,1.4-3.4,2.3-1.4.8-3.3,1.8-5.6,2.9h0c.6,0,1.2-.2,2-.4.8-.1,1.6-.3,2.4-.3.8,0,1.6-.1,2.3-.1,1.5,0,2.5.2,3.2.6.6.4,1,1.1,1,2.1s-.7,2.1-2.1,2.9-3.4,1.2-6.1,1.2-4.9-.4-6.2-1.2c-1.3-.8-2-1.9-2-3.3Z"/>
      <path class="cls-4" d="M857.9-41.8c-1.2,0-1.9-.3-2.3-.8s-.5-1.4-.5-2.5l.5.2c-1.1,2.2-3.2,3.3-6.2,3.3s-2.6-.2-3.5-.7c-.9-.5-1.6-1.1-2-1.9-.5-.8-.7-1.7-.7-2.7,0-1.7.6-3,1.9-4,1.2-1,2.9-1.5,4.9-1.5s2.3.2,3.3.6c.9.4,1.7.9,2.4,1.6h-1c0-1.6-.3-2.7-.9-3.4-.6-.7-1.4-1-2.6-1s-1,0-1.6.2c-.6.2-1.1.3-1.7.5-.6.2-1.2.2-1.8.2s-1.4-.2-1.9-.6-.7-1-.7-1.7.4-1.7,1.2-2.5c.8-.7,1.8-1.3,3.1-1.7,1.3-.4,2.7-.6,4.2-.6s3.7.4,5.1,1.1c1.4.7,2.5,1.9,3,3.4.4,1.1.8,2.3.9,3.7.2,1.4.3,2.9.3,4.4s-.1,3-.4,4-.6,1.6-1.2,2c-.5.4-1.2.6-2.1.6ZM852-46.2c.4,0,.8,0,1.2-.2.4-.1.8-.3,1-.6.3-.3.4-.6.4-.9s-.1-.7-.3-.9c-.2-.2-.5-.4-.9-.5-.4-.1-.8-.2-1.2-.2-.8,0-1.4.2-1.8.5-.5.3-.7.7-.7,1.2s.2.8.6,1.1c.4.3,1,.4,1.6.4Z"/>
    </g>
    <g>
      <path class="cls-4" d="M739.4-12.7c-.8,0-1.4-.2-1.9-.6-.5-.4-.9-1-1.1-1.8-.2-.9-.3-2-.4-3.4-.1-1.4-.2-2.9-.2-4.4s0-1.8,0-3,0-2.2.2-3.4c0-1.1.2-2.2.2-3.2,0-1,.2-1.8.3-2.4.2-1.3.6-2.3,1.2-3,.6-.7,1.5-1.1,2.6-1.1s2.1.4,2.7,1.2c.6.8.9,1.7.9,2.9s0,2.1-.2,3.5c-.1,1.3-.4,2.7-.6,4l-.4-.2c.2-1,.6-1.8,1.1-2.6.5-.8,1.2-1.4,2-1.8.8-.5,1.7-.7,2.9-.7,2.1,0,3.8.8,5,2.3,1.2,1.5,1.8,3.9,1.8,7.2s-.3,4.2-1,5.7c-.7,1.5-1.6,2.7-2.8,3.4-1.2.8-2.6,1.1-4.1,1.1s-2.6-.4-3.5-1.2c-1-.8-1.6-2-1.9-3.5l.7.4c-.3,1.6-.7,2.8-1.2,3.5-.6.7-1.3,1.1-2.2,1.1ZM745.6-18.5c.7,0,1.3-.4,1.8-1.1.5-.7.8-1.8.8-3.3s-.2-2.2-.6-2.9c-.4-.8-1.1-1.1-2.1-1.1s-1.4.3-1.9,1c-.5.7-.7,1.7-.7,3s.2,2.3.7,3.2c.5.8,1.2,1.2,2,1.2Z"/>
      <path class="cls-4" d="M767.6-12.8c-2.7,0-4.9-.4-6.5-1.1-1.6-.7-2.8-1.8-3.5-3.2-.7-1.4-1.1-3-1.1-4.9s.5-4.5,1.5-6.2c1-1.7,2.4-3,4.1-3.9,1.8-.9,3.8-1.4,6-1.4s4.6.5,5.8,1.6c1.2,1.1,1.9,2.4,1.9,4.1s-.4,2.5-1.1,3.5c-.7,1-1.8,1.8-3.1,2.3-1.3.5-2.8.8-4.6.8s-1.6,0-2.3-.2c-.8-.1-1.4-.3-2-.4l.8-1.9c0,.5,0,1.1,0,1.6,0,1,.3,1.6,1,2s1.7.6,2.9.6,2.2-.1,3.1-.4c.8-.3,1.6-.5,2.2-.8.6-.3,1.2-.4,1.8-.4s.8,0,1.2.3c.4.2.8.5,1.1.9.3.4.4,1,.4,1.7s-.4,1.8-1.1,2.6c-.7.8-1.8,1.4-3.2,1.8-1.4.4-3.2.7-5.3.7ZM765.7-24.4c1.1,0,2-.3,2.8-.8.8-.5,1.2-1.2,1.2-1.9s-.2-.9-.5-1.2c-.4-.3-.8-.5-1.5-.5s-1.3.1-1.9.4c-.6.3-1.1.6-1.5,1-.4.4-.6.9-.6,1.4s.2.9.5,1.1c.4.3.9.4,1.5.4Z"/>
      <path class="cls-4" d="M788.9-12.8c-2.7,0-4.9-.4-6.5-1.1-1.6-.7-2.8-1.8-3.5-3.2-.7-1.4-1.1-3-1.1-4.9s.5-4.5,1.5-6.2c1-1.7,2.4-3,4.1-3.9,1.8-.9,3.8-1.4,6-1.4s4.6.5,5.8,1.6c1.2,1.1,1.9,2.4,1.9,4.1s-.4,2.5-1.1,3.5c-.7,1-1.8,1.8-3.1,2.3-1.3.5-2.8.8-4.6.8s-1.6,0-2.3-.2c-.8-.1-1.4-.3-2-.4l.8-1.9c0,.5,0,1.1,0,1.6,0,1,.3,1.6,1,2s1.7.6,2.9.6,2.2-.1,3.1-.4c.8-.3,1.6-.5,2.2-.8.6-.3,1.2-.4,1.8-.4s.8,0,1.2.3c.4.2.8.5,1.1.9.3.4.4,1,.4,1.7s-.4,1.8-1.1,2.6c-.7.8-1.8,1.4-3.2,1.8-1.4.4-3.2.7-5.3.7ZM787-24.4c1.1,0,2-.3,2.8-.8.8-.5,1.2-1.2,1.2-1.9s-.2-.9-.5-1.2c-.4-.3-.8-.5-1.5-.5s-1.3.1-1.9.4c-.6.3-1.1.6-1.5,1-.4.4-.6.9-.6,1.4s.2.9.5,1.1c.4.3.9.4,1.5.4Z"/>
      <path class="cls-4" d="M799.4-26.8c0-2.6.3-4.4,1-5.6.6-1.1,1.5-1.7,2.7-1.7s1.4.2,1.9.7.8,1.1,1,1.8c.2.7.3,1.4.3,2.1h-.2c.4-1.3.9-2.3,1.7-3.2.8-.9,1.7-1.3,2.8-1.3s2.5.6,3.2,1.7c.7,1.1,1,2.5,1,4.2s-.3,3.8-1,4.7c-.7.9-1.6,1.3-2.8,1.3s-1.5-.2-1.9-.7c-.4-.5-.6-1.3-.5-2.3,0-.8,0-1.3,0-1.5,0-.3-.2-.4-.4-.4-.3,0-.5.2-.6.5-.1.3-.2.8-.2,1.3s0,1,.2,1.7c.1.7.2,1.4.4,2.2.1.8.3,1.6.4,2.3.1.8.2,1.5.2,2.1,0,1.4-.3,2.3-1,2.9-.7.6-1.6.9-2.8.9s-2.1-.3-2.8-.9c-.7-.6-1.2-1.5-1.4-2.8-.1-.8-.3-1.8-.4-3s-.2-2.4-.3-3.7,0-2.4,0-3.4Z"/>
      <path class="cls-4" d="M816.7-20.9c1.2,0,2.1.3,2.9,1s1.1,1.6,1.1,2.9-.3,2.1-1,3c-.7.8-1.8,1.2-3.3,1.2s-2.2-.3-2.8-1c-.6-.7-.9-1.6-.9-2.8s.1-1.4.4-2.1c.2-.7.7-1.2,1.2-1.6.6-.4,1.4-.6,2.4-.6Z"/>
      <path class="cls-4" d="M832.8-12.8c-2.7,0-4.9-.4-6.5-1.1-1.6-.7-2.8-1.8-3.5-3.2-.7-1.4-1.1-3-1.1-4.9s.5-4.5,1.5-6.2c1-1.7,2.4-3,4.1-3.9,1.8-.9,3.8-1.4,6-1.4s4.6.5,5.8,1.6c1.2,1.1,1.9,2.4,1.9,4.1s-.4,2.5-1.1,3.5c-.7,1-1.8,1.8-3.1,2.3-1.3.5-2.8.8-4.6.8s-1.6,0-2.3-.2c-.8-.1-1.4-.3-2-.4l.8-1.9c0,.5,0,1.1,0,1.6,0,1,.3,1.6,1,2s1.7.6,2.9.6,2.2-.1,3.1-.4c.8-.3,1.6-.5,2.2-.8.6-.3,1.2-.4,1.8-.4s.8,0,1.2.3c.4.2.8.5,1.1.9.3.4.4,1,.4,1.7s-.4,1.8-1.1,2.6c-.7.8-1.8,1.4-3.2,1.8-1.4.4-3.2.7-5.3.7ZM830.8-24.4c1.1,0,2-.3,2.8-.8.8-.5,1.2-1.2,1.2-1.9s-.2-.9-.5-1.2c-.4-.3-.8-.5-1.5-.5s-1.3.1-1.9.4c-.6.3-1.1.6-1.5,1-.4.4-.6.9-.6,1.4s.2.9.5,1.1c.4.3.9.4,1.5.4Z"/>
      <path class="cls-4" d="M853.1-33.8c2.4,0,4.1.4,5.2,1.2,1,.8,1.6,1.9,1.6,3.2s-.3,1.5-.8,2-1.3.8-2.3.8-1.5-.1-2.3-.3c-.8-.2-1.7-.3-2.8-.3s-.9,0-1.1.3c-.3.2-.4.4-.4.7s.1.5.4.7c.3.2.9.3,1.8.4,1.7.1,3.1.4,4.3.8,1.2.4,2,1,2.6,1.8.6.8.9,2,.9,3.4,0,2.1-.8,3.7-2.4,4.7-1.6,1-3.8,1.5-6.7,1.5s-3.5-.2-4.7-.6c-1.2-.4-2.1-.9-2.6-1.6s-.8-1.5-.8-2.4.3-1.6.9-2.1c.6-.5,1.3-.7,2.1-.7s1.1,0,1.6.2c.6.1,1.2.3,1.8.4.6.2,1.3.2,2,.2s1.3-.3,1.3-.8,0-.3-.1-.5c0-.1-.3-.3-.6-.4-.3-.1-.8-.2-1.5-.3-1.5-.2-2.8-.4-3.8-.8-1.1-.4-1.9-.9-2.5-1.6-.6-.7-.9-1.8-.9-3,0-2.1.9-3.8,2.6-5s4.2-1.9,7.3-1.9Z"/>
    </g>
    <path class="cls-8" d="M-155.9,679.8c-1.3,0-2.7,0-4,0-2.1.9-1.4,2.9-1.6,4.5-.1.2-.3.3-.4.5-.6-.8-3-.1-1.6-2.5,1.2-2.2,1.2-5.3,4.7-5.4,3.3,0,6.6,0,9.9,0-1.9,2.1-5,1.2-7,2.9Z"/>
    <path class="cls-8" d="M-160.9,684.9c1.8,1.2,3.9,1,6,1-1.5,2.5-3.2,2.3-7-1,0,0,0,0,0,0,.3-.5.7-.5,1,0Z"/>
    <path class="cls-5" d="M-160.9,684.9c-.3,0-.7,0-1,0,.4-1.8-1.2-4.4,2-5-1,1.5-1.2,3.2-1,5Z"/>
    <g>
      <circle class="cls-9" cx="775.5" cy="-152" r="1.6"/>
      <circle class="cls-9" cx="770.4" cy="-153.8" r=".6"/>
      <circle class="cls-9" cx="776" cy="-156.2" r="1"/>
      <circle class="cls-9" cx="786.3" cy="-81.1" r="1.4"/>
      <circle class="cls-9" cx="789.3" cy="-80.7" r=".7"/>
      <circle class="cls-9" cx="791.7" cy="-83.4" r=".5"/>
      <circle class="cls-9" cx="788.5" cy="-83.3" r=".7"/>
      <polygon class="cls-9" points="813.6 -122.4 814.6 -115.8 816.9 -117 815.7 -122.7 813.6 -122.4"/>
      <g>
        <g>
          <path class="cls-4" d="M756.7-180.4l-.3-1.2v-1.7c-.1,0-.6-2-.6-2v-.5c0,0,.7.2.7.2l2.9,1.7,1.6.6h2.1c0,.1,1.6-.2,1.6-.2l1.2-.4,1.1-.5.8-.5.7-.4.5-.3.2,1v.8c.1,0,.2.5.2.5v.6s-7.5,0-12.6,2.1Z"/>
          <path class="cls-4" d="M756.7-180.3l-.3-1.3v-1.7c-.1,0-.6-2-.6-2v-.6c0,0,.8.3.8.3l2.9,1.7,1.6.6h2c0,.1,1.6-.2,1.6-.2l1.2-.4,1.1-.5.8-.4.7-.4.7-.3.4,2.5v.7s-.1,0-.1,0c0,0-7.5.1-12.6,2h0ZM755.9-185.3l.5,2v1.7c.1,0,.4,1.1.4,1.1,4.7-1.8,11.6-2,12.4-2v-.5s0-.5,0-.5l-.3-1.7-.4.2-.7.4-.8.5-1.2.5-1.3.4-1.6.4h-2.1c0-.1-1.6-.7-1.6-.7l-2.9-1.7-.5-.2v.3Z"/>
        </g>
        <g>
          <path class="cls-4" d="M757.3-188.7l.4.6.2.3.7,1,.7.6.6.6,1.5.8s2.8.6,2.9-1.5-.7-1.8-.7-1.8h-1.7s-1.4.4-1.4.4h-.9s-1.3-.6-1.3-.6l-.9-.4Z"/>
          <path class="cls-4" d="M762.2-184.7c-.4,0-.8,0-.8,0h0s-1.5-.8-1.5-.8l-.6-.6-.7-.6-1.4-2.1,1.2.6,1.3.5h.9s1.4-.4,1.4-.4h1.7c0,0,.2,0,.4,0,.3.2.4.8.4,1.8,0,.5-.2,1-.6,1.3-.5.3-1.1.4-1.6.4ZM761.4-184.9c.1,0,1.5.3,2.2-.3.3-.3.5-.6.5-1.1,0-1.2-.2-1.5-.3-1.6-.1,0-.2,0-.2,0h0s-1.7,0-1.7,0l-1.4.5h-1s-1.3-.6-1.3-.6l-.7-.3.4.6.7,1,.7.6.6.6,1.5.8Z"/>
        </g>
        <path class="cls-4" d="M758.3-164.7c.1,0,.3-.2.4-.2s.2-.1.3-.2,0,0,.1,0c-.1,0-.3.2-.4.2s-.2.1-.3.2,0,0-.1,0h0Z"/>
        <path class="cls-4" d="M759.7-165c.1,0,.3-.2.4-.2s.2-.1.3-.2,0,0,.1,0c-.1,0-.3.2-.4.2s-.2.1-.3.2,0,0-.1,0h0Z"/>
        <path class="cls-4" d="M760.5-165.3c.1,0,.3-.2.4-.2s.2-.1.3-.2,0,0,.1,0c-.1,0-.3.2-.4.2s-.2.1-.3.2,0,0-.1,0h0Z"/>
        <path class="cls-4" d="M758.7-164.8l1.3-.5,1.1-.4,1.3-.3,2-.4,2.8-.7,3.1-.5h1.6c0,0,1.2-.3,1.2-.3,0,0,.9,8,6.7,11.3s3.9,7.5,5.2,8.3-3.8.9-3.8.9l-2.4.4-2,.3-2,.2-2.6.5-3.8.7-2.2.2-2.6.6-2,.4-2.4.6-2.4.6-.8.3v1.6s.3,1.9.3,1.9v2.5s.2,2.1.2,2.1l.4,2.3.2,1.7v1.6c0,0,.5,1.9.5,1.9l.4,1.7.2,1.8.5,1.9v2.1c.1,0,.4,1.9.4,1.9l.4,1.8.4,1.7v1.8s.5,1.7.5,1.7l.4,2.1v2.2c.1,0,.5,1.5.5,1.5l.4,1.7v1.5c0,0,.4,2.1.4,2.1l.3,1.2v1.6c0,0,.2,1.3.2,1.3l.6.9,1.5.2,3.3.2,3.7.4,5-.3,5.6-.8,3.9-.6,4.2-.9,2.1-.5v1.5c0,0,.3,2,.3,2l.8,2.8.2,2-.9,1.3-2.2,1-4.2,1.4-10.1,2.5-3,.6h-3.6s-3.1-.3-3.1-.3l-2.3-.6-1.5-.6-.9-1.1-3.4-24.3-1.4-10.2-1-5.9-.8-5.3-.8-4.9-.6-3.6-.7-2.2-.2-3.4v-1.7c0,0,0-2.6,0-2.6l.4-1.9,1.4-2.1,1.8-1.5,1.1-.7,2-.5,1.1-.6-.5-3.1-.7-2.1"/>
        <polygon class="cls-4" points="764.1 -138.1 765 -138.7 765.9 -138.8 766.8 -138.4 768 -137.1 769 -135.2 769.5 -134.2 769.8 -133.3 770.3 -132.1 770.7 -130.9 771 -129.7 771.1 -128.7 771.4 -127.7 771.6 -126.1 771.7 -124.2 771.9 -121.3 771.7 -118.5 771.5 -116.2 771.2 -114.6 770.9 -113.1 770.2 -111.6 769.4 -110.6 768.5 -110.4 767.9 -110.5 767.3 -110.8 766.7 -111.3 765.8 -112.9 765.6 -114.1 765.5 -115.3 765.7 -116.5 765.7 -117.5 765.8 -118.3 766 -119.2 765.8 -120.2 766 -121.5 765.9 -122.8 765.8 -123.9 765.6 -125.4 765.4 -126.6 765 -127.6 764.5 -129.5 764 -131 763.4 -132.2 763 -133.6 762.6 -135.1 762.9 -136.5 763.2 -137.4 764.1 -138.1"/>
        <path class="cls-4" d="M747.9-120c.1,0,.3-.2.4-.2s.2-.1.3-.2,0,0,.1,0c-.1,0-.3.2-.4.2s-.2.1-.3.2,0,0-.1,0h0Z"/>
        <path class="cls-4" d="M775.9-139.8c.1,0,.3-.2.4-.2s.2-.1.3-.2,0,0,.1,0c-.1,0-.3.2-.4.2s-.2.1-.3.2,0,0-.1,0h0Z"/>
        <polyline class="cls-4" points="776.7 -140.3 776 -140 775.5 -139.2 775.2 -138.5 775.1 -137.4 775.1 -136.6 775.3 -135.6 775.5 -134.4 775.9 -133.3 776.3 -132.3 776.8 -130.9 777 -129.9 777.5 -128.2 777.6 -126.4 777.8 -125.3 777.9 -124.3 778 -123.2 778.1 -122 778 -121.1 778 -120.3 777.8 -119.2 777.7 -118.4 777.5 -117.7 777.4 -117.2 777.4 -117.2 778.6 -117.6 779.4 -117.9 780.1 -117.9 780.7 -117.5 781.1 -116.8 781 -115.9 780.5 -115 780 -114.3 779.3 -113.8 779.6 -113.1 780.4 -112.6 781.2 -112.5 782 -112.9 782.5 -113.3 783.1 -113.9 783.5 -114.6 783.7 -115.3 783.8 -116.2 783.7 -117.5 783.9 -118.8 783.7 -121.2 783.6 -124.4 783.8 -126 783.5 -127.9 783.2 -129.8 782.7 -131.7 782.3 -133.3 781.8 -134.8 781.1 -136.6 780.6 -137.7 779.8 -139 778.9 -139.9 778.1 -140.4 777.2 -140.4"/>
        <path class="cls-4" d="M751.5-198.5c-.4.6-.7,1.2-.8,1.9s0,.7,0,1,0,.7.2,1c.4.6,1.3.6,2,.6s1.6,0,2.5,0c1.7-.2,3.3-.6,5-.9s3.4-.7,5.1-1,1.7-.3,2.5-.5,1.4-.2,2-.5.7-.9.4-1.4-.4-.7-.6-1.1-.3-.7-.5-1c-.4-.6-.8-1-1.6-1.1s-1.6,0-2.3,0c-1.6.2-3.2.5-4.8.8s-3.1.7-4.7.8-3.1,0-4.2,1.1-.4.4-.6.7.3.6.4.4c.6-1.2,2.1-1.5,3.4-1.6s2.9-.3,4.4-.6,2.9-.6,4.3-.9,1.5-.2,2.2-.3,1.5-.1,2.2,0,1,.7,1.3,1.3.4.7.6,1,.4.6.3.9c-.2.5-.9.6-1.3.7-.8.2-1.6.3-2.3.5-3.1.6-6.2,1.2-9.3,1.8s-3.1.5-4.6.4-.7,0-1-.2-.3-.4-.4-.8c0-.7.1-1.3.4-1.9s.3-.6.5-.8-.2-.6-.4-.4h0Z"/>
        <path class="cls-4" d="M752.4-194c.4.1.2-.7-.2-.5s-.2.4-.2.5c0,.3-.1.6-.2.9-.1.9,0,1.9.9,2.4s.9.3,1.4.3,1.1-.1,1.6-.2c1.1-.1,2.2-.3,3.3-.4s2.5-.5,3.7-.8,0-.5-.3-.5c-1.7.5-3.4.8-5.2,1.1s-1.8.2-2.7.3-1.7.3-2.1-.5-.3-.8-.3-1.2,0-.5.1-.8.2-.7.2-.7l-.3-.2h0s0,0,0-.2h0s0,0,.1,0h0c-.1,0-.2,0-.2.1s.1.3.2.3h0Z"/>
        <path class="cls-4" d="M769.7-196.8c0,0,0,0,0,0s0,.1,0,.2c0,.1,0,.2.1.3,0,.2.1.4.2.6,0,.4,0,.8,0,1.2s-.4.6-.7.8-.7.3-1.1.4,0,.6.3.5c.4-.2.9-.3,1.3-.5s.6-.7.7-1.1,0-1,0-1.5-.1-.5-.2-.8-.2-.4-.4-.5-.2,0-.2.2.1.3.2.3h0Z"/>
        <path class="cls-4" d="M753.3-189.9c.5,4.4,1,8.8,1.5,13.2s.9,8.8,1.3,13.2c.2,2.2.5,4.6-.4,6.7s.3.6.4.4c.8-1.8.7-3.9.5-5.8s-.4-4.4-.6-6.6c-.4-4.4-.9-8.9-1.4-13.3s-.6-5-.9-7.5-.1-.3-.2-.3-.2,0-.2.2h0Z"/>
        <path class="cls-4" d="M756.1-157.5c-1.2,1.9-3,3.2-4.4,5s-1.2,1.9-1.5,3-.3,2.5-.2,3.8.3,2.7.4,4.1.3,2.8.5,4.2c.4,2.8.8,5.6,1.3,8.4s1.2,6.3,1.8,9.4.5.4.4,0c-1.2-5.5-2.2-11.1-3-16.7s-.7-5.6-1-8.3-.2-2.6,0-3.9.6-2.3,1.2-3.2c1.4-2,3.5-3.4,4.8-5.5s-.3-.6-.4-.4h0Z"/>
        <path class="cls-4" d="M769.3-192.2c.8,4.7,1.7,9.4,2.5,14.1s1.6,8.8,3.1,13,.8,2.2,1.3,3.2,1.1,1.8,2,2.3.3-.3,0-.4c-.8-.4-1.3-1.2-1.7-2s-.8-1.9-1.2-2.8c-.7-2-1.3-4.1-1.8-6.2-1-4.4-1.7-8.8-2.5-13.2-.5-2.6-.9-5.2-1.4-7.7s-.1-.3-.2-.3-.2,0-.2.2h0Z"/>
        <path class="cls-4" d="M779.2-158.8c1.3.7,2.7,1.3,3.8,2.3s1,1,1.4,1.7.6,1.5.9,2.2c.5,1.7.8,3.5,1.1,5.2s.6,3.5.8,5.3.5,4,.7,6.1.5.5.4.1c-.3-3.7-.8-7.4-1.4-11.1s-.7-3.6-1.1-5.3-1-3-2.2-4.2-2.7-2-4.3-2.7-.3.3,0,.4h0Z"/>
        <path class="cls-4" d="M789.9-123.1c.7,4.7,1.4,9.3,2.1,14s1.5,9.3,2.2,13.9c.4,2.6.9,5.2,1.3,7.8s.1.3.2.3.2,0,.2-.2c-.8-4.7-1.6-9.3-2.3-14s-1.5-9.3-2.2-13.9-.8-5.2-1.2-7.8-.1-.3-.2-.3-.2,0-.2.2h0Z"/>
        <path class="cls-4" d="M795.4-88c-.3.9-1,1.6-1.8,2.2s-1.9,1-2.9,1.4c-2.2.9-4.5,1.5-6.8,2-4.7,1-9.5,1.4-14.3,1.8s-5,.3-7.1-1.1-.2,0-.3,0,0,.3.2.3c1.9,1.2,4.2,1.3,6.4,1.2s4.8-.4,7.2-.6c4.9-.5,9.7-1.3,14.3-3s2.3-.9,3.4-1.6,1.8-1.4,2.1-2.4-.3-.5-.4-.3h0Z"/>
        <path class="cls-4" d="M755.9-142.4c3.8-1,7.6-1.8,11.5-2.6s7.7-1.4,11.6-2,4.4-.6,6.6-.8,0-.5-.3-.5c-3.9.4-7.8,1-11.7,1.6s-7.7,1.4-11.5,2.3-4.3,1-6.5,1.5,0,.5.3.5h0Z"/>
        <path class="cls-4" d="M755.4-142.5c.2,3.1.5,6.2.9,9.2s.9,6.2,1.4,9.2,1.1,6.1,1.6,9.1,1.1,6.1,1.6,9.2.9,6.1,1.3,9.2,0,.8.1,1.2.1.3.2.3.2,0,.2-.2c-.3-3.1-.7-6.1-1.2-9.2s-1-6.1-1.6-9.2-1.1-6.1-1.6-9.1-1-6.1-1.4-9.2-.8-6.1-1-9.2,0-.8,0-1.2-.5-.5-.4-.1h0Z"/>
        <path class="cls-4" d="M763.1-94.7c4,.9,8,1.2,12.1.9s8-1,12-1.9,4.5-.9,6.8-1.4,0-.5-.3-.5c-4,.8-7.9,1.7-11.9,2.4s-8,1.1-12,.9-4.5-.4-6.8-.9-.2.4,0,.5h0Z"/>
        <path class="cls-4" d="M774.8-116c.5.1,1.1.1,1.6,0s.9-.4,1.4-.7.8-.6,1.3-.8.9-.2,1.3,0,.5.8.4,1.2-.3,1-.6,1.5c-.6.9-1.7,1.1-2.5,1.5s-2.2,1.4-1.6,2.4.2.2.3.2.1-.2,0-.3c-.3-.4.4-1,.7-1.3s.9-.6,1.3-.8,1-.4,1.4-.6.7-.7,1-1.1c.5-.9.8-2,0-2.8s-1.8-.5-2.5,0-1,.8-1.6,1-1.3.3-1.9.2-.2.4,0,.5h0Z"/>
        <path class="cls-4" d="M764.6-96c3.5.9,7.1,1.2,10.7,1s7.2-1,10.7-2,3.9-1.3,5.8-2.1,0-.6-.3-.5c-3.4,1.3-6.8,2.5-10.4,3.2s-7.1,1.1-10.7.9-4-.4-6-1-.2.4,0,.5h0Z"/>
        <path class="cls-4" d="M774.9-100.1c2.6.4,5.3-.1,7.6-1.3s-.1-.5-.3-.4c-2.3,1.2-4.9,1.6-7.4,1.3s-.2.1-.1.2.2.2.3.3h0Z"/>
        <path class="cls-4" d="M757.5-140.7c3.5-1.1,7-2,10.5-2.7s7.1-1.4,10.7-1.9,4.1-.5,6.1-.7,0-.5-.2-.5c-3.6.3-7.2.8-10.8,1.4s-7.2,1.4-10.7,2.3-4,1.1-5.9,1.7,0,.5.3.5h0Z"/>
        <path class="cls-4" d="M762.8-140.1c-1.7,2.2-2.2,5.3-1.3,8s.1.3.3.3.2-.1.1-.2c-.9-2.6-.4-5.5,1.3-7.7s-.2-.6-.4-.4h0Z"/>
        <path class="cls-4" d="M763.6-132.3c-.7-1.9-1.2-4.3.5-5.8s1.6-.8,2.4-.3,1.2,1.3,1.6,2c1.9,3.8,3,8,3.3,12.2s.1,4.3,0,6.4-.3,2.1-.5,3.1-.4,1.8-.8,2.6-1,1.4-1.8,1.3-1.8-.9-2.2-1.7c-1-2-.4-4.4-.2-6.5.4-4.3-.3-8.6-2-12.6s-.4-1-.7-1.5-.5-.2-.4,0c2.1,4.1,3,8.7,2.7,13.3s-.8,4.6.1,6.8,1,1.8,1.9,2.3,1.8.3,2.4-.4.9-1.5,1.1-2.3.5-2.2.6-3.3c.3-2.2.4-4.5.3-6.7-.2-4.5-1.3-8.9-3.2-12.9s-.8-1.8-1.6-2.4-1.6-.9-2.5-.7-1.6,1-1.9,1.8-.4,2.2-.1,3.2.3,1.1.5,1.7.1.3.3.3.2-.1.1-.2h0Z"/>
        <path class="cls-4" d="M776.7-131.7c-.6-1.4-1.1-2.8-1.4-4.3s-.1-2.8,1-3.7,1-.6,1.6-.5,1.1.5,1.4.9.7,1,1,1.6.6,1.3.9,2c1.1,2.7,1.9,5.6,2.2,8.5s.2,3.2.2,4.7,0,3.2,0,4.8,0,2.9-.9,4-1.9,1.3-2.9.6-.4-.3-.4-.6-.1-.3-.3-.3-.2.1-.1.2c.4,1.1,1.7,1.6,2.8,1.3s2-1.8,2.2-3.1.1-1.6.1-2.4,0-1.8,0-2.6c0-1.7,0-3.4-.1-5.2-.2-3.2-.8-6.4-2-9.4s-.6-1.4-1-2.2-.7-1.3-1.1-1.9c-.7-1-1.8-1.9-3.1-1.5s-2,1.9-2,3.2.2,1.6.3,2.3.4,1.6.7,2.3.3.7.5,1.1.5.2.4,0h0Z"/>
        <path class="cls-4" d="M776.2-131.7c.7,1.7,1,3.6,1.3,5.5s.5,3.9.3,5.8-.3,2.1-.6,3.2.3.5.4.3c.6-1.9.8-3.9.6-5.8s-.3-3.9-.7-5.8-.5-2.1-.9-3.1-.1-.3-.3-.3-.2.1-.1.2h0Z"/>
        <path class="cls-4" d="M777.4-139.4c1.2,1.9,2.1,4.1,2.6,6.3s.5.4.4,0c-.5-2.3-1.4-4.5-2.7-6.5s-.2-.2-.3-.2-.1.2,0,.3h0Z"/>
        <path class="cls-4" d="M777.8-139.5c.3,0,.6.2.8.4s.4.4.6.6c.4.5.6,1,.9,1.5.6,1.2.9,2.4,1.4,3.6s.1.3.3.3.2-.1.1-.2c-.6-1.4-.9-2.8-1.6-4.1s-.7-1.1-1.1-1.6-1-1-1.6-.9,0,.5.3.5h0Z"/>
        <path class="cls-4" d="M779.9-133.6c1.6,5.2,2.2,10.7,1.8,16.1s-.3,3-.6,4.5.2.5.4.3c.3-.3.6-.6.9-1s-.2-.6-.3-.4c-.3.3-.6.6-.9,1l.4.3c1-5.4.9-11-.1-16.4s-.7-3-1.1-4.5-.2-.3-.3-.3-.2.1-.1.2h0Z"/>
        <path class="cls-4" d="M781.7-133c1.4,4.9,1.8,10.2,1.2,15.3s-.4,2.8-.8,4.2.4.5.4.3c1.2-5.1,1.4-10.4.5-15.5s-.6-2.9-1-4.3-.5-.4-.4,0h0Z"/>
        <path class="cls-4" d="M765.3-137.5c2.6,2.1,3.6,5.6,4.5,8.7s.9,3.9,1,6-.1,4.1-.4,6.2-.3,3.8-1.7,5.1.2.6.3.4c1.2-1.1,1.5-2.8,1.7-4.4s.5-4.2.5-6.3-.4-4.1-.9-6.2-.9-3.5-1.6-5.2-1.7-3.4-3.2-4.6-.4.1-.2.3h0Z"/>
        <path class="cls-4" d="M764.8-137.4c.2.9.7,1.7,1.2,2.5s.9,1.5,1.2,2.3c.7,1.6,1.3,3.2,1.7,4.9.8,3.4,1,7,.6,10.5s-.7,3.9-1.4,5.7,0,.3.2.4c.3.2.6.2.9,0s-.1-.6-.3-.4-.3.1-.5,0l.2.4c1.2-3.3,1.8-6.9,1.7-10.5s-.9-7.1-2.3-10.3-.8-1.8-1.3-2.7-1.2-1.8-1.4-2.8-.5-.4-.4,0h0Z"/>
        <path class="cls-4" d="M773.9-134.4c-.6-1.4-.5-3-.2-4.4s.3-1.4.8-2,1.1-.9,1.8-.8.2-.4,0-.5c-1.2-.3-2.2.7-2.6,1.8s-.6,2.6-.6,3.8.2,1.4.5,2.1.5.2.4,0h0Z"/>
        <path class="cls-4" d="M770-108c.6-.9,1.7-1.2,2.7-1.2s2.6.6,4,.7,1.4-.1,2-.4,1.1-.7,1.7-1c1-.6,2.6-1.1,3.4.2s0,2.6-.6,3.6-1.4,1.8-2.4,2.4c-1.9,1.3-4.3,1.8-6.5,1.2s-2.3-.9-3.1-1.9-1.2-2.3-1-3.6.1-.6.2-.9-.3-.5-.4-.3c-.4,1.3-.3,2.7.3,4s1.6,2.1,2.8,2.7c2.3,1.1,5,.9,7.2-.3s2-1.4,2.8-2.3,1.6-2.4,1.4-3.8-.4-1.2-.9-1.6-1.1-.6-1.8-.5c-1.5.1-2.5,1.3-3.8,1.8s-3.1-.2-4.6-.4-2.3-.1-3.2.6-.4.4-.5.6.3.6.4.4h0Z"/>
        <path class="cls-4" d="M772.9-109.2c-.7,1.7-1.2,3.5-1.5,5.3s.4.5.4.3c.3-1.8.8-3.5,1.5-5.2s-.3-.6-.4-.4h0Z"/>
        <path class="cls-4" d="M775.6-108.5c-.2,2.1-.5,4.3-.7,6.4s0,.3.2.3.2,0,.3,0l.7-6.4c0-.1,0-.3-.2-.3s-.2,0-.3,0h0Z"/>
        <path class="cls-4" d="M777.8-108.6l1,5.9c0,.1.1.3.2.3s.2,0,.2-.2l-1-5.9c0-.1-.1-.3-.2-.3s-.2,0-.2.2h0Z"/>
        <path class="cls-4" d="M780.3-109.5c.8,1.7,1.4,3.5,1.9,5.3s.5.4.4,0c-.5-1.8-1.1-3.7-1.9-5.4s-.5-.2-.4,0h0Z"/>
        <path class="cls-4" d="M755.6-179.5c3.6-1.3,7.4-2.1,11.2-2.5s2.2-.2,3.3-.2,0-.5-.2-.5c-3.9.2-7.7.7-11.4,1.8s-2.1.6-3.1,1,0,.5.3.5h0Z"/>
        <path class="cls-4" d="M757.6-164.4c4.2-1.4,8.5-2.4,12.8-2.9s2.5-.3,3.8-.3,0-.5-.2-.5c-4.4.3-8.8,1-13.1,2.2s-2.4.7-3.6,1.1,0,.5.3.5h0Z"/>
        <path class="cls-4" d="M752.7-195.3c0-.5,0-.9.1-1.4s.2-.4.3-.6.2-.4.4-.5.2,0,.3.2c0,.2.2.4.2.7.2.5.3,1,.3,1.5s.1.3.2.3.2,0,.2-.2c0-.5-.2-1-.3-1.4s-.1-.5-.2-.7-.2-.4-.3-.6-.3-.3-.5-.3-.4,0-.5.2c-.3.3-.4.8-.6,1.2s-.2,1-.1,1.5.1.3.2.3.2,0,.2-.2h0Z"/>
        <path class="cls-4" d="M756-195.9c0-.7,0-1.5.5-2.1s.7-.5,1-.3.5.6.6.9c.2.5.3,1,.4,1.6s.1.3.2.3.2,0,.2-.2c0-.6-.2-1.1-.4-1.7s-.4-1-.8-1.3-.9-.3-1.3,0-.6.6-.7,1.1-.2,1-.1,1.5.1.3.2.3.2,0,.2-.2h0Z"/>
        <path class="cls-4" d="M759.8-196.7c-.1-.6-.2-1.4.4-1.9s.5-.2.7,0,.3.5.4.8c.1.5.3.9.4,1.4s.1.2.3.3.2-.1.1-.2c-.1-.5-.3-.9-.4-1.4s-.2-.8-.6-1.1-.7-.3-1-.1-.6.4-.7.8,0,1,0,1.5.1.3.2.3.2,0,.2-.2h0Z"/>
        <path class="cls-4" d="M763.2-197.2c0-.4,0-.8,0-1.2s.1-.3.2-.5.3-.3.4-.2.1.1.2.2.1.2.2.3c.1.2.2.4.3.6.2.4.3.9.3,1.3s.1.3.2.3.2,0,.2-.2c0-.9-.4-1.7-.8-2.4s-.5-.8-1-.6-.5.6-.6.9,0,.9,0,1.3.1.3.2.3.2,0,.2-.2h0Z"/>
        <path class="cls-4" d="M766.2-197.8c0-.6,0-1.5.7-1.8s.3,0,.4,0,.2,0,.3.2c.2.2.2.5.3.8,0,.4.2.8.4,1.2s.2.2.3.1,0-.2,0-.3c-.2-.3-.2-.7-.3-1.1s-.2-.7-.5-1-.7-.4-1-.3-.6.4-.8.7-.2,1-.2,1.5.1.3.2.3.2,0,.2-.2h0Z"/>
        <path class="cls-4" d="M754.9-117.7c.7,5,1.5,10.1,2.3,15.1s1.7,10,2.7,15,.7,4.8,2.5,6.2.4-.1.2-.3c-1.6-1.3-1.8-3.6-2.1-5.4s-.9-4.9-1.4-7.4c-.9-4.9-1.7-9.8-2.4-14.7-.4-2.8-.8-5.6-1.2-8.3s-.1-.3-.2-.3-.2,0-.2.2h0Z"/>
        <path class="cls-4" d="M762.3-90.7c0,0,0-.2,0-.3h-.4c0,0,0,.3.1.5s0,.4,0,.6c0,.4,0,.9,0,1.3s0,.8.2,1.2.2.8.3,1.3c.2.7.3,1.5.9,1.9s.6.2.9.4.6.4,1,.5.8.1,1.1.2.3.1.5.1.4,0,.6,0c.4,0,.8.2,1.2.3s.8,0,1.2,0,.8-.2,1.2-.3.8-.2,1.2-.1c.8,0,1.7.1,2.5,0s.9-.2,1.3-.4.4-.2.6-.2.5,0,.7-.1.4-.1.6-.1.4,0,.6-.1.4-.2.6-.2.4,0,.5-.2-.2-.6-.3-.4-.3.1-.4.1-.3.1-.5.2-.3.1-.6.1-.4,0-.6,0c-.4.1-.8,0-1.1.2s-.7.3-1,.4c-.8.2-1.5.3-2.3.2s-.8,0-1.2,0-.7.1-1,.3-.8.2-1.2.2-.7,0-1.1-.2-.4-.1-.6-.2-.4,0-.6,0c-.4,0-.7-.2-1-.2s-.7,0-1.1-.2-.6-.4-.9-.5-.6-.2-.8-.5-.2-.6-.3-.9c-.1-.5-.2-.9-.4-1.4s-.2-.9-.2-1.3,0-.9,0-1.4,0-.9-.2-1.2-.4-.3-.4,0,0,.4.1.6.2.2.3.2.1-.2,0-.3h0Z"/>
        <path class="cls-4" d="M762.1-91.4c.4,1.3.8,2.6,1.2,3.9s.4.9.8,1.1.9,0,1.3-.4.3-.3.6-.3.2,0,.3,0,0,0,0,0,0,.2,0,.3c-.2.4-.3.9-.1,1.3s.4.7.8.8.6,0,.8-.3.5-.5.7-.8.5-.5.8-.5.7.4,1,.6.7.5,1.1.5c.8,0,1.3-.9,1.9-1.3s1.5.2,2.1.7.7.6,1.2.6.6,0,.8-.1.6-.2,1,0c.6.2,1,.5,1.6.6s1,0,1.3-.5-.3-.6-.4-.4c-.2.4-.7.4-1.2.3s-.9-.5-1.5-.6-.5,0-.8,0-.5.2-.8.2c-.4,0-.8-.2-1.1-.4-.6-.4-1.2-1.1-2-1.1s-1.3.9-1.9,1.3-.7.3-1,0-.6-.6-.9-.8-.7-.3-1-.2-.6.4-.8.6-.4.5-.7.7-.6.3-.8,0-.1-.8,0-1.1.2-.5,0-.7-.2-.4-.4-.4c-.5-.2-.9,0-1.2.4s-.4.4-.7.3-.3-.3-.4-.5c-.1-.3-.2-.6-.3-.9l-.3-1.1-.7-2.2c0-.1-.2-.3-.3-.3s-.2.1-.1.2h0Z"/>
        <path class="cls-4" d="M764.8-90.3c-.4,0-.5.5-.5.8s.3.8.7.9.9-.2,1-.6,0-.9-.3-1.2-.9-.4-1.3-.2,0,.3,0,.3.2.2.3.1,0,0,0,0c0,0,0,0,0,0,0,0,0,0,.1,0s0,0,0,0,0,0,0,0,0,0,0,0c0,0,0,0,0,0,0,0,0,0,.1,0s0,0,0,0c0,0,0,0,0,0,0,0,0,0,0,0,0,0,0,0,0,0,0,0,0,0,0,0s0,0,0,0,0,0,0,0,0,0,0,0,0,0,0,0,0,0,0,0c0,0,0,0,0,0s0,0,0,0c0,0,0,0,0,0s0,0,0,0c0,0,0,0,0,0,0,0,0,0,0,0s0,0,0,0c0,0,0,0,0,0,0,0,0,0,0,0,0,0,0,0,0,0,0,0,0,0,0,0s0,0,0,0,0,0,0,0c0,0,0,0,0,0,0,0,0,0,0,.1s0,0,0,0c0,0,0,0,0,0,0,0,0,0,0,.1,0,0,0,0-.1.2s0,0-.1,0,0,0,0,0,0,0,0,0c0,0,0,0,0,0,0,0,0,0-.1,0s0,0,0,0,0,0,0,0c0,0,0,0,0,0s0,0-.1,0,0,0,0,0c0,0,0,0,0,0,0,0,0,0,0,0,0,0,0,0,0,0s0,0,0,0c0,0,0,0,0,0s0,0,0,0,0,0,0,0c0,0,0,0,0,0s0,0,0,0,0,0,0,0,0,0,0,0,0,0,0,0c0,0,0,0,0,0,0,0,0,0,0,0,0,0,0,0,0-.1s0,0,0,0,0,0,0,0c0,0,0,0,0-.1s0,0,0,0,0,0,0,0c0,0,0,0,0,0s0,0,0,0,0,0,0,0c0,0,0,0,0,0s0,0,0,0c0,0,0,0,0,0,0,0,0,0,0,0,.2,0,0-.5-.3-.5h0Z"/>
        <path class="cls-4" d="M768.1-88s0,0,0,0c0,0,0,0,0,0s0,0,0,0c0,0,0,0,0,0,0,0,0,0,0,0,0,0,0,0,0,0s0,0,0,0c0,0,0,0,0,0,0,0,0,0,0,0,0,0,0,0,0,0s0,0,0,0,0,0,0,0c0,0,0,0,0,0s0,0,0,0,0,0,0,0,0,0,0,0,0,0,0,0c0,0,0,0,0,0s0,0,0,0,0,0,0,0c0,0,0,0,0,0s0,0,0,0c0,0,0,0,0,0s0,0,0,0,0,0,0,0c0,0,0,0,0,0,0,0,0,0,0,.1h0c0,0-.1,0-.2.1h0c0,0-.1,0-.2,0s0,0,0,0c0,0,0,0,0,0,0,0,0,0,0,0,0,0,0,0,0,0s0,0,0,0,0,0,0,0c0,0,0,0,0,0s0,0,0,0c0,0,0,0,0,0,0,0,0,0,0,0s0,0,0,0c0,0,0,0,0,0s0,0,0,0c0,0,0,0,0,0,0,0,0,0,0,0s0,0,0,0,0,0,0,0c0,0,0,0,0,0s0,0,0,0,0,0,0,0c0,0,0,0,0,0s0-.1,0-.2h0s0,0,.2,0h0s0,0,0,0c0,0,0,0,0-.1s0-.1,0-.2,0-.1-.1-.2-.1,0-.2,0c-.1,0-.2.1-.3.3s0,.3,0,.4c0,.3.2.7.5.8s.5,0,.7-.1.2-.2.2-.3,0-.3,0-.5c-.2-.4-.5-.7-.9-.6s0,.2,0,.3.2.2.3.2h0Z"/>
        <path class="cls-4" d="M769.7-90.6c-.4.1-.6.6-.6,1s.5.9,1,1,.9-.1,1-.6,0-1-.3-1.4-1-.5-1.5-.2,0,.3,0,.3.2.2.3.1.1,0,.2,0,.2,0,.2,0,0,0,.1,0,0,0,0,0c0,0,0,0,0,0,0,0,0,0,.1,0s0,0,0,0c0,0,0,0,0,0,0,0,0,0,0,0s0,0,0,0c0,0,0,0,0,0s0,0,0,0,0,0,0,0,0,0,0,0,0,0,0,0,0,0,0,0,0,0,0,0c0,0,0,0,0,0s0,0,0,0c0,0,0,0,0,0,0,0,0,0,0,0,0,0,0,0,0,.1s0,0,0,0c0,0,0,0,0,0,0,0,0,0,0,0,0,0,0,0,0,.1s0,0,0,0,0,0,0,0c0,0,0,0,0,.1,0,0,0,.1-.2.2s0,0,0,0c0,0,0,0,0,0,0,0,0,0,0,0,0,0,0,0-.1,0s0,0,0,0c0,0,0,0,0,0,0,0,0,0-.1,0s0,0,0,0,0,0,0,0c0,0,0,0,0,0,0,0,0,0-.1,0s0,0,0,0,0,0,0,0,0,0,0,0c0,0,0,0,0,0s0,0,0,0c0,0,0,0,0,0s0,0,0,0c0,0,0,0,0,0s0,0,0,0,0,0,0,0,0,0,0,0,0,0,0,0,0,0,0,0,0,0,0,0c0,0,0,0,0,0s0,0,0,0c0,0,0,0,0,0s0,0,0,0c0,0,0,0,0-.1s0,0,0,0c0,0,0,0,0,0,0,0,0,0,0,0,0,0,0,0,0-.1s0,0,0,0c0,0,0,0,0,0s0,0,0,0c0,0,0,0,.1,0s0,0,0,0c0,0,0,0,0,0s0,0,0,0c.2,0,0-.5-.3-.5h0Z"/>
        <path class="cls-4" d="M777-87.9c-.2,0-.5,0-.6.2s-.2.4,0,.7c.2.5.8.8,1.3.6s.4-.3.6-.5.3-.5.3-.7c0-.6-.4-1-1-1.1s-1.1.3-1.5.7,0,.2,0,.3.2.2.3.1c.3-.3.6-.6,1-.7s.3,0,.4,0,0,0,0,0,0,0,0,0c0,0,0,0,0,0,0,0,0,0,0,0s0,0,0,0c0,0,0,0,0,0,0,0,0,0,0,0,0,0,0,0,0,.1,0,.1,0,.2-.1.3,0,.2-.2.3-.3.4s-.3.2-.5.2-.1,0-.2,0,0,0,0,0c0,0,0,0,0,0,0,0,0,0,0,0,0,0,0,0,0,0,0,0,0,0,0,0,0,0,0,0,0,0,0,0,0,0,0,0,0,0,0,0,0,0,0,0,0,0,0,0s0,0,0-.1c0-.1.2-.3.3-.2.3,0,.2-.4,0-.5h0Z"/>
        <path class="cls-4" d="M758.4-164.2c.7,1,.7,2.2.9,3.4s.4,1.8.9,2.5,1.3,1.2,2.2,1.3,2.2-.3,3.3,0l-.2-.4c-3.7,2-8.9,1.4-11.5,5.1s-1.5,4.1-1.4,6.2.7,5.2,1.1,7.7c1,5.9,1.9,11.8,2.8,17.7s1.8,11.8,2.7,17.7,1.7,11.8,2.5,17.8.2,1.5.3,2.2.5.5.4.1c-.8-5.9-1.6-11.7-2.5-17.6s-1.7-11.7-2.6-17.6-1.8-11.7-2.8-17.5-1-5.5-1.3-8.3-.5-4.6.4-6.8,2.6-3.4,4.7-4.1,4.2-1,6.2-1.7.9-.4,1.4-.6,0-.4-.2-.4c-1-.3-1.9,0-2.9,0s-2-.3-2.5-1.3c-.9-1.7-.5-3.9-1.6-5.5s-.5,0-.3.2h0Z"/>
        <path class="cls-4" d="M762.6-83.3c3.6,2,7.9,1.9,11.8,1.4s8.6-1.5,12.7-2.9,4.6-1.7,6.8-2.7,0-.6-.3-.5c-3.9,1.8-7.9,3.2-12.1,4.3s-4.2.9-6.3,1.2-4.1.5-6.2.4-4.4-.5-6.4-1.6-.3.3,0,.4h0Z"/>
        <path class="cls-4" d="M792.2-95.8c.6,2.7,1,5.4,1.4,8.1s.1.3.2.3.2,0,.2-.2c-.4-2.8-.9-5.5-1.4-8.3s-.5-.4-.4,0h0Z"/>
        <path class="cls-4" d="M759.7-164.3c-.2.3,0,.7.2,1s.6.3.9,0,.3-.5.2-.8-.4-.6-.8-.6-.3,0-.5.1-.2.2-.3.4,0,.1,0,.2,0,.1.1.2.1,0,.2,0,0,0,0-.1,0,0,0,0,0,0,0,0c0,0,0,0,0,0,0,0,0,0,0,0h0c0,0,.1,0,.2-.1h0s0,0,.1,0,0,0,0,0,0,0,0,0,0,0,0,0,0,0,0,0c0,0,0,0,0,0s0,0,0,0,0,0,0,0,0,0,0,0c0,0,0,0,0,0,0,0,0,0,0,0s0,0,0,0c0,0,0,0,0,0s0,0,0,0,0,0,0,0c0,0,0,0,0,0,0,0,0,0,0,0s0,0,0,0c0,0,0,0,0,0,0,0,0,0,0,0s0,0,0,0,0,0,0,0,0,0,0,0,0,0,0,0c0,0,0,0,0,0,0,0,0,0,0,0s0,0,0,0,0,0,0,0c0,0,0,0,0,0,0,0,0,0,0,0s0,0,0,0c0,0,0,0,0,0s0,0,0,0c0,0,0,0,0,.1h0s0,0-.1,0h0s0,0-.1,0,0,0,0,0,0,0,0,0,0,0,0,0c0,0,0,0,0,0s0,0,0,0,0,0,0,0,0,0,0,0c0,0,0,0,0,0,0,0,0,0,0,0s0,0,0,0c0,0,0,0,0,0s0,0,0,0c0,0,0,0,0,0s0,0,0,0c0,0,0,0,0,0,0,0,0,0,0,0s0,0,0,0c0,0,0,0,0,0s0,0,0,0c0,0,0,0,0,0s0,0,0,0,0,0,0,0c0,0,0,0,0,0s0,0,0,0c0,0,0-.1,0-.2s0-.1-.1-.2c0,0-.2-.1-.3,0h0Z"/>
        <path class="cls-4" d="M758.6-147.7c-.5.2-.3.9,0,1.2s.5.2.8.2.5-.1.7-.3c.4-.4.3-.9,0-1.3s-.8-.6-1.3-.5-.9.7-1,1.3,0,.3.2.3.2,0,.3,0c0-.4.3-.7.6-.9s.3-.2.5-.2.1,0,.2,0c0,0,.1,0,.2.1,0,0,0,0,0,0s0,0,0,0c0,0,0,0,0,0s0,.1,0,0c0,0,0,0,0,0s0,0,0,0c0,0,0,0,0,.1,0,0,0,0,0,0,0,0,0,.1,0,.2-.1.3-.6.5-.9.5s-.2,0-.2,0c0,0,0,0,0,0,0,0,0,0,0,0s0,0,0,0,0,0,0,0c0,0,0,0,0,0,0,0,0,0,0,0,0,0,0,0,0,0,0,0,0,0,.1-.1.1,0,.1-.2,0-.3s-.2-.2-.3-.2h0Z"/>
        <path class="cls-4" d="M761.8-147.6c-.6,0-1,.6-1,1.1s.6,1.1,1.1,1.1.5,0,.7-.2.3-.4.4-.7c0-.6-.2-1.2-.8-1.5s-1.3,0-1.6.6,0,.3.1.3.2.1.3,0c.2-.4.6-.6,1-.5s0,0,0,0c0,0,0,0,0,0s0,0,0,0,0,0,0,0c0,0,0,0,0,0s0,0,0,0c0,0,0,0,0,0,0,0,0,0,0,0,0,0,0,0,0,0,0,0,0,0,0,0s0,0,0,0,0,0,0,0,0,0,0,0,0,0,0,0c0,0,0,0,0,0s0,0,0,0,0,0,0,0c0,0,0,0,0,0,0,0,0,.1,0,.2s0,0,0,.1,0,.1,0,.2,0,.2-.1.2c-.1.1-.3.2-.5.3s-.2,0-.3,0,0,0,0,0,0,0,0,0c0,0,0,0,0,0s0,0,0,0,0,0,0,0c0,0,0,0,0,0s0,0,0,0c0,0,0,0,0,0s0,0,0,0,0,0,0,0,0,0,0,0,0,0,0,0c0,0,0,0,0,0s0,0,0,0c0,0,0,0,0,0s0,0,0,0c0,0,0,0,0,0,0-.1,0-.2,0-.3s0-.2.1-.3c.1-.2.3-.3.5-.3.3,0,0-.5-.2-.5h0Z"/>
        <path class="cls-4" d="M756.7-181c-.4-1.6-.6-3.2-.8-4.8h-.3c.9.6,1.9,1.2,2.8,1.7s1.7.9,2.7,1.1c1.8.4,3.6,0,5.3-.7s1.9-.9,2.7-1.5l-.4-.3c0,1,.1,2.1.4,3.1s.5.4.4,0c-.2-1-.3-2-.3-3s-.2-.4-.4-.3c-1.4,1-3.1,1.9-4.8,2.2s-1.7.2-2.6,0-1.8-.6-2.6-1-2-1.1-3-1.6-.3,0-.3.1c.1,1.7.4,3.3.8,4.9s.5.4.4,0h0Z"/>
        <path class="cls-4" d="M761-185.7c-1.6-.4-3-1.6-3.6-3.1h-.3c.7.7,1.6,1.1,2.6,1.2s.9,0,1.4,0,1-.2,1.5-.3.9,0,1.2.4.3.7.3,1.1c-.1.9-.9,1.4-1.7,1.5s-2.1-.5-2.9-1.2-.2-.1-.3,0,0,.3.1.3c.8.7,1.7,1.4,2.8,1.4s1.9-.4,2.3-1.3.1-1.8-.6-2.3-2-.2-3,0-2.5,0-3.4-.8-.4,0-.3.1c.6,1.8,2.2,3.2,4,3.6s.2-.4,0-.5h0Z"/>
        <g>
          <polyline class="cls-4" points="784 -166.7 783.9 -167.8 783.9 -168.6 783.9 -169.8 784 -171 784.1 -171.8 784.1 -173 784.4 -174.2 784.6 -175.5 784.8 -176.6 785.2 -177.5 785.5 -178.5 785.9 -179.4 786.3 -180.1 786.8 -180.8 787.7 -181.7 788.2 -182.1 788.9 -182.4 789.8 -182.5 790.3 -182.7 791.1 -182.5 791.8 -182.1 792.5 -181.6 793 -181 793.5 -179.9 793.6 -179.3 793.6 -178.5 793.8 -178 793.9 -177.3 794.7 -178.6 795.2 -179.2 795.8 -179.8 796.4 -180.4 797.2 -181 798.3 -181.7 799.1 -182 800.1 -182.4 801.1 -182.5 802.2 -182.5 803.3 -182.3 804.6 -181.7 805.5 -181.2 806.5 -180.4 807.3 -179.5 807.7 -178.8 808.3 -177.9 808.8 -176.6 809.3 -175.1 809.4 -173.9 809.7 -172.3 809.7 -171.1 809.7 -169.7 809.6 -168.2 809.4 -166.8 809.2 -166.2 809.1 -165.9 810.6 -166.5 811.8 -166.8 813.2 -166.9 814.4 -166.7 815.4 -166.5 817 -165.9 817.9 -165 818.8 -164.5 819.5 -163.5 820 -162.6 820.6 -164 820.5 -164.8 820.5 -164.8 822.5 -165.3 823.5 -165.7 824.8 -166.2 825.8 -166.7 826.7 -167.2 827.7 -168.2 827.9 -168.4 826.9 -168.8 825.9 -168.7 827.1 -169.6 828.2 -170 829.4 -170.9 830.2 -171.6 831.2 -172.4 831.8 -173.3 830 -172.8 829.1 -172.7 831.4 -174.2 832.4 -175 834 -176.4 834.8 -178.2 834.9 -178.4 835.1 -179.3 836.3 -180.9 836.8 -181.9 837.3 -183 837.8 -184.2 838.1 -185.5 838.3 -186.7 836.2 -184.9 834.8 -183.8 832.7 -182.6 830.9 -182.4 827.7 -181.7 824.9 -180.9 822 -180.1 820.7 -179.6 819.2 -178.7 818.1 -178.1 818.4 -179.7 817.7 -180.9 816.8 -182.1 815.8 -183.1 814.5 -184.6 813.6 -185.1 812.5 -185.9 811.6 -186 811.1 -184.9 810.8 -183.9 808.9 -182.9 806.9 -182.9 805.5 -183.6 804.5 -184.4 804.5 -186 804.8 -187.1 806.1 -188.8 804.8 -189.6 803 -189.6 801.8 -189.8 800.5 -189.7 800 -188.5 799.8 -187.4 799.4 -186.1 798.6 -185.1 796.9 -184.5 795.2 -184.6 793.8 -185.6 792.7 -186.7 793 -188.1 791.6 -187.5 790.5 -186.6 789.2 -185.4 788 -184.3 786.9 -183.2 785.8 -182 785.1 -180.7 784.1 -179.2 783.5 -177.4 783 -175.8 782.7 -174.2 782.6 -172.4 782.6 -170.5 782.6 -168.8 782.9 -167.1 782.9 -166.4"/>
          <polygon class="cls-4" points="820 -162.4 819.4 -163.5 818.7 -164.4 817.9 -165 817 -165.8 815.4 -166.4 814.4 -166.7 813.2 -166.9 811.8 -166.7 810.6 -166.4 809 -165.8 809.3 -166.8 809.5 -168.2 809.6 -169.7 809.6 -172.3 809.3 -173.9 809.2 -175 808.7 -176.6 808.2 -177.9 807.6 -178.7 807.2 -179.4 806.4 -180.4 805.4 -181.1 804.5 -181.7 803.3 -182.2 802.2 -182.4 801.1 -182.4 800.1 -182.3 799.2 -181.9 798.3 -181.6 797.2 -181 796.4 -180.3 795.8 -179.7 795.3 -179.1 794.8 -178.5 793.9 -177.1 793.7 -178 793.5 -178.5 793.5 -179.3 793.4 -179.9 793 -180.9 792.5 -181.5 791.8 -182.1 791 -182.4 790.4 -182.6 789.8 -182.4 789 -182.4 788.2 -182 787.8 -181.7 786.8 -180.7 786.4 -180.1 786 -179.4 785.6 -178.4 785.3 -177.5 784.9 -176.5 784.7 -175.4 784.4 -174.1 784.2 -172.9 784.1 -171.8 784.1 -171 784 -167.8 784.1 -166.7 783.9 -166.7 783.8 -167.8 783.9 -171 784 -171.8 784.1 -173 784.3 -174.2 784.5 -175.5 784.8 -176.6 785.1 -177.6 785.4 -178.5 785.8 -179.4 786.2 -180.2 786.7 -180.8 787.7 -181.8 788.1 -182.1 788.9 -182.5 789.8 -182.6 790.3 -182.8 791.1 -182.6 791.9 -182.2 792.6 -181.7 793.1 -181 793.6 -179.9 793.7 -179.4 793.7 -178.5 793.9 -178 794 -177.5 794.7 -178.6 795.1 -179.2 795.7 -179.8 796.3 -180.5 797.1 -181.1 798.2 -181.8 799.1 -182 800.1 -182.5 801.1 -182.6 802.2 -182.5 803.3 -182.4 804.6 -181.8 805.5 -181.3 806.5 -180.5 807.3 -179.5 807.7 -178.8 808.4 -177.9 808.9 -176.7 809.4 -175.1 809.5 -173.9 809.8 -172.4 809.8 -169.7 809.7 -168.2 809.5 -166.8 809.3 -166.1 810.6 -166.6 811.7 -166.9 813.2 -167 814.4 -166.8 815.5 -166.6 817.1 -165.9 818 -165.1 818.9 -164.6 819.6 -163.6 820 -162.8 820.5 -164 820.4 -164.8 822.4 -165.4 823.5 -165.8 824.8 -166.3 825.8 -166.8 826.7 -167.3 827.7 -168.3 826.8 -168.7 825.6 -168.6 827 -169.7 828.2 -170.1 829.3 -171 830.2 -171.7 831.1 -172.5 831.6 -173.1 830.1 -172.7 828.7 -172.6 831.4 -174.3 832.3 -175.1 833.9 -176.5 834.8 -178.4 835 -179.3 836.2 -180.9 836.8 -182 837.2 -183 837.7 -184.3 838 -185.5 838.2 -186.4 836.3 -184.8 834.9 -183.8 832.7 -182.5 830.9 -182.3 827.7 -181.6 824.9 -180.8 822.1 -180 820.7 -179.5 818 -177.9 818.3 -179.7 817.7 -180.8 816.8 -182.1 815.8 -183.1 814.4 -184.6 813.6 -185 812.4 -185.8 811.7 -185.9 811.2 -184.9 810.9 -183.8 808.9 -182.8 806.9 -182.8 805.4 -183.6 804.4 -184.4 804.4 -186 804.7 -187.1 805.9 -188.8 804.7 -189.5 803 -189.5 801.8 -189.7 800.6 -189.6 800.1 -188.5 799.9 -187.3 799.5 -186 798.6 -185 797 -184.4 795.2 -184.5 793.7 -185.5 792.6 -186.6 792.9 -188 791.7 -187.4 790.6 -186.5 789.3 -185.4 788.1 -184.3 787 -183.2 785.9 -181.9 785.2 -180.7 784.2 -179.2 783.6 -177.4 783.1 -175.8 782.8 -174.2 782.6 -172.4 782.7 -168.8 782.9 -167.2 783 -166.5 782.8 -166.4 782.8 -167.1 782.6 -168.8 782.5 -170.5 782.5 -172.4 782.6 -174.2 782.9 -175.8 783.4 -177.4 784 -179.3 785.1 -180.8 785.7 -182 786.8 -183.3 787.9 -184.4 789.2 -185.5 790.4 -186.7 791.6 -187.6 793.2 -188.3 792.8 -186.7 793.8 -185.6 795.3 -184.7 796.9 -184.6 798.5 -185.2 799.3 -186.1 799.7 -187.4 799.9 -188.6 800.4 -189.8 801.8 -189.9 803 -189.6 804.8 -189.7 806.2 -188.8 804.9 -187.1 804.6 -185.9 804.6 -184.5 805.6 -183.7 806.9 -183 808.9 -183 810.7 -184 811 -185 811.6 -186.1 812.5 -186 813.7 -185.2 814.6 -184.7 815.9 -183.2 816.9 -182.2 817.8 -180.9 818.5 -179.7 818.3 -178.3 820.6 -179.7 822 -180.2 824.9 -181 827.6 -181.8 830.8 -182.5 832.7 -182.7 834.8 -183.9 836.2 -184.9 838.4 -186.9 838.2 -185.5 837.8 -184.2 837.4 -182.9 836.9 -181.9 836.3 -180.8 835.2 -179.2 834.9 -178.3 834.9 -178.1 834 -176.4 832.4 -174.9 831.5 -174.1 829.5 -172.9 830 -172.9 832 -173.4 831.2 -172.4 830.3 -171.6 829.5 -170.9 828.3 -169.9 827.1 -169.5 826.2 -168.8 826.9 -168.9 828 -168.4 826.8 -167.1 825.9 -166.7 824.9 -166.1 823.5 -165.6 822.5 -165.2 820.6 -164.7 820.7 -164 820 -162.4"/>
        </g>
        <g>
          <polygon class="cls-4" points="784.7 -163.5 784.2 -163.5 783.6 -162.7 783.6 -161.8 783.8 -161.1 784.1 -160.5 784.6 -159.6 785.1 -159.1 785.9 -159.8 786.5 -159.4 786.6 -158.4 786.6 -157.8 787 -157.1 787.7 -156.6 788.3 -156.3 789 -156.5 789.8 -156.6 790.4 -156.2 790.8 -155.6 790.8 -155 791 -154.3 792 -153.7 792.8 -153.3 793.4 -153.1 793.7 -153.8 794.4 -154.3 795.3 -154.5 796 -154.2 796.5 -153.1 796.7 -152.5 796.9 -151.9 797.6 -151.9 798.6 -151.7 799.4 -151.6 799.7 -152.3 800.1 -153 800.7 -153.5 801.6 -153.8 802.4 -153.2 802.7 -152.6 802.6 -151.6 803.2 -151.4 804.1 -151.7 805.1 -151.7 806 -151.8 806.6 -151.9 807.2 -152.1 807 -152.7 807.2 -153.6 807.6 -154.3 808.3 -154.7 809.1 -154.8 809.7 -154.3 810 -153.6 810.2 -153.1 810.8 -153.1 811.6 -153.4 812.3 -153.9 812.8 -154.4 812.9 -155.8 813.2 -156.6 814.1 -157.2 815 -156.7 815.1 -156.5 815.3 -156.1 816 -157.5 816.2 -158.6 816.4 -159.8 816.3 -160.6 815.9 -161.6 815.2 -162.5 814.4 -163.4 813.1 -164 812.5 -163.4 811.8 -162.8 811.2 -162.3 810.4 -162.2 809.7 -162.7 809.4 -163.3 808.7 -163.4 807.9 -163.2 807.9 -162.3 807.8 -161.6 807.3 -160.9 807 -160.1 806.4 -159.6 806 -159 805.4 -158.6 804.7 -158.6 804.6 -159.5 804.7 -160.5 804.5 -161.3 804.2 -161.8 803.6 -162 802.8 -161.9 802.1 -161.5 801.8 -160.9 801.8 -160.4 801.7 -159.7 801.4 -159.1 800.6 -158.6 799.7 -158.6 799 -159.2 798.8 -159.7 798.6 -160.3 798.6 -160.9 797.7 -160.6 796.7 -160.6 795.8 -160.5 795 -160.6 794.4 -160.7 792.4 -160.9 791.8 -161.3 790.9 -160.4 789.8 -160.1 788.7 -161.2 788.7 -162.1 788.7 -162.9 787.7 -163.3 786.9 -162.5 785.9 -162.1 785.1 -162.7 784.7 -163.5"/>
          <path class="cls-4" d="M803.2-151.3h-.6c0-.1,0-1.2,0-1.2l-.2-.5-.8-.6-.8.3-.6.4-.4.7-.3.8h-.9c0-.1-1-.3-1-.3h-.7c0,0-.3-.7-.3-.7l-.2-.6-.5-1.1-.7-.3-.8.2-.7.6-.4.7-.7-.2-.8-.4-1.1-.7v-.6c-.1,0-.2-.6-.2-.6l-.3-.6-.6-.4h-.8c0,.1-.7.3-.7.3l-.6-.3-.7-.5-.5-.7v-.7c0,0,0-.9,0-.9l-.6-.3-.8.7-.6-.5-.5-.9-.3-.6-.2-.8v-.9s.6-1,.6-1h.7l.4.8.7.6.9-.3.9-.9,1.1.5v.8c0,0,0,.8,0,.8l1.1,1,1-.2.9-1,.7.4,2,.3h.6c0,.1.7.2.7.2h.9c0-.1,1-.2,1-.2l1-.3v.7c0,0,.1.6.1.6l.2.6.7.5h.8s.8-.5.8-.5l.2-.6.2-1.2.3-.6.8-.4h.8c0-.1.6,0,.6,0l.4.6.2.9v.9c-.1,0,0,.9,0,.9h.6l.6-.4.4-.5.5-.6.4-.7.5-.7v-.7s0-.9,0-.9l.8-.2h.8s.3.7.3.7l.7.5h.7c0-.1.6-.6.6-.6l.7-.6.6-.6,1.4.6.8.9.7,1,.4,1v.8c0,0,0,1.3,0,1.3l-.2,1.1-.8,1.5-.3-.7-.8-.5-.8.5-.3.7v1.4s-.6.6-.6.6l-.7.5-.9.3h-.7s-.2-.6-.2-.6l-.3-.6-.6-.5h-.7c0,0-.6.4-.6.4l-.4.7v.8c-.1,0,0,.6,0,.6l-.7.2h-.6c0,.1-.9.2-.9.2h-1c0,0-1,.3-1,.3ZM802.7-151.6h.4c0,.1.9-.1.9-.1h1c0,0,.9-.2.9-.2h.6c0-.1.5-.3.5-.3l-.2-.5.2-.9.5-.8.7-.4h.8c0-.1.7.5.7.5l.3.7.2.5h.5s.8-.3.8-.3l.7-.4.5-.5v-1.4s.4-.8.4-.8l1-.6,1,.5.2.4.7-1.2.2-1.1.2-1.2v-.8c0,0-.4-.9-.4-.9l-.7-.9-.8-.9-1.3-.5-.5.6-.7.6-.6.5h-.8c0,.1-.8-.4-.8-.4l-.3-.6h-.7s-.7.2-.7.2v1.6c0,0-.6.7-.6.7l-.4.7-.5.6-.4.5-.7.5h-.8l-.2-1.1v-.9c.1,0,0-.8,0-.8l-.3-.5h-.5c0-.1-.7,0-.7,0l-.7.3-.3.6v.5c0,0-.2.7-.2.7l-.3.6-.9.6h-.9s-.8-.6-.8-.6l-.2-.6-.2-.6v-.4s-.8.2-.8.2h-1l-.9.2h-.8c0-.1-.6-.2-.6-.2l-2-.3-.6-.4-.9,1-1.1.2-1.2-1.1v-.9s0-.7,0-.7l-.8-.4-.9.8-1.1.4-.8-.7-.3-.8h-.5l-.5.8v.8s.2.7.2.7l.3.6.4.9.4.4.7-.6.8.4v1c.1,0,0,.6,0,.6l.4.6.7.5.5.3.6-.2h.9c0-.1.7.3.7.3l.3.7v.6c0,0,.2.6.2.6l1,.6.8.4h.5c0,.1.3-.5.3-.5l.8-.6.9-.2.8.4.5,1.1.2.6.3.5h.6c0,0,1,.2,1,.2h.7c0,.1.2-.6.2-.6l.4-.7.6-.5.9-.3.9.7.2.6v1Z"/>
        </g>
        <g>
          <path class="cls-4" d="M806.1-131.8v.6s0,.5,0,.5v1.3l-.3,1.2-.7,1.6-2.2,2.3.8.8,1.8,1.1.5.3v.5c-.1,0-1,1-1,1l-.6.9,1.2-.6,1-.6,1.6-.5,1.7-.3h1.8s1.7.2,1.7.2h2.7s1.1-.1,1.1-.1l1.2-.2,1.3-.3,1.3-.5,1-.4,1-.3.9-.2h.5s.3.7.3.7l.3,1,.7-.7v-.8c0,0,0-.7,0-.7l.5-1,.7-.8.8-.9,1-1.2.6-.9.4-1,.3-1.1.4-1.2.2-.5.9.4.9-.2.6-.7h-.9c0,0-.7-.9-.7-.9l-.4-.6v-1c0,0-.3-.8-.3-.8l-.3-1.5-.2-1.4-.4-1.6-.6-1.5-.4-1.4-.8-1.3-.5-.9,1.6-1.1.6-.8-2.1.4-1.2-.3-1.1-.7-.9-1.1-1.3-.8-1-1.4-1-.9-.7-.5-.8-.3s-.8-.2-.8-.5h-.7l-.7.3-.6.6-.8.5-1.9,1-1.1.3-1.3.7-1.4.6-1.3.4-.9.3,9,4.9,2,1.1.8.8.6.8.5.8.5.7.3.7.2.5.2.9-.2,1.3-.3.6-.6.6,1.8-1.1v1.6c0,0-.3.6-.3.6l-.3,1-.4,1-.6.8-.6.8-.6.6-.6.4-1,.7-1,.3-1.3.3-.6-1-.8.7-1.7.6h-1.1s-.9-.3-.9-.3l-1.1-.3-1.2-.2-1.5-.9-.8-.6"/>
          <path class="cls-4" d="M804.3-119.4l.8-1.2.8-1v-.4c.1,0-2.2-1.4-2.2-1.4l-.9-.9,2.2-2.3.7-1.5.3-1.2v-2.4c0,0,.1,0,.1,0v1.2c0,0,0,1.3,0,1.3l-.3,1.2-.8,1.6-2.1,2.2.8.7,2.4,1.4-.2.6-.8,1-.4.6.9-.4,1.1-.6,1.6-.5,1.7-.3h1.8s1.7.2,1.7.2h2.7s1.1-.1,1.1-.1l1.2-.2,1.3-.3,1.3-.5,1-.4,1-.4.9-.3h.6c0,0,.4.7.4.7l.3.9.6-.6v-.8c0,0,.1-.8.1-.8l.5-1,.7-.8.8-.9,1-1.2.6-.9.4-1,.3-1.1.4-1.2.3-.6.9.5.8-.2.4-.5h-.8c0,0-.7-.9-.7-.9l-.4-.6v-1c0,0-.3-.8-.3-.8l-.3-1.5-.2-1.4-.4-1.6-.6-1.5-.4-1.4-.8-1.3-.5-1,1.7-1.1.5-.6-1.9.4-1.3-.3-1.2-.7-.8-1.1-1.3-.8-1-1.4-1-.8-.7-.5-.8-.2c-.2,0-.7-.2-.9-.5h-.6l-.7.3-.6.6-.8.5-1.9,1.1-1.1.3-1.3.7-1.4.6-1.3.4-.7.2,8.8,4.8,2,1.1.8.8.6.8.5.8.5.7.4.7.3.6.2.9-.3,1.3-.3.5,1.1-.7v1.8c0,0-.3.6-.3.6l-.3,1-.4,1-.6.8-.6.8-.6.6-.6.4-1,.7-1,.3-1.4.4-.6-1-.7.7-1.7.6h-1.1s-.9-.3-.9-.3l-1.1-.3-1.2-.3-1.5-.9-.8-.6h.1c0-.1.8.4.8.4l1.5.9,1.1.2,1.1.3.9.2h1s1.7-.6,1.7-.6l.8-.8.7,1,1.2-.3,1-.3,1-.7.6-.4.6-.6.6-.8.6-.8.4-1,.3-1,.2-.6v-1.4c0,0-1.6,1-1.6,1h-.1c0-.1.6-.7.6-.7l.3-.5.2-1.3-.2-.9-.2-.5-.3-.7-.5-.7-.5-.8-.6-.8-.8-.8-2-1.1-9.2-5.1,1.2-.3,1.3-.4,1.4-.6,1.3-.7,1.1-.3,1.8-1,.8-.5.7-.6.8-.3h.8c0,.2.4.4.8.5l.8.3.7.5,1,.9,1,1.4,1.3.8.8,1.1,1.1.7,1.2.3,2.3-.5-.8,1-1.5,1.1.4.8.8,1.3.4,1.5.6,1.5.4,1.6.2,1.4.3,1.5.2.8v1c0,0,.5.6.5.6l.7.9h1.1c0,0-.8.8-.8.8l-1,.2-.8-.4-.2.5-.4,1.2-.3,1.1-.4,1-.6.9-1,1.2-.8.9-.7.8-.5.9v.7s-.1.9-.1.9l-.8.9-.4-1.1-.3-.6h-.5s-.9.2-.9.2l-1,.3-1,.4-1.3.5-1.3.3-1.2.2h-1.1c0,.1-2.7.1-2.7.1l-1.7-.2h-1.8s-1.7.3-1.7.3l-1.6.5-1,.6-1.5.7Z"/>
        </g>
        <g class="cls-10">
          <path class="cls-2" d="M761.6-167.7"/>
        </g>
        <g>
          <path class="cls-4" d="M809.9-148.6l.6.6.3.8.4.9.3.8.5,1.3.2.9v2.1s0,1.1,0,1.1v.9c0,0-.6,1.9-.6,1.9l-.2.8-.4,1-.3.8-.5.8-.4.8-.3.6-.3.8-.3.6-.6.7.9.7.7.3.8.2.7.4h.8c0,.1.7,0,.7,0l.5-.7.5-.7.7-1.2.5-1.2.5-1.5.5-1.3.5-1.2.5-1.5.3-1.4.3-1.6.2-2v-1.2c.1,0,.1-.7.1-.7v-.7c-.1,0-3.1-5.2-7.9-3Z"/>
          <path class="cls-4" d="M812-128.7h-.8c0-.1-.7-.5-.7-.5l-.8-.2-.7-.3-.9-.8.6-.7.3-.6.3-.8.3-.6.9-1.6.3-.8.4-1,.2-.8.5-1.9v-.9c0,0,0-1.1,0-1.1v-1.1s0-1,0-1l-.2-.9-.5-1.2-.3-.8-.4-.9-.3-.8-.7-.7h.1c4.8-2.2,7.8,2.9,7.9,3h0s.1.8.1.8v.7s-.3,3.3-.3,3.3l-.3,1.6-.4,1.4-.5,1.5-.5,1.2-.5,1.3-.5,1.5-.5,1.2-.7,1.2-1,1.5h-.8ZM811.3-129h.7c0,.1.6,0,.6,0l.9-1.4.7-1.2.5-1.1.5-1.5.5-1.3.5-1.2.5-1.4.3-1.4.3-1.6.3-3.2v-.7s-.1-.7-.1-.7c-.2-.3-3-4.9-7.5-3l.5.6.3.8.4.9.3.8.5,1.3.2.9v1s0,1.1,0,1.1v2c0,0-.6,1.9-.6,1.9l-.2.8-.4,1-.3.8-.9,1.6-.3.6-.3.8-.4.7-.5.6.8.6.7.3.8.2.7.4Z"/>
        </g>
        <g>
          <polyline class="cls-4" points="844.6 -157.1 842.4 -157.1 841.6 -157 840.4 -156.5 839.7 -156.1 842.7 -158 843.9 -158.5 844.7 -158.8 846.5 -159.3 848.3 -159.9 849.7 -160.4 851.3 -160.7 853.1 -161.1 854.6 -161.3 856.3 -161.5 857.7 -161.6 859 -161.3 860.1 -160.8 859.9 -160 859.3 -159.6 858.4 -159 857.7 -158.7 856.3 -158.2 854.8 -157.3 853.6 -156.6 851.8 -155.3 850.7 -154.4 849.6 -153.4 848.7 -152.5 848 -151.7 847.3 -150.7 846.4 -149.4 845.8 -149.8 845.8 -150.7 845.8 -151.5 845.9 -152.3 846 -152.9 846.2 -153.8 846.4 -154.5 846.7 -155.1 845.9 -155.4 845.4 -155 844.9 -154.3 844.3 -153.4 843.8 -152.3 843.5 -151.8 843.1 -150.9 843 -150.4 842.9 -149.5 843 -148.6 842.7 -147.9 842.7 -147 842.8 -146.3 842.8 -145.6 842.9 -144.6 843.1 -143.8 843.3 -143.2 843.5 -142.4 843.8 -141.5 844.2 -140.6 844.6 -139.7 845.1 -138.9 845.5 -137.9 846.1 -137.1 846.7 -136.1 847.2 -135.2 848.3 -133.5 848.9 -132.3 849.6 -131 850.1 -130.3 850.5 -129.5 850.9 -128.8 852 -126.8 852.6 -125.9 853 -125 853.4 -124.1 854.3 -122.1 854.6 -121.2 854.9 -119.8 855.2 -118.8 855.3 -118.1 855.3 -116.9 855.2 -115.5 855.1 -114.4 854.7 -112.3 854.3 -110.8 853.7 -109.2 853 -107.9 852.3 -106.8 851.5 -105.4 850.2 -103.7 849.1 -102.6 847.5 -100.9 845.1 -99.8 843.9 -99.4 841 -98.7 838.1 -98.8 835.6 -99.3 832.2 -100.2 828.9 -101.6 827.7 -102.1 827.9 -103.5 828.6 -105.7 829.1 -106.7 829.3 -107.4 830.4 -106.1 831.9 -105 834.1 -104.1 836.4 -103.6 839.2 -103.4 840.2 -103.4 842.6 -103.8 843.6 -104.1 844.4 -104.3 845 -104.6 846.1 -105.1 847 -105.7 848.4 -106.8 849.1 -107.6 849.6 -108.2 850.2 -108.9 850.8 -110 851.1 -110.8 851.6 -112.1 852 -113.3 852.1 -115.1 851.8 -117 851.8 -118.2 851.5 -120 851.1 -121.6 850.4 -123.5 849.6 -126 848.8 -127.6 848.1 -128.9 846.3 -131.9 845.5 -133.5 844.6 -135 842.8 -138.7 842 -141.1 841.4 -142.6 841 -144.2 840.8 -145.9 840.8 -148 840.9 -149.1 841.2 -150.6 841.4 -151.5 842.1 -152.9 843 -154.4 843.9 -155.5 844.4 -156.4"/>
          <polygon class="cls-4" points="841 -98.6 838.1 -98.7 835.6 -99.2 832.2 -100.1 828.8 -101.6 827.6 -102 827.8 -103.5 828.5 -105.7 829 -106.7 829.2 -107.6 830.5 -106.1 831.9 -105.1 834.1 -104.1 836.4 -103.7 839.2 -103.5 840.2 -103.5 842.6 -103.9 843.6 -104.2 844.3 -104.4 845 -104.7 846 -105.2 846.9 -105.8 848.3 -106.9 849.6 -108.2 850.1 -108.9 850.7 -110.1 851 -110.9 851.5 -112.1 852 -113.3 852 -115.2 851.7 -116.9 851.7 -118.2 851.4 -120 851 -121.6 850.3 -123.5 849.5 -125.9 848.7 -127.6 848.1 -128.9 846.2 -131.9 845.4 -133.4 844.5 -134.9 842.8 -138.6 841.9 -141.1 841.3 -142.5 840.9 -144.2 840.7 -145.9 840.7 -148 840.8 -149.1 841.2 -150.6 841.3 -151.5 842 -153 842.9 -154.5 843.8 -155.6 844.4 -156.5 844.5 -156.4 844 -155.5 843.1 -154.3 842.1 -152.9 841.5 -151.5 841.3 -150.6 841 -149.1 840.9 -148 840.8 -145.9 841 -144.2 841.4 -142.6 842.1 -141.1 842.9 -138.7 844.7 -135 845.6 -133.5 846.4 -132 848.2 -129 848.9 -127.6 849.7 -126 850.5 -123.5 851.1 -121.7 851.6 -120.1 851.8 -118.2 851.9 -117 852.2 -115.2 852.1 -113.3 851.7 -112 851.2 -110.8 850.8 -110 850.2 -108.8 849.7 -108.1 848.5 -106.8 847 -105.7 846.1 -105.1 845.1 -104.5 844.4 -104.2 843.6 -104 842.6 -103.7 840.2 -103.4 839.2 -103.3 836.4 -103.5 834.1 -104 831.8 -105 830.4 -106 829.3 -107.2 829.1 -106.7 828.7 -105.6 828 -103.5 827.8 -102.1 828.9 -101.7 832.2 -100.2 835.7 -99.4 838.1 -98.9 840.9 -98.8 843.8 -99.4 845.1 -99.8 847.4 -101 850.1 -103.8 851.4 -105.5 852.3 -106.8 852.9 -107.9 853.6 -109.3 854.2 -110.9 854.6 -112.4 855 -114.4 855.1 -115.6 855.2 -116.9 855.2 -118.1 855.1 -118.8 854.8 -119.8 854.5 -121.1 854.2 -122.1 853.3 -124.1 852.9 -124.9 852.6 -125.9 851.9 -126.7 850.9 -128.7 850 -130.3 849.5 -131 848.9 -132.3 848.2 -133.4 847.1 -135.2 846.6 -136 846.1 -137.1 845.4 -137.9 845 -138.9 844.5 -139.7 844.1 -140.6 843.8 -141.5 843.4 -142.4 843.2 -143.1 843 -143.8 842.8 -144.6 842.7 -146.3 842.6 -147 842.6 -147.9 842.9 -148.6 842.8 -149.5 842.9 -150.4 843 -150.9 843.4 -151.8 843.7 -152.4 844.2 -153.4 844.8 -154.4 845.3 -155.1 845.9 -155.5 846.8 -155.1 846.5 -154.4 846.2 -153.8 845.9 -151.5 845.9 -150.7 845.9 -149.9 846.3 -149.5 847.2 -150.8 847.9 -151.8 848.7 -152.5 849.6 -153.5 850.6 -154.5 851.8 -155.4 853.5 -156.6 854.8 -157.4 856.3 -158.3 857.7 -158.7 858.3 -159.1 859.8 -160 860 -160.8 859 -161.2 857.7 -161.5 856.4 -161.4 853.1 -161 851.3 -160.6 849.8 -160.3 848.3 -159.8 846.5 -159.2 844.7 -158.7 844 -158.5 842.7 -157.9 841 -156.8 841.6 -157.1 842.3 -157.1 844.6 -157.1 844.6 -157 842.4 -157 841.6 -156.9 840.4 -156.4 839.8 -156.1 839.7 -156.2 842.6 -158 843.9 -158.6 844.7 -158.9 846.5 -159.4 848.2 -160 849.7 -160.5 851.3 -160.8 853 -161.2 856.3 -161.6 857.7 -161.7 859 -161.4 860.2 -160.9 859.9 -159.9 858.4 -159 857.7 -158.6 856.4 -158.1 854.9 -157.3 853.6 -156.5 851.9 -155.2 850.8 -154.4 849.7 -153.4 848.8 -152.4 848.1 -151.7 847.4 -150.7 846.4 -149.2 845.7 -149.8 845.7 -150.7 845.7 -151.5 845.8 -152.3 845.9 -152.9 846.1 -153.8 846.3 -154.5 846.6 -155 845.9 -155.3 845.4 -155 844.9 -154.3 844.4 -153.3 843.8 -152.3 843.6 -151.7 843.2 -150.8 843.1 -150.4 843 -149.5 843.1 -148.6 842.8 -147.9 842.8 -147 842.9 -146.3 843 -144.6 843.2 -143.9 843.4 -143.2 843.6 -142.5 843.9 -141.6 844.3 -140.7 844.7 -139.8 845.2 -138.9 845.6 -138 846.2 -137.1 846.7 -136.1 847.3 -135.3 848.4 -133.5 849 -132.4 849.7 -131.1 850.1 -130.4 851 -128.8 852.1 -126.8 852.7 -125.9 853.1 -125 853.5 -124.1 854.4 -122.1 854.7 -121.2 854.9 -119.8 855.3 -118.9 855.4 -118.1 855.4 -116.9 855.3 -115.5 855.2 -114.4 854.8 -112.3 854.4 -110.8 853.8 -109.2 853.1 -107.8 852.4 -106.8 851.6 -105.4 850.3 -103.6 847.5 -100.9 845.2 -99.7 843.9 -99.3 841 -98.6"/>
        </g>
        <g>
          <path class="cls-4" d="M791.7-150.9s-5.7,2.2-3.7,12.8-3.6-17-3.6-17l.3-.8s5.3,4.2,7,5Z"/>
          <path class="cls-4" d="M788.4-135.6c0,0-.1-.2-.7-3.1-.3-1.6-.8-3.8-1.4-6.7-1-4.8-2-9.7-2-9.7h0s.4-1,.4-1h0c0,.1,5.3,4.2,6.9,5.1h.2c0,0-.2.2-.2.2,0,0-1.4.6-2.6,2.4-1.9,3.1-1.7,7.3-1.1,10.3q.5,2.5.3,2.5s0,0,0,0ZM784.5-155.1c.9,4.4,2.3,11.3,3.2,15.6-.4-2.9-.3-6.4,1.4-9.1.9-1.5,2-2.2,2.5-2.4-1.7-.9-6-4.3-6.7-4.8l-.3.7Z"/>
        </g>
        <g>
          <polygon class="cls-4" points="792.9 -105.8 793.9 -106.7 794.7 -107.6 796.1 -108.8 797.2 -109.7 798.1 -110.3 799.1 -111 800 -111.4 801.3 -112 802.2 -112.4 803 -112.8 803.5 -112.9 804.1 -113.1 804.7 -113.2 805.9 -113.3 808 -113.7 810 -114 812.1 -113.7 814.2 -113.2 815.7 -112.6 816.7 -111.6 817.5 -110.6 817.9 -109.7 818 -108.4 818.1 -107.1 818.1 -105.9 818 -104.4 817.6 -103.2 817.1 -102 816.6 -100.8 816 -99.9 815.3 -98.8 813.8 -97.1 812.5 -95.7 811.3 -94.3 810.2 -93.1 809.1 -91.7 808.4 -90.3 808 -89.4 808 -89.4 807.6 -88.2 807.3 -87.3 809.4 -89 810.2 -86.8 811.7 -85.5 813 -85.2 812.6 -86.3 812.6 -87.4 813.7 -87.1 814.6 -86.7 815.9 -86.1 817.1 -85.9 818.5 -85.8 818.5 -86.9 818.5 -87.8 820 -86.9 820.9 -86.1 820.8 -88.2 821 -89.9 821.7 -90.9 822.2 -91.6 822.6 -92.1 823 -89.9 824 -92.7 824.7 -94.9 826.1 -98.1 826.9 -100.6 827.7 -102.9 828.3 -105.3 828.9 -107.7 828.9 -109.1 829.1 -110.2 830.8 -110.2 829 -111.7 828.5 -112.9 827.7 -115.3 827 -116.6 825.8 -117.7 823.9 -118.8 822.3 -119.7 820.2 -120.8 818.9 -121.2 818.1 -121.6 816.5 -121.4 814.4 -121.3 812.3 -121.4 810 -121.4 808.2 -121.3 806.3 -120.6 805.8 -120.3 804.4 -119.3 805.9 -121.7 805 -122.4 804.1 -123.1 803.1 -124 802.1 -123.7 800.7 -123.7 799.5 -124.2 798.6 -123.7 797.6 -122.7 796.6 -121.2 796.1 -119.8 795 -118.7 793.8 -118 792.6 -118.3 791.4 -119.7 791.2 -120.7 791.1 -121.9 791.2 -122.8 791.5 -123.7 789.9 -123.5 792.9 -105.8"/>
          <path class="cls-4" d="M813.1-85.1l-1.5-.3-1.5-1.4-.8-2.1-2.2,1.8.3-1.1.4-1.2.4-.9.7-1.4,1.1-1.4,1.1-1.3,1.2-1.4,1.3-1.4,1.5-1.6,1.3-2,.5-1.2.5-1.2.4-1.2v-1.5c0,0,.2-1.2.2-1.2v-1.3c-.1,0-.3-1.3-.3-1.3l-.4-.9-.8-1-1-.9-1.5-.6-2.1-.5-2.1-.3-2,.2-2.1.4h-1.2c0,.1-.5.2-.5.2l-.7.2h-.5c0,0-.8.4-.8.4l-.9.5-1.3.6-.9.5-1,.7-.9.6-1.1.8-1.4,1.2-.8.9-1.1,1-3.1-17.9,1.8-.3-.3,1.1-.2.8.2,1.2.2,1,1.1,1.3,1.1.3,1.2-.6,1.1-1.1.5-1.5,1-1.5,1-1,.9-.5,1.2.6h1.3s1.1-.4,1.1-.4l1,1,.9.6,1,.8-1.3,2,1.5-1,1.9-.7,1.9-.2h2.2s2.1.2,2.1.2h2.1c0,0,1.6-.3,1.6-.3l.9.4,1.3.4,2.1,1.1,1.7,1,1.9,1.1,1.3,1.1.6,1.3.8,2.3.5,1.2,1.9,1.7h-1.8l-.2,1v1.4s-.6,2.3-.6,2.3l-.6,2.5-.8,2.2-.8,2.6-1.5,3.2-.6,2.2-1.2,3.1-.4-2.3-.8,1-.7,1-.2,1.7v2.2c0,0-1-.9-1-.9l-1.3-.8v2c0,0-1.5-.1-1.5-.1l-1.2-.2-1.3-.5-.9-.5-1-.3v1s.4,1.3.4,1.3ZM811.7-85.5l1.1.2-.3-1v-1.2s1.2.3,1.2.3l.9.5,1.3.5,1.2.2h1.3c0,.1,0-.9,0-.9v-1.1s1.6,1,1.6,1l.8.6v-1.9c0,0,.1-1.7.1-1.7l.7-1.1,1.1-1.3.3,2,.9-2.4.6-2.2,1.5-3.2.8-2.6.8-2.2.6-2.4.6-2.3v-1.4s.2-1.2.2-1.2h1.5l-1.6-1.4-.5-1.2-.8-2.3-.6-1.3-1.2-1.1-1.8-1.1-1.7-1-2.1-1-1.3-.4-.8-.4-1.5.2h-2.1c0,0-2.1,0-2.1,0h-2.2s-1.8.2-1.8.2l-1.9.7-2.3,1.5,1.7-2.6-.9-.7-.9-.6-.9-.9-1,.3h-1.4s-1.2-.5-1.2-.5l-.8.5-1,1-1,1.5-.5,1.5-1.1,1.1-1.2.7-1.3-.3-1.2-1.4-.2-1-.2-1.3.2-.9.2-.8-1.4.2,3,17.4.9-.8.8-.9,1.4-1.2,1.1-.8.9-.6,1-.7.9-.5,1.3-.6.9-.5.8-.3h.5c0-.1.7-.3.7-.3h.5c0-.1,1.2-.2,1.2-.2l2.1-.4,2-.2,2.1.3,2.1.5,1.6.6,1,1,.8,1.1.4.9.2,1.3v1.3c.1,0,0,1.2,0,1.2v1.5c0,0-.4,1.2-.4,1.2l-.5,1.2-.5,1.2-1.3,2.1-1.5,1.6-1.3,1.4-1.2,1.4-1.1,1.3-1,1.4-.7,1.4-.4.9-.4,1.2-.2.6,2-1.6.8,2.3,1.4,1.3Z"/>
        </g>
        <path class="cls-9" d="M775.1-127.8l-.2-1,.3-1.1.5-.7.7-.6.7-.5.9-.3,1.5-.7.9-.2,1.4-.2.9-.3.9-.3s10,8,6,9.9-4.4,1.3-4.4,1.3l-1.8.6-1.9.6-2,.4-1.2-.2-.9-.7-.4-1.2.2-.8h-.8c0,0-1.1-.7-1.1-.7l-.5-.9v-1"/>
        <path class="cls-9" d="M755.3-149.9c.1-.1.5-.4.5-.4l.8-.7.6-1,.4-1.1.2-.9v-1.4c0,0-.3-.9-.3-.9l-.3-.7h0s1.2-1.2,1.2-1.2l.4-.8v-1.2c.1,0-.4-1.6-.4-1.6l-.5-.7-1.2-.9-.8-.4h-.9s-11.7,14.1-5,17,1.9.2,1.9.2l1.1-.5.9-.6.7-.6v-.8c.1,0,.4-.8.6-1.1Z"/>
        <path class="cls-4" d="M792.8-188.4c-2.8,1.7-5.3,3.9-7.2,6.6s-1.7,2.7-2.2,4.2-.9,3.3-1,5,.1,4.1.3,6.2.5,0,.5-.2c-.3-3.4-.7-6.9.4-10.3,1-3,2.8-5.7,5.1-7.8s2.7-2.3,4.2-3.2.2-.2.2-.3-.2,0-.3,0h0Z"/>
        <path class="cls-4" d="M793-186.6c-.2-3.2,1.8-6,4.4-7.7s2.7-1.5,4.2-2,2.9-.9,4.4-1.4,3.2-1.3,4.6-2.4l-.3-.2c-1,2.1-2.9,3.5-4.7,4.9s-3.8,3.1-5,5.3-1.1,2.9-1.2,4.4.2.1.3.1c.1,0,.2-.2.2-.3,0-1.4.4-2.7,1-4s1.3-2.1,2.2-3c1.7-1.6,3.6-2.9,5.3-4.5s1.7-1.9,2.3-3-.1-.3-.3-.2c-2.5,2-5.7,2.6-8.7,3.7s-6,2.7-7.7,5.4-1.5,3.2-1.4,5,.5,0,.5-.2h0Z"/>
        <path class="cls-4" d="M792.8-186c.8,1,2,1.6,3.3,1.6s2.6-.5,3.5-1.5.2-.2,0-.3-.3,0-.3,0c-.8.8-2,1.3-3.2,1.2s-2.2-.7-3-1.5-.6.2-.4.4h0Z"/>
        <path class="cls-4" d="M804.2-184.5c.9.9,1.9,1.5,3.2,1.8s2.6-.1,3.4-1,.8-1.1.9-1.8-.1-.1-.2-.1-.2.2-.3.3c-.1.6-.4,1.2-1,1.6s-1.3.6-2,.6c-1.4,0-2.7-.8-3.6-1.7s-.6.2-.4.4h0Z"/>
        <path class="cls-4" d="M804.7-184.9c0-1,.3-2,.8-2.8s1.1-1.7,1.8-2.5c1.1-1.3,2.5-2.3,4.1-3,3-1.4,6.3-2.1,9.3-3.3s3.3-1.6,4.6-2.9h-.4c-.6,2.5-2.7,4.4-4.8,5.9s-4.9,2.9-6.8,5-1.7,2.3-2.1,3.7,0,.2.2.2.3-.2.3-.3c.7-2.6,2.8-4.4,4.9-5.9s4.9-2.9,6.8-5,1.7-2.3,2-3.7-.3-.2-.4,0c-2.4,2.3-5.8,3.3-8.9,4.3s-6.6,2.2-8.9,4.8-1.5,1.8-2,2.7-1,2.1-.9,3.2.5,0,.5-.2h0Z"/>
        <path class="cls-4" d="M800.9-189.6c.9,0,1.7,0,2.5.1s1.7.4,2.5.6.6-.4.3-.5c-1.6-.6-3.4-.8-5.2-.7s-.3.1-.3.2,0,.3.1.2h0Z"/>
        <path class="cls-4" d="M812.3-186c2.6,1.7,4.7,4.1,6.2,6.8s.6-.1.5-.3c-1.4-2.8-3.6-5.1-6.2-6.9s-.6.3-.4.4h0Z"/>
        <path class="cls-4" d="M816.9-176.1c1.6-2.6,4.5-3.9,7.4-4.6s3.5-.7,5.2-1.1,3.3-.9,4.8-1.7,3.1-2,4.3-3.3h-.4c-.3,2.5-1.4,4.9-3.1,6.8s-1,1.1-1.6,1.5-.2.2-.2.4.2,0,.3,0c2.1-1.7,3.7-4,4.5-6.6s.4-1.5.5-2.3-.2-.2-.4,0c-1.1,1.2-2.4,2.2-3.8,3s-3.1,1.4-4.7,1.8c-3.2.8-6.6,1.1-9.6,2.7s-2.8,1.9-3.6,3.3-.1.2,0,.3.3,0,.4-.2h0Z"/>
        <path class="cls-4" d="M835-179.2c-1,2.7-3,4.9-5.5,6.1s-.4.5-.1.5c1,0,1.9-.3,2.8-.6l-.2-.3c-1.6,1.9-3.7,3.4-6,4.2s-.3.6,0,.4c2.5-.9,4.7-2.5,6.4-4.5s0-.4-.2-.3c-.8.3-1.7.6-2.5.6v.5c2-1,3.8-2.7,5-4.7s.6-1.2.8-1.8-.3-.3-.4,0h0Z"/>
        <path class="cls-4" d="M826.1-168.5c.7,0,1.3,0,2-.2v-.3c-.8,1.2-2,2-3.2,2.5s-1.3.5-1.9.8-1.6.6-2.5.6-.4.2-.4.4c.2.9,0,1.8-.3,2.6s0,.2.1.3.3-.1.3-.2c.4-.9.5-2,.3-3l-.4.4c.7,0,1.4-.2,2.1-.4s1.2-.4,1.7-.6c1.1-.4,2.1-1,3-1.7s1-.9,1.3-1.5,0-.4-.1-.3c-.6.1-1.2.2-1.9.2s-.3.1-.3.2,0,.3.1.3h0Z"/>
        <path class="cls-9" d="M817.5-172.4c.9-1.7,2.3-3,3.9-4.1s1.7-.9,2.6-1.2,1.9-.4,2.8-.6,2.1-.5,3-1.3.2-.2,0-.3-.3,0-.3,0c-.7.7-1.7.9-2.7,1s-1.9.3-2.9.6c-1.8.6-3.5,1.7-4.9,3.1s-1.4,1.7-2,2.6,0,.2.1.3.3-.1.3-.2h0Z"/>
        <path class="cls-4" d="M784.2-166.9c-.4-3.6,0-7.3,1.1-10.7s1.1-3,2.4-4,2.7-1.2,4-.5,1.8,3.3,1.8,5,.5,0,.5-.2c0-1.7-.1-3.7-1.5-4.9s-2.9-1-4.3-.3-2.4,2.3-3,3.8-1.1,3.6-1.4,5.4-.4,4.3-.1,6.5.5,0,.5-.2h0Z"/>
        <path class="cls-4" d="M794.2-177.1c1.3-3.3,4.9-5.7,8.5-5.1s3.4,1.5,4.5,3,1.8,3.7,2,5.7.2,5-.3,7.4,0,.2.2.2.3-.2.3-.3c.5-2.3.7-4.6.4-6.9s-.8-4.2-1.9-6.1-2.5-2.9-4.4-3.3-4.1,0-5.8.9-3.2,2.6-3.9,4.5.3.3.4,0h0Z"/>
        <path class="cls-4" d="M788.4-179.4c.2-.7,1.1-.8,1.6-.5s1.1,1.2,1.3,2,.3,1.8.4,2.7.1,1.8.1,2.8c0,1.8-.3,3.6-1,5.3s-.8,1.7-1.1,2.6-.8,1.7-.4,2.4,1.2.7,1.9.4,1.3-1.2,1.7-2h-.5c-.2.7.6,1.2,1.2.9s.7-1,.9-1.5,0-.2-.1-.3-.3.1-.3.2c-.2.3-.3.8-.5,1.1s-.8,0-.7-.5,0-.2-.2-.2-.2.1-.3.2c-.3.6-.7,1.4-1.5,1.6s-.6,0-.9-.1-.4-.6-.4-1,.3-.9.4-1.3.4-.9.6-1.3c.4-.8.8-1.7,1-2.6.5-1.7.7-3.6.6-5.4s-.1-1.8-.2-2.8-.2-1.8-.6-2.6-1-1.4-1.9-1.5-1.6.5-1.7,1.3,0,.2.2.2.2-.2.3-.3h0Z"/>
        <path class="cls-4" d="M789.6-164.3c-.7-.5-1.4-.9-2.1-1.3s-1.5-.8-2.4-.9-1.5-.1-2.2.2-1.1.8-1.4,1.4c-.8,1.3-.6,2.9,0,4.3s1.5,2.7,2.4,3.9c1.9,2.3,4.2,4.1,6.8,5.5s6.1,2.3,9.4,2.5,6.9-.2,10.1-1.2,3.2-1.1,4.8-1.9,2.9-1.5,3.9-2.7c1.7-2,2.3-4.9,1.5-7.5s-3-4.4-5.5-5-2.6-.3-3.8,0-1.5.6-2.2,1-1.6.7-2.4,1c-1.6.6-3.3,1.1-5,1.6s-3.3.8-5,.6-1.6-.2-2.4-.5-.6.4-.3.5c3.1,1.2,6.4.3,9.5-.6s3.3-1,4.8-1.7,2.6-1.4,4.2-1.6c2.5-.3,5.1.7,6.7,2.7s1.9,4.8,1,7.2-1.3,2.3-2.4,3.1-2.8,1.6-4.3,2.3c-3.1,1.3-6.3,2-9.6,2.2s-6.6-.3-9.7-1.4-5.2-2.4-7.3-4.4-2-2-2.8-3.1-1.8-2.6-2-4.1,0-2.8,1.2-3.5,3.1,0,4.4.6,1.4.8,2.1,1.2.6-.3.4-.4h0Z"/>
        <path class="cls-4" d="M791-161.5c3.2,1.4,6.7,1.1,10,.4s3.5-.9,5.3-1.5,3.5-1,5.3-1.2,3.6-.2,4.6,1.2.6-.2.4-.4c-.9-1.1-2.5-1.4-3.8-1.3s-3.6.5-5.3,1c-3.4,1-6.9,2.2-10.5,2.4s-3.9-.2-5.6-1-.6.4-.3.5h0Z"/>
        <path class="cls-4" d="M789.3-162.8c-1.2-.7-2.4-1.4-3.8-1.5s-1.3,0-1.8.4-1,.7-1.2,1.3.4.1.4,0c.4-1,1.8-1.2,2.7-1.1s2.2.8,3.3,1.4.6-.3.3-.5h0Z"/>
        <path class="cls-4" d="M813-163.9c1.3.5,2.3,1.5,2.8,2.7s.4,2.8-.3,4.1-1.9,2.3-3.3,3-3.1,1.3-4.7,1.6c-3.2.7-6.5.9-9.7.3s-3.2-.7-4.7-1.4-2.9-1.5-4.2-2.5-2.5-1.9-3.6-3-2-2.3-1.6-3.8.2-.6.4-.8.2-.2.2-.3-.2,0-.3,0c-1.3,1-.9,2.8-.2,4s2.2,2.4,3.4,3.4,2.7,2,4.2,2.9,3.2,1.4,4.8,1.8c3.3.8,6.8.7,10.2.1s3.5-.8,5.1-1.6,2.8-1.6,3.8-2.9,1.4-2.8,1.2-4.3-1.1-2.6-2.3-3.4-.6-.3-.9-.5-.6.4-.3.5h0Z"/>
        <path class="cls-4" d="M804.1-161.6c.2.7.3,1.4.3,2.2s-.2.7,0,.9.4.2.6.2c.6,0,1.1-.6,1.5-1s.8-1,1.1-1.6.5-1.4.4-2.1-.5,0-.5.2c0,.7,0,1.4-.4,2s-.7,1.2-1.2,1.7-.5.4-.8.4-.2-.2-.2-.3,0-.4,0-.5c0-.8,0-1.5-.3-2.3s-.5.1-.5.3h0Z"/>
        <path class="cls-4" d="M809.4-163.1c.3.8,1.2,1.2,1.9,1s1.6-1.1,1.5-2-.2-.2-.3-.1-.2.2-.2.3c0,.6-.4,1.2-1,1.3s-1.3-.3-1.5-.9-.6.1-.5.3h0Z"/>
        <path class="cls-4" d="M813-154.4c0-.4,0-.8.2-1.3s.2-.7.4-1,.5-.4.8-.3.5.4.5.6,0,.2.2.2.2-.2.3-.3c.1-.4-.1-.8-.5-1s-.9,0-1.3.3-.6.8-.7,1.3-.2,1.1-.3,1.6.2.1.3.1c.1,0,.2-.2.2-.3h0Z"/>
        <path class="cls-4" d="M807.1-152.6c0-.4,0-.8.3-1.2s.5-.7.8-.8.8.1,1.1.4.6.8.5,1.3,0,.2.2.2.3-.2.3-.3c0-.5,0-.9-.3-1.3s-.5-.6-.9-.8c-.9-.3-1.7.6-2.1,1.4s-.3.9-.3,1.4.2.1.2.1.2-.2.2-.3h0Z"/>
        <path class="cls-4" d="M799.9-152.2c0-.4.2-.6.4-.9s.6-.5.9-.5.7.2.9.4.3.8.3,1.1.5.1.5-.1c0-.5,0-1-.3-1.5s-.8-.6-1.2-.5-.9.4-1.3.8-.7.8-.6,1.3.5,0,.5-.2h0Z"/>
        <path class="cls-4" d="M793.6-153.3c.2-.3.4-.7.8-.9s.8-.2,1.2,0,.5.5.6.9,0,.9.2,1.3.5,0,.5-.3c0-.5,0-1-.2-1.5s-.4-.8-.9-.9c-1-.4-2,.5-2.5,1.3s-.1.2,0,.3.3,0,.3-.2h0Z"/>
        <path class="cls-4" d="M798.5-160.3c0,.9.6,1.8,1.5,2s1.9-.8,2.2-1.7.2-1,0-1.5-.2,0-.3,0c-.1,0-.2.2-.2.3.1.5,0,.9,0,1.4s-.4.9-.8,1-1-.1-1.3-.5-.5-.8-.5-1.3-.2-.1-.3-.1-.2.2-.2.3h0Z"/>
        <path class="cls-4" d="M793.2-160.4c0,.8.3,1.6,1,1.9s1.6,0,2-.8.3-.9.3-1.4-.2-.1-.3-.1-.2.2-.2.3c0,.4,0,.9-.3,1.2s-.5.4-.8.4c-.8-.1-1.2-1-1.2-1.7s-.2-.1-.3-.1-.2.2-.2.3h0Z"/>
        <path class="cls-4" d="M793.5-160.5c.2,0,.4-.4.2-.4s-.4.4-.2.4h0Z"/>
        <path class="cls-4" d="M788.4-162.1c0,.8,0,1.7.8,2.1s1.5,0,2-.5.5-.7.5-1.2-.1-.1-.2-.1-.2.2-.3.3,0,.3-.1.5-.2.3-.3.4c-.2.2-.6.3-.9.3s-.6-.4-.8-.7-.2-.9-.2-1.3-.2-.1-.3-.1-.2.2-.2.3h0Z"/>
        <path class="cls-4" d="M784.7-163.2c.3.6.7,1.3,1.5,1.4s.8-.1,1.1-.4.3-.3.4-.5.1-.4.1-.6c0-.3-.4,0-.5.2s0,.5-.3.6-.5.2-.8.1c-.5-.2-.8-.7-1-1.2s-.6.1-.5.3h0Z"/>
        <path class="cls-4" d="M785.3-159.1c0-.1.1-.2.2-.3s.1-.1.2-.1c.2,0,.5.2.6.4s.1.6.1.8,0,.3,0,.4,0,.3-.1.5,0,.2.2.2.2-.1.3-.2c0-.2.1-.4.2-.6s0-.4,0-.6c0-.4,0-.7-.3-1s-.6-.4-.9-.3-.6.4-.8.7-.1.3,0,.3.3,0,.4-.2h0Z"/>
        <path class="cls-4" d="M788.8-156.1c0-.1.1-.2.2-.2s.2,0,.3,0c.3,0,.5,0,.7.2s.4.4.5.7.1.7,0,1,.1.1.2.1.2-.2.3-.3c.1-.8,0-1.6-.7-2.1s-.6-.3-1-.2-.7.3-.9.6-.1.3,0,.3.3,0,.3-.2h0Z"/>
        <path class="cls-4" d="M798.3-134.6c-1-1.3-2.7-1.9-4.3-2s-3.9.3-5.8.8-1.8.5-2.7.9-1.7.9-2.7,1.2-1.9.5-2.8.8-1.8.6-2.6,1-1.7,1-2.2,1.8-.8,1.8-.4,2.7.6-.1.5-.3c-.4-.7-.2-1.6.3-2.2s1.2-1.1,1.9-1.4,1.7-.7,2.5-1,1.8-.4,2.6-.7,1.6-.7,2.5-1.1,1.7-.7,2.6-.9,1.8-.4,2.7-.6,1.9-.3,2.8-.3c1.8,0,3.6.6,4.8,2s.6-.2.4-.4h0Z"/>
        <path class="cls-4" d="M787.1-131.9c-2.6-.1-5.2.3-7.5,1.3s-2.3,1.1-3.3,1.9-1.8,1.7-1.8,2.9.1,1.2.6,1.7,1.1.7,1.7.8.5-.4.3-.5c-.5-.1-1.1-.3-1.5-.7s-.6-.9-.6-1.4c0-1.1.8-2,1.7-2.7,1.9-1.4,4.1-2.3,6.4-2.7s2.6-.3,3.9-.3.5-.5.2-.5h0Z"/>
        <path class="cls-4" d="M788.3-129.1c-1.9-.3-3.9,0-5.7.7s-1.8.8-2.7,1.3-1.6,1.1-2.3,1.8-1.2,1.6-1.1,2.6.6,1.5,1.4,1.8,1.8.3,2.7,0,2-.7,3.1-1.1c2.4-.8,4.8-1.2,7.3-1.7s.5-.5.1-.5c-2,.4-4.1.8-6.1,1.4s-2,.6-2.9,1-1.9.8-2.9.7-1.5-.4-2-1-.3-1.8.3-2.5,1.3-1.3,2-1.8,1.6-1,2.4-1.3c1.9-.8,4-1.2,6-.9s.5-.5.2-.5h0Z"/>
        <path class="cls-4" d="M795.5-128.9c-2.2,1.6-4.3,3.8-4.6,6.7s.1,2.9,1.1,3.8,2.6.5,3.5-.4,1.4-2.5,2.3-3.7,2-1.9,3.2-2.7,2.2-1.7,2.5-3.1,0-2.6-.8-3.6-2-1.7-3.2-1.9-2.9,0-4.2.5-.7.3-1,.5-.2.2-.2.3.1.2.3.1c1.2-.7,2.6-1.1,4-1s2.4.5,3.3,1.3,1.5,1.9,1.5,3.1,0,1.2-.4,1.7-.8,1-1.3,1.4c-1,.8-2.1,1.5-3.1,2.4s-.9,1-1.3,1.5-.7,1.2-1,1.8c-.6,1-1.5,2.2-2.8,2s-1.8-1.9-1.9-3c-.2-2.7,1.5-4.9,3.5-6.5s.5-.4.8-.6.2-.2.2-.4-.2,0-.3,0h0Z"/>
        <path class="cls-4" d="M797.6-135.3c2.6-.9,5.6.2,7.1,2.4s1.2,5.4-.5,7.3-1.2,1.1-2,1.3-1.7,0-2.3-.4-.6.3-.4.4c1.3,1,3.1.6,4.3-.4s2-2.3,2.3-3.7.2-2.9-.5-4.2-1.7-2.3-3-2.9-3.4-.8-5-.3-.4.6,0,.4h0Z"/>
        <path class="cls-4" d="M808.5-149.1c.6.1,1.1.6,1.4,1.1s.7,1.1,1,1.7c.6,1.2.9,2.5,1,3.9.2,2.7-.4,5.4-1.5,7.9s-1.5,2.8-2.4,4-.1.2,0,.3.3,0,.3-.2c1.7-2.3,3.1-5,3.7-7.8s.5-5.6-.5-8.2-.6-1.4-1.1-2-.9-1.1-1.6-1.3-.6.4-.3.5h0Z"/>
        <path class="cls-4" d="M817.6-144.1c-.4,4.1-1.5,8.1-3.2,11.8s-1,2.1-1.6,3.1-.1.2,0,.3.3,0,.4-.2c2.1-3.6,3.6-7.6,4.4-11.7s.4-2.3.5-3.5-.2-.1-.3-.1c-.1,0-.2.2-.2.3h0Z"/>
        <path class="cls-4" d="M806.3-131c1.4,1,2.9,1.7,4.5,2.2s1.6.4,2.5.5,1.6,0,2.2-.5.8-1.4.3-1.9l-.4.4c.5.5.8,1.1,1,1.8s.1,0,.2,0c3.2-.6,5.8-3.1,6.7-6.2s.4-1.8.3-2.6-.3-.1-.4,0c-.5.5-1,.9-1.6,1.2l.2.2c.4-.6,1-1.1,1.2-1.8s-.2-1.6-.5-2.4c-.6-1.4-1.6-2.6-2.7-3.6s-1.3-1.1-2.1-1.5-.6.3-.3.5c1.3.7,2.4,1.6,3.3,2.7s.8,1.2,1.2,1.8.7,1.4.7,2.2-.8,1.4-1.2,2.1,0,.3.2.2c.7-.3,1.4-.8,1.9-1.3h-.4c.1,2.9-1.6,5.8-4.1,7.2s-1.5.7-2.3.8h.2c-.2-.6-.5-1.2-1-1.8s-.6.2-.4.4c.4.4.2,1.1-.3,1.3s-1.4.2-2.1.1c-1.5-.2-2.9-.7-4.2-1.3s-1.5-.8-2.2-1.3-.6.3-.4.4h0Z"/>
        <path class="cls-4" d="M819.5-153.8c1.5.6,2.6,1.9,3.7,3s2.3,2.4,3.8,3,1.8.4,2.7.2v-.3c-.5.6-1.2.8-1.8.8s-.5.3-.3.5c1.1,1.7,2,3.5,2.5,5.5s.4,2,.5,3,.1,2.1.5,3.1.9,1.8,1.8,2.2l.2-.5c-.4.1-.8.1-1.2,0s-.6.4-.3.5c.5.1,1,.1,1.4,0s.5-.4.2-.5c-1.9-.9-1.9-3.3-2.1-5.1s-.7-3.9-1.5-5.7-1-2-1.6-2.9l-.3.5c.9,0,1.8-.4,2.3-1.2s0-.4-.1-.3c-1.6.4-3.2-.4-4.5-1.4s-2.2-2.3-3.4-3.4-1.4-1.1-2.2-1.4-.6.4-.3.5h0Z"/>
        <path class="cls-4" d="M830.9-132.9c-.4,1.7-1.1,3.3-2.1,4.7s-2.4,2.4-2.8,4-.1,2-.6,2.9l.5-.2c-.2-.6-.4-1.3-.6-1.9s-.5.1-.5.3c.2.6.4,1.3.6,1.9s.4,0,.5-.2c.4-.8.4-1.7.5-2.6s.6-1.6,1.1-2.2,1.1-1.2,1.6-1.9,1-1.4,1.3-2.2.7-1.8.9-2.8,0-.2-.2-.2-.3.2-.3.3h0Z"/>
        <path class="cls-4" d="M824.7-123.8c-1.4.1-2.6.7-3.9,1.2s-2.8.9-4.2,1-2.9,0-4.4-.2-2.7,0-4.1.3-2.7,1.1-3.8,2l.3.3c.6-.9,1.3-1.7,1.9-2.6s.1-.3,0-.3c-1.3-.6-2.4-1.4-3.4-2.4s-.6.2-.4.4c1,1,2.2,1.8,3.5,2.4v-.3c-.7.9-1.3,1.7-1.9,2.6s0,.4.3.3c1-.8,2.1-1.4,3.3-1.8s2.6-.5,4-.4,2.8.3,4.3.2,2.8-.3,4.1-.8,2.8-1.3,4.3-1.4.3-.1.3-.2,0-.3-.1-.3h0Z"/>
        <path class="cls-4" d="M780.4-189.5c.2,0,.4-.4.2-.4s-.4.4-.2.4h0Z"/>
        <path class="cls-4" d="M818.9-120.9c2.3.6,4.4,1.6,6.3,3s1.8,1.4,2.2,2.5.6,2.2,1.1,3.2,1.2,1.9,2.3,2.1v-.2c-.1.1-.1,0,0,0,0,0,0,0-.1,0,0,0-.2,0-.3,0-.2,0-.4-.1-.6-.2-.4,0-.9,0-1.1.5s0,.2.1.2.3-.1.3-.2,0,0,0,0,0,0,.1,0c.1,0,.2,0,.3,0,.2,0,.4.2.6.2.4,0,.9-.2,1-.6s0-.2-.1-.2c-1-.2-1.7-1.1-2.1-1.9s-.6-2.1-1.1-3.2-1.2-1.8-2.1-2.5-1.9-1.3-2.9-1.8-2.4-1.1-3.7-1.4-.6.4-.3.5h0Z"/>
        <path class="cls-4" d="M793.1-105.8c2.2-2.7,5.1-4.8,8.3-6.2s6.7-2,10.1-1.6,3.1.6,4.3,1.5,1.1,1.1,1.4,1.8.5,1.9.5,2.9c0,2-.4,4-1.2,5.8s-2,3.2-3.3,4.6c-2.4,2.7-5.3,5.5-6.1,9.2s-.2.9-.2,1.3.1.1.2.1.2-.1.3-.2c.4-1,1.1-1.7,2-2.3h-.3c0,1.9,1.6,3.7,3.6,3.8s.3-.2.4-.3c.1-.5-.2-1-.3-1.5s0-.4.2-.4.6.2.8.3c.5.4,1,.7,1.6.9s1.2.4,1.9.4,1.5,0,2.2-.3.3-.2.3-.3,0-.2-.2-.2c-.7,0-1.3-.9-.9-1.5s.1-.3,0-.3-.3,0-.4.2c-.7.8,0,2.3,1.1,2.1v-.5c-1.3.4-2.8.3-4.1-.3s-.6-.3-.9-.5-.5-.4-.8-.5-.6-.2-.8,0-.5.4-.5.7c-.1.6.5,1.1.3,1.7l.4-.3c-1.8,0-3.3-1.7-3.3-3.6s-.2-.1-.3,0c-1,.6-1.8,1.6-2.3,2.6h.5c.3-4,3.2-7,5.7-9.8s2.6-2.9,3.5-4.6,1.5-3.7,1.6-5.7-.1-3.9-1.5-5.2-2.6-1.7-4.1-2-3.4-.3-5.1,0-3.5.6-5.2,1.2c-3.3,1.2-6.4,3.2-8.8,5.9s-.6.7-.9,1-.1.3,0,.3.3,0,.4-.2h0Z"/>
        <path class="cls-4" d="M828.9-109.4c-.1,2.7-.9,5.4-1.8,7.9s-2,5.1-3,7.7-1,2.9-1.4,4.4l.5-.2c0-.9,0-1.8-.1-2.7s-.2-.2-.3,0c-1.9,1.6-2.7,4.2-1.9,6.5l.4-.4c-.9-.6-1.7-1.3-2.5-2s-.6.2-.4.4c.8.7,1.6,1.4,2.5,2s.5-.2.4-.4c-.7-2,0-4.5,1.6-5.8h-.3c0,.8,0,1.7.1,2.6s.1.1.2.1.2-.2.3-.3c.7-2.7,1.7-5.3,2.7-7.8s2-5.1,2.7-7.7.6-3,.7-4.5-.2-.1-.3-.1-.2.2-.2.3h0Z"/>
        <path class="cls-4" d="M806.9-86.4c-.4.9-.7,2-.7,3s.6,1.8,1.5,2.4c1.7,1.1,3.8,1.6,5.9,1.4s2.3-.3,3.3-.8.3-.6,0-.4c-.9.3-1.8.6-2.8.7s-1.9,0-2.9-.1-1.8-.5-2.7-1-1.5-1.1-1.8-2,.2-2.2.6-3.2-.3-.3-.4,0h0Z"/>
        <path class="cls-4" d="M821.8-87.1c1.4.5,2.8,0,4-.7s2.5-1.6,3.9-1.7v-.4c-.5.4-1.1.9-1.6,1.5s-.2.2,0,.3.3,0,.3,0c.5-.5,1-.9,1.6-1.3s.3-.5,0-.4c-1.4.1-2.6.9-3.8,1.6s-2.7,1.3-4,.8-.6.4-.3.5h0Z"/>
        <path class="cls-4" d="M827.6-87.4c1.3-1,3.1-1.4,4.7-1v-.4c-.3.3-.7.5-1.1.8s-.2.6.1.4.8-.5,1.2-.7.3-.4,0-.4c-1.8-.4-3.7,0-5.1,1.1s-.2.2-.2.3.2,0,.3,0h0Z"/>
        <path class="cls-4" d="M828.8-86.6c1.4-.7,2.9-1.1,4.4-1.1s3,.1,3.4,1.4l.4-.4c-1.1-.6-2.3-.3-3.4,0s-1.2.2-1.8.2-.6,0-.9-.2-.6-.4-.4-.6,0-.2,0-.3-.2,0-.3,0c-.2.2-.3.6-.2.9s.4.4.7.5c.6.2,1.3.1,2,0,1.3-.2,2.6-.7,3.9-.1s.5-.2.4-.4c-.4-1.4-2.4-1.6-3.6-1.6s-3.3.4-4.7,1.1-.3.2-.2.3.2.2.3.1h0Z"/>
        <path class="cls-4" d="M834.7-85.6c.7,1.1.2,2.6-.8,3.3s-3,.8-4.4.5-2-.4-2.9-.5-.5.4-.2.5c1.8.3,3.7.9,5.5.7s3-1,3.5-2.6.2-1.6-.2-2.3-.6.1-.5.3h0Z"/>
        <path class="cls-4" d="M816-79.6c3.4.9,7.2,1,10.5-.2s1.9-.8,2.7-1.3.2-.5-.1-.4c-.7.4-1.5.8-2.3,1.2s-1.6.5-2.4.7c-1.7.3-3.4.3-5.2.1s-1.9-.3-2.9-.5-.6.4-.3.5h0Z"/>
        <path class="cls-4" d="M843.7-155.8c-1.5,1.7-2.5,3.8-3,6s-.3,4.7.2,7c1.2,4.8,4.1,9,6.5,13.3s2.3,4.4,3,6.8,1.3,5,1.2,7.6-.7,4.5-2.1,6.4-3,3.1-5,4c-4.3,1.9-9.4,1.3-13.4-1.1s-1-.6-1.4-1-.6.3-.4.4c3.7,2.9,8.6,4,13.2,2.8s7.9-4.3,9.2-8.6.5-5.1,0-7.6-1.3-5-2.3-7.3c-2.1-4.5-5.2-8.6-7-13.2s-1.5-4.8-1.4-7.3.8-4.7,2.1-6.7.6-.9,1-1.3.2-.2,0-.3-.3,0-.3,0h0Z"/>
        <path class="cls-4" d="M845.7-155.7c-3.4,3.2-3.8,8.4-2.7,12.6s5.1,9.6,7.8,14.3,5.1,10.2,3.9,15.8-1.9,5.2-3.4,7.4-3.3,4.1-5.7,5.3c-5,2.4-10.7,1.3-15.5-1s-1.2-.6-1.8-1-.6.3-.3.5c4.7,2.7,10.3,4.3,15.6,2.7s4.7-2.2,6.4-4.1,1.7-2.1,2.4-3.3,1.4-2.3,1.9-3.6c1.1-2.5,1.5-5.3,1.2-8s-1.2-5.4-2.5-7.9-2.7-4.9-4.2-7.2-3-4.7-4.1-7.2-1.7-4.7-1.6-7.3.6-4.6,1.9-6.5.7-.9,1.1-1.2,0-.5-.3-.3h0Z"/>
        <path class="cls-4" d="M843.7-155.5c.5-.5.8-1.1,1.1-1.7s0-.2-.1-.3c-2-.1-4,.4-5.6,1.4v.4c2.6-1.7,5.4-3,8.2-3.9s2.9-.8,4.4-1.1,2.9-.5,4.4-.6,3.1,0,4.2,1v-.4c-.9.8-2.1,1.3-3.3,1.9s-2.3,1.1-3.3,1.8c-2,1.3-3.9,2.9-5.4,4.7s-1.7,2.1-2.4,3.2h.4c-.3-1.4-.3-2.8,0-4.1s.4-1.2.4-1.8-.4-1-1-1-.3.1-.3.2,0,.3.1.3c.3,0,.5.1.6.4s.1.6,0,.8c-.1.6-.3,1.2-.4,1.8-.2,1.2-.1,2.4.1,3.6s.4,0,.4,0c1.2-2,2.8-3.8,4.5-5.4s3.8-2.8,6-3.8,2.7-1.2,3.9-2.1.3-.3.1-.4c-1-.9-2.4-1.1-3.7-1.1s-3,.3-4.4.5c-3.1.5-6.1,1.4-8.9,2.7s-3.1,1.6-4.5,2.6-.2.6.1.4c1.6-1,3.4-1.4,5.3-1.3v-.3c-.3.5-.6,1-1,1.5s-.2.2,0,.3.3,0,.3,0h0Z"/>
        <path class="cls-4" d="M747.6-160.9c.9-2.4,3.7-3,5.9-2.9s2.5.3,3.6,1.1,1.5,1.5,1.6,2.6-.5,2.4-1.6,2.8,0,.6.3.5c1-.4,1.7-1.5,1.7-2.6s-.5-2.3-1.3-3.1-2.2-1.4-3.5-1.6-2.9-.2-4.2.3-2.5,1.3-3,2.7.3.6.4.4h0Z"/>
        <path class="cls-4" d="M745-157.2c.2-1.3,1.1-2.4,2.3-3s3.2-.7,4.7-.4,3,.9,4,2,1.5,2.4,1.5,3.9-.8,3.2-2,4.3.2.6.3.4c1.2-1,1.9-2.5,2.1-4s-.3-3.1-1.2-4.3-2.5-2.1-4-2.6-3.5-.6-5.1,0-2.8,1.8-3,3.4.4.5.4.3h0Z"/>
        <path class="cls-4" d="M745.8-150c.6,1.5,1.6,2.8,3.1,3.6s2.9.8,4.3,0,1.2-.8,1.6-1.4.6-1.5.5-2.3c-.1-1.9-1.4-3.4-2.7-4.6s-2.9-2.4-4.7-2.8-3.1.3-4.1,1.4c-2.3,2.6-2.1,6.4-.9,9.5s4.2,6,7.3,7.8.8.4,1.2.7.3-.3,0-.4c-3-1.5-5.8-3.7-7.5-6.6s-2.3-6.4-.7-9.3,1.7-2.2,3-2.6,3.3.5,4.6,1.4,2.8,2.2,3.5,3.7.6,3.2-.5,4.3-2.4,1.4-3.8,1.1-2.7-1.3-3.4-2.6-.3-.6-.5-1-.1-.3-.3-.3-.2.1-.1.2h0Z"/>
        <path class="cls-4" d="M758.4-93.5c-2.1.8-4.4,1.1-6.6.8s-.2.1-.1.2.2.2.3.3c2.3.3,4.6,0,6.7-.8s0-.6-.3-.5h0Z"/>
        <path class="cls-4" d="M752.9-90.2c-.1-1.8-.3-3.6-1.2-5.2s-2.1-2.4-3.6-2.7-3.1.3-4,1.7-.7,1.4-.8,2.2-.2,1.7,0,2.6c.4,1.8,2.2,2.7,3.8,3.4s.2,0,.2-.2-.1-.3-.2-.3c-1.2-.5-2.7-1.2-3.2-2.5s-.3-1.6-.2-2.4.3-1.4.6-2,.8-1.2,1.4-1.5,1.4-.5,2.1-.5c1.5,0,2.7.9,3.5,2.1s1.2,3.4,1.3,5.2.5.5.4.1h0Z"/>
        <path class="cls-4" d="M742.8-91.9c-1.4-.2-2.7.8-2.9,2.2s.7,2.7,1.9,3.3,1.7.5,2.6.6,0-.5-.2-.5c-1.5-.1-3.4-.6-3.9-2.2s0-1.6.5-2.1,1.3-.8,2-.7.2-.1.1-.2-.2-.2-.3-.3h0Z"/>
        <path class="cls-4" d="M739.5-90.4c-1.3.2-2.3,1.3-2.3,2.7s1.1,2.6,2.4,2.8.8,0,1.3.1.8,0,1.2.2c.8.2,1.6.4,2.4.7,1.5.5,2.9,1.1,4.5,1.2s3.2-.1,4.3-1.2-.2-.6-.3-.4c-2.1,1.9-5.2,1.1-7.6.2s-2.9-1.1-4.4-1.2-1.5,0-2.2-.4-.9-.8-1.1-1.4c-.4-1.4.7-2.8,2.1-3s0-.5-.3-.5h0Z"/>
        <path class="cls-4" d="M749.4-84.8c.8.2,1.6.5,2.4.8s1.5.4,2.3.5c1.5.2,3.1,0,4.6-.4s1.6-.6,2.4-1-.1-.5-.3-.4c-2.7,1.4-5.9,1.7-8.8.9s-1.8-.6-2.7-.9-.2.4,0,.5h0Z"/>
        <path class="cls-4" d="M745.3-98.2c-2-1.4-4.7-1.8-6.9-.8s0,.4,0,.4c.5.3,1.1.4,1.7.5s1.1.3,1.6.6c.9.6,1.6,1.5,2.2,2.4s.5,0,.3-.2c-.7-.9-1.4-1.8-2.3-2.5s-1-.5-1.6-.7-1.2-.2-1.8-.5v.4c2.2-.9,4.8-.6,6.7.7s.2,0,.3,0,0-.3-.2-.3h0Z"/>
        <path class="cls-4" d="M737.3-89c-1.3-.3-2.7,0-3.7.7s0,.6.1.5c1.2-.3,2.6,0,3.5,1s.2,0,.2-.1,0-.3,0-.4c-1-1-2.5-1.3-3.8-1v.5c1.1-.7,2.4-.9,3.6-.6s.3-.5,0-.5h0Z"/>
        <g class="cls-10">
          <path class="cls-4" d="M826.9-178.3c.1,0,.3-.2.4-.2s.2-.1.3-.2,0,0,.1,0c-.1,0-.3.2-.4.2s-.2.1-.3.2,0,0-.1,0h0Z"/>
        </g>
        <g class="cls-10">
          <path class="cls-4" d="M826.8-178.2c.1,0,.3-.2.4-.2s.2-.1.3-.2,0,0,.1,0c-.1,0-.3.2-.4.2s-.2.1-.3.2,0,0-.1,0h0Z"/>
        </g>
        <ellipse class="cls-4" cx="800.1" cy="-172.8" rx="2.6" ry="6.4"/>
        <ellipse class="cls-4" cx="789" cy="-173.5" rx="2.6" ry="6.2"/>
      </g>
      <circle class="cls-9" cx="802.5" cy="-173.5" r="1.1"/>
      <circle class="cls-9" cx="791.6" cy="-174.7" r="1.1"/>
      <path class="cls-3" d="M800.4-160.6"/>
      <path class="cls-9" d="M790.6-162.5s-.4,2.2,1.2,2.3,1.2-1.3,1.2-1.3h-.4c0,.1-.4.2-.4.2h-.4s-.2,0-.4-.3-.3-.7-.3-.7v-.2c0,0-.4,0-.4,0Z"/>
      <polygon class="cls-4" points="832.8 -182.3 836.5 -183.8 835.4 -182.3 833.8 -182 832.8 -182.3"/>
      <polygon class="cls-4" points="810.7 -163.5 811.4 -163.7 811.5 -163.4 811.2 -163.2 810.7 -163.5"/>
      <polygon class="cls-4" points="814.3 -163.7 814.4 -164.1 815.1 -164 815 -163.4 814.3 -163.7"/>
      <polygon class="cls-4" points="805.5 -161.9 806.2 -162.1 806.3 -161.9 805.8 -161.6 805.5 -161.9"/>
      <polygon class="cls-4" points="799.9 -160.8 800.8 -160.9 800.5 -160.4 800.2 -160.3 799.9 -160.8"/>
      <polyline class="cls-4" points="793.2 -160.7 793.5 -161.4 797.9 -160.7 798.1 -160.3 797.4 -159.8 793.3 -160.7"/>
      <path class="cls-4" d="M785.8-163.4h0s.1-.4.1-.4h.9c0,0,0,.5.2.7s-.4.2-.4.2"/>
      <path class="cls-9" d="M786.9-163.9s.7,2.4,1.7,1.3-.2-.7-.2-.7l-1.5-.6Z"/>
      <polygon class="cls-4" points="813.3 -185.3 813.8 -186.6 814.5 -186.4 814.4 -185 813.3 -185.3"/>
      <polygon class="cls-4" points="820.3 -180.1 821.2 -178.7 821 -178 818.5 -177.5 819.1 -179.1 820.3 -180.1"/>
      <path class="cls-4" d="M840.4-156s14-8.8,22-4.8c0,0-13.4,7.5-14.7,12.8,0,0-2.6-4.8-.8-7.1,0,0-2.6,0-6.5-.9Z"/>
      <path class="cls-1" d="M770.8-193.4"/>
      <path class="cls-9" d="M765.5-136.5s.9-3.3,3-1.2,7.3,19.9,2.1,25.7c0,0-.9,1.5-1.2-.1s1.2-2.9,1.1-5-.2-13.8-2.9-16.9-2-1.8-2.1-2.5Z"/>
      <path class="cls-9" d="M781.5-132.8s0,0,.1,0c0,0,0,0,0,0,0,0,0,0,0,0,0,0,.1,0,.2,0,0,0,0,0,0,0,0,0,0,0,0,0,0,0,.1,0,.2,0,.2-.1.5-.2.7-.2.2,0,.3,0,.5,0-.8-2.9-1.7-5-2.3-5.7-1.9-2-2.5,1.3-2.5,1.3.2.7-.5-.7,1.9,2.4.5.6.8,1.4,1.2,2.5,0,0,0,0,0,0Z"/>
      <path class="cls-9" d="M784.6-121.6c-.2,0-.5.1-.7.2-.1,0-.2,0-.4,0,0,0-.1,0-.2,0,0,0,0,0,0,0,0,0,0,0,0,0,0,0,0,0,0,0,0,1.4.2,2.4.2,3,.2,2-1.1,3.3-.8,4.8.3,1.5,1,0,1,0,1.4-1.9,1.8-5.1,1.7-8.5-.2,0-.4.2-.6.3Z"/>
      <path class="cls-4" d="M832.2-87.5s4.4-1,5.9.5c0,0-.9-.2-2.5.3s-3.5.5-3.4-.8Z"/>
      <path class="cls-4" d="M745.3-95.9l-.9-1.1s-.7-.6-.9-.7-1.2-.4-1.2-.4l-1.1-.3-.7-.4,1.5-.4h2.1s1.6.4,1.6.4l1.4.8.3.3-.4.3-.7.7-.4.6-.2.4-.3-.4Z"/>
      <path class="cls-4" d="M735.8-88.3l1-.4s.9-.2,1-.2,1.3.1,1.3.1l.2.4-.2,1h-.5c0-.1-.8-.6-.8-.6l-1.3-.3h-.8c0,.1,0-.1,0-.1Z"/>
    </g>
  </g>
  <g id="cut">
    <path class="cls-7" d="M877.8,11.1h-159.7c-3,0-5.5-2.5-5.5-5.5v-216.4c0-3,2.5-5.5,5.5-5.5h159.7c3,0,5.5,2.5,5.5,5.5V5.6c0,3-2.5,5.5-5.5,5.5ZM718.1-215.7c-2.7,0-4.9,2.2-4.9,4.9V5.6c0,2.7,2.2,4.9,4.9,4.9h159.7c2.7,0,4.9-2.2,4.9-4.9v-216.4c0-2.7-2.2-4.9-4.9-4.9h-159.7Z"/>
    <path class="cls-8" d="M-155.9,679.8c-1.3,0-2.7,0-4,0-2.1.9-1.4,2.9-1.6,4.5-.1.2-.3.3-.4.5-.6-.8-3-.1-1.6-2.5,1.2-2.2,1.2-5.3,4.7-5.4,3.3,0,6.6,0,9.9,0-1.9,2.1-5,1.2-7,2.9Z"/>
    <path class="cls-8" d="M-160.9,684.9c1.8,1.2,3.9,1,6,1-1.5,2.5-3.2,2.3-7-1,0,0,0,0,0,0,.3-.5.7-.5,1,0Z"/>
    <path class="cls-5" d="M-160.9,684.9c-.3,0-.7,0-1,0,.4-1.8-1.2-4.4,2-5-1,1.5-1.2,3.2-1,5Z"/>
    <g>
      <path class="cls-6" d="M134.7,71.4c-.2-.4-.6-.3-1-.1-.3.1-.6.2-.9.4-1.7.7-3.3,1.4-5,2.1-3.1,1.2-6.4,1.7-9.7,2.4-5,1-9.8,2.7-14.1,5.5-.1,0-.3.1-.4.2-.7-1-1.3-2-1.9-3-3.1-4.4-6.7-8.2-10.6-11.8-1.1-1.1-2.5-1.9-3.7-2.8-.2-.2-.5-.3-.7-.4,0-.2.2-.3.2-.4.3-.4.5-.8.8-1.2,2.5-3.7,5.7-6.7,9.3-9.2,2.2-1.5,4.5-3,6.7-4.5,4.2-2.9,7.9-6.5,11.1-10.5.7-.9,1.3-1.9,1.9-2.9.3-.5.4-1.1.5-1.7,0-.8-.6-1.2-1.3-.8-.4.2-.7.4-1,.7-1.2.9-2.3,1.9-3.6,2.6-2.5,1.3-5,2.7-7.6,3.7-3.4,1.3-6.8,2.4-10.3,3.5-3.2,1.1-6.3,2.2-9.2,3.9-4.1,2.4-7.6,5.3-10.5,9.1-.4.5-.8,1.1-1.3,1.6-4.4-1.9-9-2.4-13.8-1.5.2-.5.3-.7.5-1,1.8-3.3,4-6.2,6.8-8.5,2.5-2.1,5.1-4,7.7-5.9,2.4-1.8,4.7-3.8,6.5-6.2.8-1.1,1.5-2.2,1.5-3.7-.4-.2-.8,0-1.2.3-1,.6-2.1,1.2-3.1,1.8-4.3,2.3-8.8,4-13.4,5.4-5,1.6-9.8,3.6-14.3,6.4-6,3.9-10.2,9.1-12.2,16,0,.3-.3.7-.6.8-3.2,2.1-6.2,4.5-9,7-2.9,2.6-5.4,5.6-7.1,9.1-1.6,3.2-2.9,6.6-4,10-1.5,4.9-2.6,9.8-3,14.9-.3,4-.3,8,0,12-1.5,1.2-2.3,2.9-2.5,4.8-.1,1.4-.1,2.8,0,4.1.5,3.5,2.1,6.5,4.2,9.2,3.7,4.8,8.1,8.8,13.2,12.1,1.6,1.1,3.3,2,4.9,3-1.2.7-2.4,1.1-3.8,1.2-2.1.1-4.1-.3-6-1.1-1-.4-2.1-.8-3.2-1.1-1.8-.4-2.7.6-2.6,2.3,0,.3,0,.6.1.9.5,2.2,1.8,3.9,3.5,5.3,3.4,2.8,7.3,4.3,11.7,4.6,2.5.2,5,.2,7.5-.5,2.3-.6,4.5-1.7,6.5-3,.5-.3.9-.4,1.4-.1,1.5.6,3.1.7,4.7.4,1.6-.3,3.2-.5,4.8-.5,5.7,0,11.4-.6,17.1-1.6,7.8-1.4,14.9-4.6,21-9.7,3.1-2.6,5.7-5.6,7.3-9.3,2.3-5.4,2.4-10.8-.2-16.1,0,0,0-.2,0-.2.8-.7,1.6-1.4,2.3-2.1.4-.4.7-.9.9-1.3.4-.8,0-1.3-.8-1.4-.3,0-.6,0-.9,0,0-.1,0-.2,0-.2.4-.3.8-.5,1.2-.8,3.3-2.2,6.2-4.7,8.7-7.7.5-.7,1-1.4,1.4-2.2.4-.8,0-1.4-.9-1.2-.6,0-1.3.3-1.9.5-.8.2-1.7.4-2.5.6,0,0,0-.1-.1-.2.3-.3.5-.6.8-.9,4.7-4.9,9.1-9.8,13.4-15.1,3.2-4,6.2-8.1,8.8-12.6.4-.7.7-1.3,1-2.1.1-.3,0-.7,0-1ZM68.4,67.4c1.4-4.5,3.8-8.4,6.9-12,4.2-4.9,9.4-8.3,15.4-10.5,3.5-1.2,7-2.3,10.5-3.5,3.4-1.1,6.6-2.6,9.7-4.4,1.4-.8,2.7-1.8,4-2.8.3-.2.5-.4.8-.6l.2.2c-.4.7-.7,1.4-1.1,2-1.7,2.6-3.8,4.8-6,6.9-2.5,2.4-5.3,4.5-8.2,6.4-2.5,1.7-4.9,3.3-7.3,5.1-3.2,2.4-5.7,5.5-7.8,8.9-1.1,1.9-1.8,3.9-2,6,0,1.1-.7,1.7-1.6,2.1-2.8,1.2-5.6,1.3-8.5.3-2-.7-3.7-1.9-5.3-3.3,0-.3.1-.6.2-.9ZM39.8,56.8c2.3-4.7,5.7-8.5,10.2-11.4,4-2.6,8.3-4.4,12.8-5.9,3.5-1.2,6.9-2.4,10.3-3.8,2.2-.9,4.2-2.1,6.3-3.2.3-.2.6-.4.9-.5,0,0,.1.1.2.2-.6.9-1.2,1.8-1.9,2.6-1.6,1.9-3.6,3.5-5.6,5-2.3,1.7-4.7,3.4-7,5.2-6,4.9-9.8,11.2-11.4,18.8-.2.8-.5,1.3-1.1,1.7-2.1,1.5-4.4,1.9-6.9,1.7-2.1-.2-4.1-.7-5.9-1.6-1-.5-2-1.2-2.9-1.8.2-2.6,1-4.9,2.1-7.1ZM19,100.2c.4-3.8.9-7.6,1.9-11.4.6-2.1,1.2-4.2,2.2-6.1,1-2,2.3-3.8,4.1-5.1,2-1.4,4.3-2,6.7-1.5,1.3.2,2.3.9,3.1,1.9,1.2,1.4,2,3,2.6,4.8.4,1.5.8,2.9,1.1,4.4.1.5.1.9.7,1.3.2-.3.5-.6.7-.9,1.7-2.7,3.6-5.2,5.9-7.4,3.3-3.2,7.2-5,11.7-5.7,4.3-.6,8.2.5,11.6,3.3,3.7,3,5.8,6.9,6.4,11.6.5,3.9.6,7.9.5,11.8-.1,2.8-.2,5.7-.5,8.5-.1,1.7-.5,3.3-.8,5-1.5.5-2.9,1-4.4,1.4-4.5,1.4-8.9,2.8-13.4,4.1-3.6,1.1-7.3,1.4-11.1,1.2-1.8,0-3.6-.3-5.5-.5.7-1.5,1.4-2.8,1.4-4.6-.3.3-.5.4-.6.6-.3.6-.6,1.2-.9,1.8-.2.4-.5.9-.8,1.3-.8,1-1.4.9-2-.2,0-.2-.1-.3-.2-.5-.3-.5-.8-.6-1.3-.1-.2.2-.4.5-.6.8-.5.7-1,1.4-1.7,2-.5.5-1.1.9-1.7,1.2-1.2.6-1.8.3-2.1-1-.3-1.2-.2-2.4.2-3.5.5-1.5,1.1-3,1.7-4.4,1-2.3,2.1-4.5,2.8-7,1.6-6,2.1-12.1,1-18.3-.3-1.8-.8-3.6-1.7-5.3-.7-1.3-1.6-2.4-2.9-3-1.7-.9-3.4-.8-5,.4-1.5,1.1-2.5,2.7-3.2,4.4,0,.1-.1.2,0,.3,0,.2,0,.5.2.5.1,0,.4,0,.5-.2.2-.2.3-.5.4-.7.6-.9,1.2-1.9,1.9-2.8,1.9-2,4.4-1.9,6.2.2,0,.1.2.2.3.3,1,1.4,1.6,3.1,1.9,4.8-.2-.3-.4-.7-.7-1-.5-.6-1.1-1.3-1.7-1.8-1.3-1.1-2.9-1-4.1.2-.6.6-1,1.2-1.4,1.9-.9,1.8-1.3,3.8-1.5,5.7-.4,4.4,0,8.8,1.3,13,.3.8.6,1.6,1,2.4,1.4,2.4,3.3,2.8,5.6,1.3-1.2,2.8-2.5,5.5-3.7,8.4-3.7-2.9-7.8-5.1-12.7-5.4,0-.2,0-.4,0-.6,0-4,.3-8,.7-12ZM34.4,126.5c-.2-.3-.4-.7-.5-1.1,0-.3-.1-.8,0-.9.3-.2.8-.5,1.1-.4.9.2,1.9.5,2.8.8,0,0,.1.2.2.3,0,0,0,0,0,0-.3.3-.5.7-.7,1-.3.6-.6,1.2-1.3,1.3-.8,0-1.1-.5-1.5-1.1ZM35.2,142.8c-2.2-1.2-4.2-2.3-6.1-3.7.4-1,1.1-1.6,2.1-1.9.9-.3,1.7-.2,2.4.6.3.4.6.8.8,1.2.5,1.2.7,2.4.8,3.8ZM35.6,101.7c-1.1-1.5-1.6-3.1-1.1-4.9.1-.5.5-1,.8-1.3.6-.5,1.2-.5,1.9,0,0,2.3-.2,4.6-.6,7-.5-.3-.8-.5-1.1-.8ZM32.4,145.9c-6.1-3.6-11.5-8.1-15.9-13.7-2-2.6-3.6-5.5-4.2-8.8-.3-1.6-.3-3.2,0-4.8.7-2.9,2.7-4.6,5.7-4.9,1.1,0,2.2,0,3.3.3,2.5.7,4.8,1.7,6.9,3.1.8.6,1.7,1.1,2.7,1.7,0,.7-.1,1.5-.2,2.4-.2-.1-.4-.2-.5-.3-1.8-1.7-4.1-2.3-6.4-2.7-1.6-.3-3.2-.2-4.7.2-1.9.5-3.5,1.6-4.6,3.3-.3.4-.5.9,0,1.5.4-.5.8-1,1.2-1.5,0,5.6,2.9,9.6,6.6,13.1,4,3.8,8.5,6.8,13.4,9.2.5.2,1,.4,1.6.7-1,.8-2,1.6-2.8,2.3-.8-.5-1.4-.9-2.1-1.3ZM26.7,120.2c-.7.7-1.3,1.4-1.9,2-1.1,1-2,1-3.2.2-1-.7-1.6-1.6-2.2-2.8,2.6-.6,4.9-.2,7.4.6ZM45.9,156c-2.1,1.3-4.3,2.2-6.7,2.7-2.2.4-4.5.3-6.7,0-3.8-.4-7.2-1.9-10.2-4.3-1.1-.9-2.1-2-2.7-3.4-.2-.5-.4-1-.5-1.5-.3-1.4.2-2,1.6-1.6,1,.3,2.1.7,3.1,1.1,1.5.6,3.1,1,4.8,1,2,0,3.9-.3,5.6-1.4,1.3-.8,2.5-1.7,3.7-2.7,3.6-3.1,7.1-6.2,11.1-8.8,2.3-1.6,4.8-2.9,7.6-3.5,2.1-.5,4.2-.8,6.4-.3.4,0,.7.2,1.2.3-.8.3-1.5.4-2.2.7-4.6,1.8-8.3,4.7-10.9,8.9-.3.4-.6.8-.3,1.5.4-.4.8-.7,1.1-1.1.8-1,1.6-2,2.4-2.9,2.7-2.9,5.8-5,9.7-5.9,3.5-.8,6.9-.6,10.3.7,4.2,1.6,7.9,4,11.2,7.1,0,0,0,.1.2.3-1.5.6-2.9,1.2-4.4,1.8-.4-.6-.7-1.2-1.1-1.8-2.1-2.8-5.6-2.6-7.2.6-.6,1.1-.9,2.3-.7,3.7-1,.2-2,.4-3.1.5-.2,0-.4,0-.5-.1-1.1-1.1-2.4-1-3.8-1-2.1,0-4.2.6-6.1,1.5-1.5.7-3,1.6-4.5,2.5-2.8,1.7-5.5,3.6-8.2,5.3ZM38,125.3c.2,0,.5-.1.7-.1,1.4.3,2.7.6,4.2.9-.2.4-.4.7-.6,1.1-.5.8-1.1,1-1.9.5-.6-.4-1-1-1.5-1.5-.3-.3-.4-.8-.9-.8ZM55,126.3c1.7-.3,3.4-.6,5.1-.9-.4,2-1.2,3.1-2.4,3.2-1,0-2.1-.8-2.7-2.3ZM61.2,125.1c1.9-.5,3.6-1,5.4-1.5,0,0,.1.1.2.2-.3.7-.6,1.4-1,2-.5.9-1.4,1.1-2.4.8-.8-.3-1.5-.8-2.2-1.5ZM68,123.2c1.9-.5,3.8-1,5.8-1.5-.2,3.6-3.2,7.8-5.8,8.1-.3-.7,0-1.4,0-2.1,0-1,.1-2.1.2-3.1,0-.4-.1-.8-.2-1.3ZM80.1,145.1c-2.4.8-4.8,1.4-7.3,2,.2-1.8.6-3.3,2-4.4.9-.7,2.1-.7,3.1-.1.9.6,1.5,1.5,2.2,2.5ZM104.3,129c-.3,4.8-2.5,8.9-5.8,12.4-4.3,4.5-9.4,7.7-15.2,9.9-3.7,1.4-7.5,2.3-11.4,2.8-3.6.5-7.2.8-10.8,1.1-1,0-1.9,0-3.1,0,1.2-.9,2.5-1.3,3.3-2.4-.3,0-.7.1-1,.3-.7.3-1.5.6-2.2,1-1.8.9-3.7,1.3-5.7,1.7-1.2.2-2.3,0-3.4-.3,0-.1,0-.2,0-.2,2.9-1.9,5.9-3.8,8.8-5.6.6-.4,1.2-.5,1.9-.5,2.8,0,5.6,0,8.4-.3,2.2-.2,4.4-.8,6.6-1.3,3.4-.8,6.6-1.8,9.8-3.3,3-1.4,5.8-3.1,8.2-5.5,3.8-3.9,4.7-8.5,3.7-13.7-.3-1.4-1-2.7-1.8-3.8-.2-.3-.4-.5-.7-1,.4.1.6.2.8.2,1.3.7,2.5,1.6,3.4,2.9.3.4.7.8,1,1.2,0,0,.2,0,.2-.1,0-.3-.1-.6-.3-.9-.7-1.4-1.7-2.6-3.1-3.4-1.9-1.2-4-1.7-6.2-1.8-4.6-.4-8.9.4-13.3,1.6-5.8,1.6-11.7,3.1-17.6,4.6-4.2,1-8.5,1.4-12.8.9-3-.3-5.9-1-8.9-1.6-.6-.1-1.1-.3-1.7-.4.9-1.1,1.9-2.1,2.8-3.2.1.2.2.3.4.5.4.7,1,.9,1.8.9.6,0,1.2,0,1.8.1,6.5,1,12.8.6,19-1.4,6.6-2.1,13.2-4.2,19.8-6.3,2.7-.9,5.5-1.6,8.4-1.4,4.6.2,8.5,1.9,11.4,5.4.3.3.4.8.5,1.1.3.4.7.7.9,1.1,1.4,2.7,1.7,5.6,1.5,8.6ZM88,139.9c.1-.8.3-1.6.6-2.3.7-1.3,2-1.5,3.1-.5.2.2.4.4.8.7-1.3,1.5-2.7,2.6-4.3,3.6-.4-.5-.3-1-.2-1.5ZM127,77.4c-1.8,1.5-3.8,2.8-6,3.8-2.5,1.2-5,2.3-7.5,3.5-4.3,2-8.3,4.3-11.7,7.6-1.2,1.1-2.2,2.3-3.3,3.5-.5.6-.9,1.2-1.4,1.8,0,0,0,.1,0,.2.4,0,.8,0,1.3,0,3.7-.2,5,2.5,4.7,5-.1.9-.4,1.9-.7,2.7-1.4,2.9-3.3,5.5-5.7,7.6-.3.3-.6.7-1.2.4,0-.7.5-1,.9-1.4,1.7-1.6,3.1-3.5,4.3-5.5.6-1,1-2,1.3-3.1.2-.6.2-1.2.2-1.8-.1-1.7-1.3-2.9-3-3-.6,0-1.2,0-1.8.1-.3,0-.5.1-.7.1-.8,0-1.1-.3-.7-1.1.3-.5.6-.9.9-1.3,3.8-4.9,8.5-8.6,14-11.3,2.6-1.3,5.2-2.5,7.8-3.6,2.7-1.2,5.2-2.6,7.6-4.3.4-.3.9-.5,1.4-.8,0,.7-.4.9-.6,1.1Z"/>
      <path class="cls-6" d="M51.5,101.5c0-3.9.6-7.7,2.4-11.2.6-1.2,1.3-2.4,2.3-3.3.6-.6,1.3-1.1,2.2-1,.1,0,.2,0,.3,0,1.6-.4,2.5,0,3.2,1.4.6,1.2.9,2.4,1.3,3.7.4,1.7.6,3.5.5,5.3,0,.4,0,.9-.2,1.3-.2.6-.6.7-1.1.3-.1,0-.2-.2-.3-.3-.6-.7-.9-.7-1.5,0-.9,1.2-1.1,3.5-.2,4.7.6.9,1.4,1.1,2.4.6.1,0,.2-.2.4-.2.7-.3,1.1,0,1.1.6,0,.8-.1,1.7-.2,2.5-.3,2.6-1,5.2-2.3,7.6-.5.9-1.1,1.8-1.9,2.5-1.2,1.1-2.5,1.1-3.8.2-1.1-.8-1.9-1.9-2.4-3.2-1-2.1-1.4-4.3-1.7-6.5-.2-1.6-.3-3.2-.4-4.8Z"/>
      <path class="cls-6" d="M69.7,89.3c-1.2-.5-1.6-1.6-2.6-2.1-.1.8.5,1.5,0,2.4-.5-.1-.6-.5-.7-.8-.3-.7-.5-1.4-.8-2-.7-1.6-1.6-3.1-2.8-4.3-1.7-1.7-3.5-2-5.7-1.1-1.6.7-2.8,1.9-3.8,3.4-.3.5-.6,1-.9,1.5-.1.1-.4.2-.5.3,0-.2-.2-.4-.2-.6,0,0,0-.2.1-.3,1-2,2.3-3.7,4.3-4.8,2.6-1.4,5.6-1.2,7.8,1.3.8,1,1.5,2,2.2,3.1.3.4.6.8,1,1,1.3.6,2.2,1.8,2.6,3.2Z"/>
    </g>
    <g>
      <rect class="cls-9" x="-206.2" y="34.1" width="170.1" height="226.8" rx="5.2" ry="5.2"/>
      <g>
        <g>
          <path class="cls-4" d="M-178.8,238.7c-.8,0-1.4-.2-1.9-.6-.5-.4-.9-1-1.1-1.8-.2-.9-.3-2-.4-3.4-.1-1.4-.2-2.9-.2-4.4s0-1.8,0-3,0-2.2.2-3.4c0-1.1.2-2.2.2-3.2,0-1,.2-1.8.3-2.4.2-1.3.6-2.3,1.2-3,.6-.7,1.5-1.1,2.6-1.1s2.1.4,2.7,1.2c.6.8.9,1.7.9,2.9s0,2.1-.2,3.5c-.1,1.3-.4,2.7-.6,4l-.4-.2c.2-1,.6-1.8,1.1-2.6.5-.8,1.2-1.4,2-1.8.8-.5,1.7-.7,2.9-.7,2.1,0,3.8.8,5,2.3,1.2,1.5,1.8,3.9,1.8,7.2s-.3,4.2-1,5.7c-.7,1.5-1.6,2.7-2.8,3.4-1.2.8-2.6,1.1-4.1,1.1s-2.6-.4-3.5-1.2c-1-.8-1.6-2-1.9-3.5l.7.4c-.3,1.6-.7,2.8-1.2,3.5-.6.7-1.3,1.1-2.2,1.1ZM-172.6,232.9c.7,0,1.3-.4,1.8-1.1.5-.7.8-1.8.8-3.3s-.2-2.2-.6-2.9c-.4-.8-1.1-1.1-2.1-1.1s-1.4.3-1.9,1c-.5.7-.7,1.7-.7,3s.2,2.3.7,3.2c.5.8,1.2,1.2,2,1.2Z"/>
          <path class="cls-4" d="M-150.7,238.6c-2.7,0-4.9-.4-6.5-1.1-1.6-.7-2.8-1.8-3.5-3.2-.7-1.4-1.1-3-1.1-4.9s.5-4.5,1.5-6.2c1-1.7,2.4-3,4.1-3.9,1.8-.9,3.8-1.4,6-1.4s4.6.5,5.8,1.6c1.2,1.1,1.9,2.4,1.9,4.1s-.4,2.5-1.1,3.5c-.7,1-1.8,1.8-3.1,2.3-1.3.5-2.8.8-4.6.8s-1.6,0-2.3-.2c-.8-.1-1.4-.3-2-.4l.8-1.9c0,.5,0,1.1,0,1.6,0,1,.3,1.6,1,2s1.7.6,2.9.6,2.2-.1,3.1-.4c.8-.3,1.6-.5,2.2-.8.6-.3,1.2-.4,1.8-.4s.8,0,1.2.3c.4.2.8.5,1.1.9.3.4.4,1,.4,1.7s-.4,1.8-1.1,2.6c-.7.8-1.8,1.4-3.2,1.8-1.4.4-3.2.7-5.3.7ZM-152.6,227.1c1.1,0,2-.3,2.8-.8.8-.5,1.2-1.2,1.2-1.9s-.2-.9-.5-1.2c-.4-.3-.8-.5-1.5-.5s-1.3.1-1.9.4c-.6.3-1.1.6-1.5,1-.4.4-.6.9-.6,1.4s.2.9.5,1.1c.4.3.9.4,1.5.4Z"/>
          <path class="cls-4" d="M-129.3,238.6c-2.7,0-4.9-.4-6.5-1.1-1.6-.7-2.8-1.8-3.5-3.2-.7-1.4-1.1-3-1.1-4.9s.5-4.5,1.5-6.2c1-1.7,2.4-3,4.1-3.9,1.8-.9,3.8-1.4,6-1.4s4.6.5,5.8,1.6c1.2,1.1,1.9,2.4,1.9,4.1s-.4,2.5-1.1,3.5c-.7,1-1.8,1.8-3.1,2.3-1.3.5-2.8.8-4.6.8s-1.6,0-2.3-.2c-.8-.1-1.4-.3-2-.4l.8-1.9c0,.5,0,1.1,0,1.6,0,1,.3,1.6,1,2s1.7.6,2.9.6,2.2-.1,3.1-.4c.8-.3,1.6-.5,2.2-.8.6-.3,1.2-.4,1.8-.4s.8,0,1.2.3c.4.2.8.5,1.1.9.3.4.4,1,.4,1.7s-.4,1.8-1.1,2.6c-.7.8-1.8,1.4-3.2,1.8-1.4.4-3.2.7-5.3.7ZM-131.2,227.1c1.1,0,2-.3,2.8-.8.8-.5,1.2-1.2,1.2-1.9s-.2-.9-.5-1.2c-.4-.3-.8-.5-1.5-.5s-1.3.1-1.9.4c-.6.3-1.1.6-1.5,1-.4.4-.6.9-.6,1.4s.2.9.5,1.1c.4.3.9.4,1.5.4Z"/>
          <path class="cls-4" d="M-118.9,224.7c0-2.6.3-4.4,1-5.6.6-1.1,1.5-1.7,2.7-1.7s1.4.2,1.9.7.8,1.1,1,1.8c.2.7.3,1.4.3,2.1h-.2c.4-1.3.9-2.3,1.7-3.2.8-.9,1.7-1.3,2.8-1.3s2.5.6,3.2,1.7c.7,1.1,1,2.5,1,4.2s-.3,3.8-1,4.7c-.7.9-1.6,1.3-2.8,1.3s-1.5-.2-1.9-.7c-.4-.5-.6-1.3-.5-2.3,0-.8,0-1.3,0-1.5,0-.3-.2-.4-.4-.4-.3,0-.5.2-.6.5-.1.3-.2.8-.2,1.3s0,1,.2,1.7c.1.7.2,1.4.4,2.2.1.8.3,1.6.4,2.3.1.8.2,1.5.2,2.1,0,1.4-.3,2.3-1,2.9-.7.6-1.6.9-2.8.9s-2.1-.3-2.8-.9c-.7-.6-1.2-1.5-1.4-2.8-.1-.8-.3-1.8-.4-3s-.2-2.4-.3-3.7,0-2.4,0-3.4Z"/>
          <path class="cls-4" d="M-101.5,230.6c1.2,0,2.1.3,2.9,1s1.1,1.6,1.1,2.9-.3,2.1-1,3c-.7.8-1.8,1.2-3.3,1.2s-2.2-.3-2.8-1c-.6-.7-.9-1.6-.9-2.8s.1-1.4.4-2.1c.2-.7.7-1.2,1.2-1.6.6-.4,1.4-.6,2.4-.6Z"/>
          <path class="cls-4" d="M-85.5,238.6c-2.7,0-4.9-.4-6.5-1.1-1.6-.7-2.8-1.8-3.5-3.2-.7-1.4-1.1-3-1.1-4.9s.5-4.5,1.5-6.2c1-1.7,2.4-3,4.1-3.9,1.8-.9,3.8-1.4,6-1.4s4.6.5,5.8,1.6c1.2,1.1,1.9,2.4,1.9,4.1s-.4,2.5-1.1,3.5c-.7,1-1.8,1.8-3.1,2.3-1.3.5-2.8.8-4.6.8s-1.6,0-2.3-.2c-.8-.1-1.4-.3-2-.4l.8-1.9c0,.5,0,1.1,0,1.6,0,1,.3,1.6,1,2s1.7.6,2.9.6,2.2-.1,3.1-.4c.8-.3,1.6-.5,2.2-.8.6-.3,1.2-.4,1.8-.4s.8,0,1.2.3c.4.2.8.5,1.1.9.3.4.4,1,.4,1.7s-.4,1.8-1.1,2.6c-.7.8-1.8,1.4-3.2,1.8-1.4.4-3.2.7-5.3.7ZM-87.4,227.1c1.1,0,2-.3,2.8-.8.8-.5,1.2-1.2,1.2-1.9s-.2-.9-.5-1.2c-.4-.3-.8-.5-1.5-.5s-1.3.1-1.9.4c-.6.3-1.1.6-1.5,1-.4.4-.6.9-.6,1.4s.2.9.5,1.1c.4.3.9.4,1.5.4Z"/>
          <path class="cls-4" d="M-65.2,217.6c2.4,0,4.1.4,5.2,1.2,1,.8,1.6,1.9,1.6,3.2s-.3,1.5-.8,2-1.3.8-2.3.8-1.5-.1-2.3-.3c-.8-.2-1.7-.3-2.8-.3s-.9,0-1.1.3c-.3.2-.4.4-.4.7s.1.5.4.7c.3.2.9.3,1.8.4,1.7.1,3.1.4,4.3.8,1.2.4,2,1,2.6,1.8.6.8.9,2,.9,3.4,0,2.1-.8,3.7-2.4,4.7-1.6,1-3.8,1.5-6.7,1.5s-3.5-.2-4.7-.6c-1.2-.4-2.1-.9-2.6-1.6s-.8-1.5-.8-2.4.3-1.6.9-2.1c.6-.5,1.3-.7,2.1-.7s1.1,0,1.6.2c.6.1,1.2.3,1.8.4.6.2,1.3.2,2,.2s1.3-.3,1.3-.8,0-.3-.1-.5c0-.1-.3-.3-.6-.4-.3-.1-.8-.2-1.5-.3-1.5-.2-2.8-.4-3.8-.8-1.1-.4-1.9-.9-2.5-1.6-.6-.7-.9-1.8-.9-3,0-2.1.9-3.8,2.6-5s4.2-1.9,7.3-1.9Z"/>
        </g>
        <g>
          <path class="cls-4" d="M-173.3,209.6c-2.6,0-4.7-.4-6.4-1.3-1.7-.9-3-2.1-3.8-3.6s-1.2-3.4-1.2-5.4.5-4.3,1.4-6c.9-1.7,2.3-3,4.1-4s3.9-1.4,6.4-1.4,4.2.5,5.4,1.4c1.3.9,1.9,2.2,1.9,3.8s-.3,2.1-1,2.8c-.7.7-1.6,1-2.8,1s-1.3,0-1.8-.3c-.5-.2-1-.4-1.5-.5-.5-.2-1.1-.3-1.7-.3s-1.1,0-1.6.3c-.5.2-.9.5-1.2.9-.3.4-.4,1-.4,1.7s.3,1.6.9,2c.6.4,1.3.6,2.3.6s1,0,1.6-.1c.6,0,1.2-.1,1.8-.2.6,0,1.1,0,1.5,0,1.1,0,1.9.3,2.5.9.6.6.9,1.5.9,2.7s-.6,2.8-1.8,3.7c-1.2.9-3,1.4-5.5,1.4Z"/>
          <path class="cls-4" d="M-154.9,209.5c-2.5,0-4.4-.3-5.9-1-1.5-.7-2.5-1.6-3.2-2.9-.7-1.2-1-2.7-1-4.5s.5-4,1.4-5.6c.9-1.5,2.2-2.7,3.8-3.5,1.6-.8,3.4-1.2,5.4-1.2s4.2.5,5.3,1.4c1.1,1,1.7,2.2,1.7,3.7s-.3,2.3-1,3.2c-.7.9-1.6,1.6-2.8,2.1-1.2.5-2.6.7-4.1.7s-1.4,0-2.1-.2c-.7,0-1.3-.2-1.8-.4l.7-1.7c0,.5,0,1,0,1.4,0,.9.3,1.5.9,1.8s1.5.5,2.6.5,2-.1,2.8-.3c.8-.2,1.4-.5,2-.7.6-.2,1.1-.3,1.7-.3s.7,0,1.1.3.7.5,1,.8c.3.4.4.9.4,1.5s-.3,1.7-1,2.4c-.7.7-1.6,1.3-2.9,1.7-1.3.4-2.9.6-4.8.6ZM-156.6,199c1,0,1.8-.2,2.5-.7.7-.5,1.1-1,1.1-1.7s-.2-.8-.5-1.1c-.3-.3-.8-.4-1.3-.4s-1.2.1-1.8.4c-.6.2-1,.6-1.3.9-.3.4-.5.8-.5,1.3s.2.8.5,1c.3.2.8.4,1.4.4Z"/>
          <path class="cls-4" d="M-145.4,196.9c0-2.3.3-4,.9-5,.6-1,1.4-1.6,2.4-1.6s1.3.2,1.7.6c.4.4.7,1,.9,1.6.2.6.3,1.3.3,1.9h-.2c.3-1.1.9-2.1,1.5-2.9.7-.8,1.5-1.2,2.5-1.2s2.3.5,2.9,1.5c.6,1,.9,2.3.9,3.9s-.3,3.4-.9,4.3c-.6.8-1.5,1.2-2.5,1.2s-1.4-.2-1.8-.7c-.4-.5-.5-1.1-.5-2.1,0-.7,0-1.1,0-1.4s-.2-.4-.4-.4c-.3,0-.5.1-.6.4s-.2.7-.2,1.2,0,.9.2,1.5.2,1.3.3,2c.1.7.2,1.4.3,2.1.1.7.2,1.3.2,1.9,0,1.2-.3,2.1-.9,2.7-.6.5-1.4.8-2.5.8s-1.9-.3-2.5-.8c-.7-.5-1.1-1.4-1.3-2.6-.1-.7-.2-1.6-.3-2.7-.1-1.1-.2-2.2-.3-3.4,0-1.2,0-2.2,0-3.1Z"/>
          <path class="cls-4" d="M-127.7,190.4c1.1,0,1.9.3,2.5.9.6.6,1,1.5,1.3,2.8.2.7.4,1.6.6,2.7.2,1.1.5,2.2.7,3.4.2,1.2.4,2.2.5,3.2h.1c.2-1,.4-2,.5-3.1.2-1.1.3-2.1.5-3.1.1-1,.3-1.8.3-2.4.1-1.4.4-2.4.9-3,.5-.6,1.2-.9,2.2-.9s2.1.4,2.7,1.1c.7.7,1,1.8,1,3.3s0,1.9-.3,3c-.2,1.1-.4,2.1-.7,3.1-.3,1-.7,2-1.1,2.8-.5,1.1-1.1,2.1-1.8,2.9-.7.8-1.4,1.4-2.2,1.8s-1.7.6-2.7.6-2.2-.3-3.1-1c-.9-.7-1.8-1.7-2.6-3.3-.6-1.1-1.1-2.3-1.5-3.5-.4-1.2-.7-2.4-.9-3.6-.2-1.2-.3-2.3-.3-3.3,0-1.5.3-2.6.8-3.4s1.4-1.1,2.6-1.1Z"/>
          <path class="cls-4" d="M-102.9,209.5c-2.5,0-4.4-.3-5.9-1-1.5-.7-2.5-1.6-3.2-2.9-.7-1.2-1-2.7-1-4.5s.5-4,1.4-5.6c.9-1.5,2.2-2.7,3.8-3.5,1.6-.8,3.4-1.2,5.4-1.2s4.2.5,5.3,1.4c1.1,1,1.7,2.2,1.7,3.7s-.3,2.3-1,3.2c-.7.9-1.6,1.6-2.8,2.1-1.2.5-2.6.7-4.1.7s-1.4,0-2.1-.2c-.7,0-1.3-.2-1.8-.4l.7-1.7c0,.5,0,1,0,1.4,0,.9.3,1.5.9,1.8s1.5.5,2.6.5,2-.1,2.8-.3c.8-.2,1.4-.5,2-.7.6-.2,1.1-.3,1.7-.3s.7,0,1.1.3.7.5,1,.8c.3.4.4.9.4,1.5s-.3,1.7-1,2.4c-.7.7-1.6,1.3-2.9,1.7-1.3.4-2.9.6-4.8.6ZM-104.7,199c1,0,1.8-.2,2.5-.7.7-.5,1.1-1,1.1-1.7s-.2-.8-.5-1.1c-.3-.3-.8-.4-1.3-.4s-1.2.1-1.8.4c-.6.2-1,.6-1.3.9-.3.4-.5.8-.5,1.3s.2.8.5,1c.3.2.8.4,1.4.4Z"/>
          <path class="cls-4" d="M-93.5,205.1c0-.9.3-1.9.9-2.8.6-.9,1.7-1.8,3.1-2.8,1.4-1,3.3-2,5.7-3.1h0c-.6,0-1.4.2-2.1.3-.8.1-1.5.2-2.2.3-.7,0-1.3.1-1.8.1-1.2,0-2.1-.2-2.7-.7-.6-.5-.9-1.1-.9-2s.2-1.3.6-1.9c.4-.5,1-.9,1.8-1.2.6-.2,1.3-.4,2.1-.6.8-.2,1.7-.3,2.6-.4.9,0,1.8-.1,2.7-.1,1.5,0,2.8.1,3.8.3,1,.2,1.8.6,2.3,1.2.5.6.8,1.5.8,2.6s-.2,1.2-.5,1.8c-.3.6-.9,1.2-1.7,1.9-.8.7-1.9,1.4-3.4,2.3-1.4.8-3.3,1.8-5.6,2.9h0c.6,0,1.2-.2,2-.4.8-.1,1.6-.3,2.4-.3.8,0,1.6-.1,2.3-.1,1.5,0,2.5.2,3.2.6.6.4,1,1.1,1,2.1s-.7,2.1-2.1,2.9-3.4,1.2-6.1,1.2-4.9-.4-6.2-1.2c-1.3-.8-2-1.9-2-3.3Z"/>
          <path class="cls-4" d="M-61.2,209.6c-1.2,0-1.9-.3-2.3-.8s-.5-1.4-.5-2.5l.5.2c-1.1,2.2-3.2,3.3-6.2,3.3s-2.6-.2-3.5-.7c-.9-.5-1.6-1.1-2-1.9-.5-.8-.7-1.7-.7-2.7,0-1.7.6-3,1.9-4,1.2-1,2.9-1.5,4.9-1.5s2.3.2,3.3.6c.9.4,1.7.9,2.4,1.6h-1c0-1.6-.3-2.7-.9-3.4-.6-.7-1.4-1-2.6-1s-1,0-1.6.2c-.6.2-1.1.3-1.7.5-.6.2-1.2.2-1.8.2s-1.4-.2-1.9-.6-.7-1-.7-1.7.4-1.7,1.2-2.5c.8-.7,1.8-1.3,3.1-1.7,1.3-.4,2.7-.6,4.2-.6s3.7.4,5.1,1.1c1.4.7,2.5,1.9,3,3.4.4,1.1.8,2.3.9,3.7.2,1.4.3,2.9.3,4.4s-.1,3-.4,4-.6,1.6-1.2,2c-.5.4-1.2.6-2.1.6ZM-67.1,205.2c.4,0,.8,0,1.2-.2.4-.1.8-.3,1-.6.3-.3.4-.6.4-.9s-.1-.7-.3-.9c-.2-.2-.5-.4-.9-.5-.4-.1-.8-.2-1.2-.2-.8,0-1.4.2-1.8.5-.5.3-.7.7-.7,1.2s.2.8.6,1.1c.4.3,1,.4,1.6.4Z"/>
        </g>
      </g>
      <g>
        <path class="cls-6" d="M-154.6,166.8c-1.7-1-3.3-2-4.9-3-5-3.3-9.5-7.3-13.2-12.1-2.1-2.7-3.7-5.8-4.2-9.2-.2-1.4-.2-2.8,0-4.1.2-1.9,1-3.6,2.5-4.8-.4-4-.3-8,0-12,.4-5.1,1.5-10,3-14.9,1.1-3.4,2.4-6.8,4-10,1.8-3.5,4.2-6.5,7.1-9.1,2.9-2.5,5.9-4.9,9-7,.3-.2.5-.5.6-.8,2-6.9,6.2-12.1,12.2-16,4.4-2.8,9.3-4.8,14.3-6.4,4.6-1.5,9.1-3.1,13.4-5.4,1-.6,2.1-1.2,3.1-1.8.4-.2.7-.4,1.2-.3,0,1.5-.7,2.6-1.5,3.7-1.9,2.4-4.1,4.4-6.5,6.2-2.6,2-5.2,3.9-7.7,5.9-2.9,2.4-5.1,5.3-6.8,8.5-.1.3-.3.6-.5,1,4.8-.9,9.3-.4,13.8,1.5.4-.5.8-1.1,1.3-1.6,2.9-3.8,6.4-6.7,10.5-9.1,2.9-1.7,6-2.8,9.2-3.9,3.4-1.2,6.9-2.2,10.3-3.5,2.6-1,5.1-2.4,7.6-3.7,1.3-.7,2.4-1.7,3.6-2.6.3-.2.6-.5,1-.7.7-.4,1.4,0,1.3.8,0,.6-.2,1.2-.5,1.7-.6,1-1.2,2-1.9,2.9-3.2,4.1-6.9,7.6-11.1,10.5-2.2,1.5-4.4,3-6.7,4.5-3.7,2.5-6.9,5.5-9.3,9.2-.3.4-.5.8-.8,1.2,0,.1-.1.3-.2.4.3.2.5.3.7.4,1.3.9,2.6,1.7,3.7,2.8,3.9,3.6,7.6,7.4,10.6,11.8.7.9,1.3,1.9,1.9,3,.1,0,.3,0,.4-.2,4.3-2.8,9.1-4.5,14.1-5.5,3.3-.7,6.6-1.2,9.7-2.4,1.7-.7,3.4-1.4,5-2.1.3-.1.6-.2.9-.4.4-.2.8-.2,1,.1.1.3.2.7,0,1-.3.7-.6,1.4-1,2.1-2.6,4.4-5.6,8.6-8.8,12.6-4.2,5.2-8.7,10.2-13.4,15.1-.3.3-.5.6-.8.9,0,0,0,.1.1.2.8-.2,1.7-.4,2.5-.6.6-.2,1.2-.4,1.9-.5.9-.1,1.3.4.9,1.2-.4.8-.9,1.5-1.4,2.2-2.5,3-5.4,5.5-8.7,7.7-.4.3-.8.5-1.2.8,0,0,0,.1,0,.2.3,0,.6,0,.9,0,.9.1,1.2.6.8,1.4-.2.5-.6.9-.9,1.3-.7.7-1.5,1.4-2.3,2.1,0,0,0,.1,0,.2,2.6,5.3,2.5,10.7.2,16.1-1.6,3.8-4.2,6.8-7.3,9.3-6.1,5.1-13.1,8.3-21,9.7-5.7,1-11.4,1.6-17.1,1.6-1.6,0-3.2.2-4.8.5-1.6.3-3.2.2-4.7-.4-.5-.2-.9-.2-1.4.1-2,1.3-4.2,2.3-6.5,3-2.5.6-5,.6-7.5.5-4.4-.3-8.3-1.8-11.7-4.6-1.7-1.4-3-3.1-3.5-5.3,0-.3-.1-.6-.1-.9-.2-1.8.8-2.7,2.6-2.3,1.1.2,2.2.6,3.2,1.1,1.9.8,3.9,1.2,6,1.1,1.4,0,2.6-.5,3.8-1.2ZM-150.1,144.3c.6,0,.7.4.9.8.5.5.9,1.1,1.5,1.5.8.5,1.4.3,1.9-.5.2-.3.4-.7.6-1.1-1.5-.3-2.8-.6-4.2-.9-.2,0-.5,0-.7.1,0-.1,0-.3-.2-.3-.9-.3-1.8-.6-2.8-.8-.4,0-.8.1-1.1.4-.1.1,0,.6,0,.9.1.4.3.7.5,1.1.4.5.7,1.1,1.5,1.1.8,0,1-.7,1.3-1.3.2-.4.5-.7.7-1ZM-157,137.2c1.3-2.8,2.5-5.6,3.7-8.4-2.4,1.5-4.3,1.1-5.6-1.3-.4-.8-.7-1.6-1-2.4-1.3-4.2-1.7-8.6-1.3-13,.2-2,.6-4,1.5-5.7.4-.7.8-1.4,1.4-1.9,1.2-1.2,2.8-1.3,4.1-.2.6.5,1.2,1.2,1.7,1.8.3.3.4.6.7,1-.3-1.8-.8-3.4-1.9-4.8,0-.1-.2-.2-.3-.3-1.8-2.1-4.3-2.2-6.2-.2-.8.8-1.3,1.8-1.9,2.8-.2.2-.3.5-.4.7-.1.1-.4.2-.5.2-.1,0-.2-.3-.2-.5,0,0,0-.2,0-.3.7-1.7,1.7-3.3,3.2-4.4,1.6-1.1,3.3-1.2,5-.4,1.3.7,2.2,1.7,2.9,3,.9,1.6,1.4,3.4,1.7,5.3,1.1,6.2.7,12.3-1,18.3-.7,2.4-1.8,4.7-2.8,7-.6,1.5-1.2,2.9-1.7,4.4-.4,1.1-.5,2.3-.2,3.5.4,1.3,1,1.6,2.1,1,.6-.3,1.2-.7,1.7-1.2.6-.6,1.1-1.3,1.7-2,.2-.3.4-.6.6-.8.4-.4.9-.4,1.3.1,0,.1.2.3.2.5.6,1.2,1.2,1.3,2,.2.3-.4.5-.9.8-1.3.3-.6.6-1.2.9-1.8.1-.2.3-.3.6-.6,0,1.8-.7,3.1-1.4,4.6,1.9.2,3.7.5,5.5.5,3.8.2,7.5-.1,11.1-1.2,4.5-1.3,8.9-2.7,13.4-4.1,1.4-.5,2.9-.9,4.4-1.4.3-1.7.7-3.3.8-5,.2-2.8.4-5.6.5-8.5.2-4,0-7.9-.5-11.8-.6-4.7-2.7-8.6-6.4-11.6-3.4-2.8-7.3-3.9-11.6-3.3-4.5.6-8.4,2.5-11.7,5.7-2.3,2.2-4.2,4.7-5.9,7.4-.2.3-.4.6-.7.9-.6-.4-.6-.8-.7-1.3-.3-1.5-.7-3-1.1-4.4-.5-1.7-1.4-3.4-2.6-4.8-.8-1-1.8-1.6-3.1-1.9-2.4-.5-4.7,0-6.7,1.5-1.9,1.3-3.1,3.1-4.1,5.1-1,1.9-1.6,4-2.2,6.1-1,3.7-1.5,7.5-1.9,11.4-.5,4-.7,8-.7,12,0,.2,0,.4,0,.6,4.9.3,8.9,2.5,12.7,5.4ZM-102.6,162c-.1-.2-.2-.3-.2-.3-3.3-3.1-7-5.5-11.2-7.1-3.3-1.3-6.8-1.5-10.3-.7-3.9.9-7,3-9.7,5.9-.9.9-1.6,2-2.4,2.9-.3.4-.7.7-1.1,1.1-.3-.7,0-1.1.3-1.5,2.6-4.2,6.3-7.2,10.9-8.9.7-.2,1.4-.4,2.2-.7-.5-.1-.9-.2-1.2-.3-2.1-.4-4.3-.1-6.4.3-2.8.6-5.2,1.9-7.6,3.5-3.9,2.6-7.5,5.7-11.1,8.8-1.1,1-2.4,1.9-3.7,2.7-1.7,1.1-3.6,1.5-5.6,1.4-1.7,0-3.2-.4-4.8-1-1-.4-2-.8-3.1-1.1-1.4-.4-1.9.1-1.6,1.6.1.5.3,1,.5,1.5.6,1.4,1.5,2.5,2.7,3.4,3,2.4,6.4,3.9,10.2,4.3,2.2.3,4.5.3,6.7,0,2.4-.4,4.7-1.4,6.7-2.7,2.8-1.7,5.5-3.6,8.2-5.3,1.4-.9,2.9-1.8,4.5-2.5,1.9-.9,3.9-1.5,6.1-1.5,1.3,0,2.7,0,3.8,1,.1.1.3.2.5.1,1-.2,2-.4,3.1-.5-.1-1.4.1-2.6.7-3.7,1.6-3.1,5.1-3.4,7.2-.6.4.5.7,1.1,1.1,1.8,1.5-.6,2.9-1.2,4.4-1.8ZM-86.3,138.3c-.2-.3-.3-.8-.5-1.1-3-3.6-6.9-5.2-11.4-5.4-2.9-.1-5.7.6-8.4,1.4-6.6,2.1-13.2,4.2-19.8,6.3-6.2,2-12.6,2.3-19,1.4-.6,0-1.2-.2-1.8-.1-.8,0-1.4-.2-1.8-.9-.1-.2-.2-.3-.4-.5-.9,1.1-1.9,2.2-2.8,3.2.6.1,1.1.3,1.7.4,3,.5,5.9,1.2,8.9,1.6,4.3.5,8.6,0,12.8-.9,5.9-1.5,11.7-3,17.6-4.6,4.4-1.2,8.8-2,13.3-1.6,2.2.2,4.3.7,6.2,1.8,1.4.8,2.4,2,3.1,3.4.1.3.2.6.3.9,0,0-.2,0-.2.1-.3-.4-.7-.8-1-1.2-.9-1.2-2-2.2-3.4-2.9-.2,0-.4-.1-.8-.2.3.4.5.7.7,1,.8,1.2,1.5,2.4,1.8,3.8,1,5.2,0,9.8-3.7,13.7-2.4,2.4-5.2,4.1-8.2,5.5-3.1,1.4-6.4,2.5-9.8,3.3-2.2.5-4.4,1-6.6,1.3-2.8.3-5.6.2-8.4.3-.7,0-1.3.1-1.9.5-2.9,1.9-5.9,3.8-8.8,5.6,0,0,0,0,0,.2,1.1.3,2.2.6,3.4.3,2-.4,3.9-.8,5.7-1.7.7-.4,1.4-.7,2.2-1,.3-.1.6-.2,1-.3-.8,1.1-2.1,1.5-3.3,2.4,1.2,0,2.2,0,3.1,0,3.6-.3,7.2-.6,10.8-1.1,3.9-.5,7.7-1.4,11.4-2.8,5.7-2.3,10.9-5.4,15.2-9.9,3.3-3.5,5.4-7.5,5.8-12.4.2-3-.2-5.9-1.5-8.6-.2-.4-.6-.7-.9-1.1ZM-72.2,53c0,0-.2-.1-.2-.2-.3.2-.5.4-.8.6-1.3.9-2.6,1.9-4,2.8-3.1,1.8-6.3,3.3-9.7,4.4-3.5,1.2-7,2.3-10.5,3.5-6,2.1-11.2,5.6-15.4,10.5-3.1,3.6-5.5,7.5-6.9,12,0,.3-.2.6-.2.9,1.6,1.4,3.3,2.6,5.3,3.3,2.9,1,5.7.9,8.5-.3.9-.4,1.5-1,1.6-2.1.2-2.2.9-4.2,2-6,2.1-3.4,4.6-6.5,7.8-8.9,2.4-1.8,4.8-3.5,7.3-5.1,2.9-2,5.7-4,8.2-6.4,2.2-2.1,4.3-4.3,6-6.9.4-.6.7-1.3,1.1-2ZM-107.6,51.3c0,0-.1-.1-.2-.2-.3.2-.6.4-.9.5-2.1,1.1-4.1,2.3-6.3,3.2-3.4,1.4-6.8,2.6-10.3,3.8-4.5,1.5-8.8,3.4-12.8,5.9-4.4,2.9-7.8,6.7-10.2,11.4-1.1,2.2-1.8,4.5-2.1,7.1,1,.6,1.9,1.3,2.9,1.8,1.9,1,3.9,1.4,5.9,1.6,2.5.2,4.8-.2,6.9-1.7.6-.4,1-1,1.1-1.7,1.6-7.6,5.3-13.9,11.4-18.8,2.3-1.8,4.6-3.5,7-5.2,2-1.5,4-3.1,5.6-5,.7-.8,1.3-1.7,1.9-2.6ZM-150.7,164c-.7-.3-1.2-.5-1.6-.7-4.9-2.4-9.4-5.5-13.4-9.2-3.7-3.5-6.6-7.5-6.6-13.1-.4.5-.8,1-1.2,1.5-.5-.6-.3-1.1,0-1.5,1.1-1.7,2.6-2.8,4.6-3.3,1.6-.4,3.2-.4,4.7-.2,2.3.4,4.6,1,6.4,2.7.1.1.3.2.5.3,0-.9.2-1.7.2-2.4-1-.6-1.8-1.1-2.7-1.7-2.1-1.5-4.4-2.4-6.9-3.1-1.1-.3-2.2-.4-3.3-.3-2.9.2-5,2-5.7,4.9-.4,1.6-.3,3.2,0,4.8.6,3.3,2.1,6.2,4.2,8.8,4.4,5.6,9.8,10.1,15.9,13.7.7.4,1.3.8,2.1,1.3.9-.7,1.8-1.5,2.8-2.3ZM-90.8,116.8c0,0,0-.1,0-.2.5-.6.9-1.2,1.4-1.8,1.1-1.2,2.1-2.4,3.3-3.5,3.4-3.3,7.5-5.6,11.7-7.6,2.5-1.2,5-2.3,7.5-3.5,2.1-1,4.1-2.3,6-3.8.3-.2.7-.4.6-1.1-.6.3-1,.5-1.4.8-2.4,1.7-4.9,3.1-7.6,4.3-2.6,1.2-5.2,2.4-7.8,3.6-5.5,2.7-10.2,6.5-14,11.3-.3.4-.7.9-.9,1.3-.4.7-.1,1.1.7,1.1.3,0,.5-.1.7-.1.6,0,1.2-.1,1.8-.1,1.7,0,2.9,1.2,3,3,0,.6,0,1.3-.2,1.8-.4,1.1-.8,2.1-1.3,3.1-1.2,2-2.6,3.8-4.3,5.5-.4.4-.9.8-.9,1.4.6.2.9-.1,1.2-.4,2.4-2.2,4.3-4.7,5.7-7.6.4-.8.6-1.8.7-2.7.4-2.4-1-5.2-4.7-5-.4,0-.8,0-1.3,0ZM-120,148.8c2.6-.2,5.6-4.4,5.8-8.1-2,.5-3.9,1-5.8,1.5,0,.5.2.9.2,1.3,0,1-.1,2.1-.2,3.1,0,.7-.3,1.4,0,2.1ZM-107.9,164.1c-.6-1-1.3-1.9-2.2-2.5-1-.6-2.2-.6-3.1.1-1.4,1.1-1.8,2.6-2,4.4,2.5-.6,4.9-1.2,7.3-2ZM-159,158.2c1.9,1.4,3.9,2.5,6.1,3.7,0-1.4-.3-2.6-.8-3.8-.2-.5-.5-.9-.8-1.2-.7-.7-1.5-.9-2.4-.6-.9.3-1.6.9-2.1,1.9ZM-168.7,138.7c.6,1.1,1.3,2.1,2.2,2.8,1.2.9,2.2.8,3.2-.2.7-.6,1.2-1.3,1.9-2-2.5-.8-4.8-1.2-7.4-.6ZM-150.8,114.5c-.7-.5-1.4-.5-1.9,0-.4.4-.7.9-.8,1.3-.5,1.8,0,3.4,1.1,4.9.2.3.6.4,1.1.8.4-2.5.7-4.8.6-7ZM-95.6,156.8c-.3-.3-.5-.5-.8-.7-1.1-.9-2.4-.8-3.1.5-.4.7-.5,1.5-.6,2.3,0,.5-.2,1,.2,1.5,1.6-1,3-2.1,4.3-3.6ZM-128,144.4c-1.7.3-3.4.6-5.1.9.6,1.5,1.7,2.4,2.7,2.3,1.2-.1,2-1.2,2.4-3.2ZM-121.3,142.8c0,0-.1-.1-.2-.2-1.7.5-3.5,1-5.4,1.5.7.7,1.4,1.2,2.2,1.5,1,.3,1.8,0,2.4-.8.4-.6.7-1.3,1-2Z"/>
        <path class="cls-9" d="M-90.8,116.8c.4,0,.8,0,1.3,0,3.7-.2,5,2.5,4.7,5-.1.9-.4,1.9-.7,2.7-1.4,2.9-3.3,5.5-5.7,7.6-.3.3-.6.7-1.2.4,0-.7.5-1,.9-1.4,1.7-1.6,3.1-3.5,4.3-5.5.6-1,1-2,1.3-3.1.2-.6.2-1.2.2-1.8-.1-1.7-1.3-2.9-3-3-.6,0-1.2,0-1.8.1-.3,0-.5.1-.7.1-.8,0-1.1-.3-.7-1.1.3-.5.6-.9.9-1.3,3.8-4.9,8.5-8.6,14-11.3,2.6-1.3,5.2-2.5,7.8-3.6,2.7-1.2,5.2-2.6,7.6-4.3.4-.3.9-.5,1.4-.8,0,.7-.4.9-.6,1.1-1.8,1.5-3.8,2.8-6,3.8-2.5,1.2-5,2.3-7.5,3.5-4.3,2-8.3,4.3-11.7,7.6-1.2,1.1-2.2,2.3-3.3,3.5-.5.6-.9,1.2-1.4,1.8,0,0,0,.1,0,.2Z"/>
        <path class="cls-6" d="M-136.5,120.5c0-3.9.6-7.7,2.4-11.2.6-1.2,1.3-2.4,2.3-3.3.6-.6,1.3-1.1,2.2-1,.1,0,.2,0,.3,0,1.6-.4,2.5,0,3.2,1.4.6,1.2.9,2.4,1.3,3.7.4,1.7.6,3.5.5,5.3,0,.4,0,.9-.2,1.3-.2.6-.6.7-1.1.3-.1,0-.2-.2-.3-.3-.6-.7-.9-.7-1.5,0-.9,1.2-1.1,3.5-.2,4.7.6.9,1.4,1.1,2.4.6.1,0,.2-.2.4-.2.7-.3,1.1,0,1.1.6,0,.8-.1,1.7-.2,2.5-.3,2.6-1,5.2-2.3,7.6-.5.9-1.1,1.8-1.9,2.5-1.2,1.1-2.5,1.1-3.8.2-1.1-.8-1.9-1.9-2.4-3.2-1-2.1-1.4-4.3-1.7-6.5-.2-1.6-.3-3.2-.4-4.8Z"/>
        <path class="cls-6" d="M-118.4,108.3c-1.2-.5-1.6-1.6-2.6-2.1-.1.8.5,1.5,0,2.4-.5-.1-.6-.5-.7-.8-.3-.7-.5-1.4-.8-2-.7-1.6-1.6-3.1-2.8-4.3-1.7-1.7-3.5-2-5.7-1.1-1.6.7-2.8,1.9-3.8,3.4-.3.5-.6,1-.9,1.5-.1.1-.4.2-.5.3,0-.2-.2-.4-.2-.6,0,0,0-.2.1-.3,1-2,2.3-3.7,4.3-4.8,2.6-1.4,5.6-1.2,7.8,1.3.8,1,1.5,2,2.2,3.1.3.4.6.8,1,1,1.3.6,2.2,1.8,2.6,3.2Z"/>
      </g>
      <path class="cls-7" d="M-41.3,261.1h-159.7c-3,0-5.5-2.5-5.5-5.5V39.3c0-3,2.5-5.5,5.5-5.5H-41.3c3,0,5.5,2.5,5.5,5.5v216.4c0,3-2.5,5.5-5.5,5.5ZM-201,34.4c-2.7,0-4.9,2.2-4.9,4.9v216.4c0,2.7,2.2,4.9,4.9,4.9H-41.3c2.7,0,4.9-2.2,4.9-4.9V39.3c0-2.7-2.2-4.9-4.9-4.9h-159.7Z"/>
    </g>
  </g>
</svg>